G04 #@! TF.GenerationSoftware,KiCad,Pcbnew,(5.0.1)-4*
G04 #@! TF.CreationDate,2019-02-18T18:34:45+08:00*
G04 #@! TF.ProjectId,Xiaomi2Ali-Smart-Plug-WIFI-Module,5869616F6D6932416C692D536D617274,rev?*
G04 #@! TF.SameCoordinates,Original*
G04 #@! TF.FileFunction,Copper,L1,Top,Signal*
G04 #@! TF.FilePolarity,Positive*
%FSLAX46Y46*%
G04 Gerber Fmt 4.6, Leading zero omitted, Abs format (unit mm)*
G04 Created by KiCad (PCBNEW (5.0.1)-4) date 2019/2/18 18:34:45*
%MOMM*%
%LPD*%
G01*
G04 APERTURE LIST*
G04 #@! TA.AperFunction,ComponentPad*
%ADD10R,1.350000X1.350000*%
G04 #@! TD*
G04 #@! TA.AperFunction,Conductor*
%ADD11C,0.100000*%
G04 #@! TD*
G04 #@! TA.AperFunction,SMDPad,CuDef*
%ADD12C,1.250000*%
G04 #@! TD*
G04 #@! TA.AperFunction,ComponentPad*
%ADD13O,1.700000X1.700000*%
G04 #@! TD*
G04 #@! TA.AperFunction,ComponentPad*
%ADD14R,1.700000X1.700000*%
G04 #@! TD*
G04 #@! TA.AperFunction,SMDPad,CuDef*
%ADD15R,1.400000X1.600000*%
G04 #@! TD*
G04 #@! TA.AperFunction,ViaPad*
%ADD16C,0.800000*%
G04 #@! TD*
G04 #@! TA.AperFunction,Conductor*
%ADD17C,0.250000*%
G04 #@! TD*
G04 APERTURE END LIST*
D10*
G04 #@! TO.P,J1,7*
G04 #@! TO.N,N/C*
X143300000Y-99500000D03*
G04 #@! TO.P,J1,6*
X143300000Y-97500000D03*
G04 #@! TO.P,J1,5*
X143300000Y-95500000D03*
G04 #@! TO.P,J1,4*
X143300000Y-93500000D03*
G04 #@! TO.P,J1,3*
X143300000Y-91500000D03*
G04 #@! TO.P,J1,2*
X143300000Y-89500000D03*
G04 #@! TO.P,J1,1*
X143300000Y-87500000D03*
G04 #@! TD*
G04 #@! TO.P,J1,1*
G04 #@! TO.N,N/C*
X143500000Y-99500000D03*
G04 #@! TO.P,J1,2*
X143500000Y-97500000D03*
G04 #@! TO.P,J1,3*
X143500000Y-95500000D03*
G04 #@! TO.P,J1,4*
X143500000Y-93500000D03*
G04 #@! TO.P,J1,5*
X143500000Y-91500000D03*
G04 #@! TO.P,J1,6*
X143500000Y-89500000D03*
G04 #@! TO.P,J1,7*
X143500000Y-87500000D03*
G04 #@! TD*
D11*
G04 #@! TO.N,N/C*
G04 #@! TO.C,R1*
G36*
X149449504Y-104276204D02*
X149473773Y-104279804D01*
X149497571Y-104285765D01*
X149520671Y-104294030D01*
X149542849Y-104304520D01*
X149563893Y-104317133D01*
X149583598Y-104331747D01*
X149601777Y-104348223D01*
X149618253Y-104366402D01*
X149632867Y-104386107D01*
X149645480Y-104407151D01*
X149655970Y-104429329D01*
X149664235Y-104452429D01*
X149670196Y-104476227D01*
X149673796Y-104500496D01*
X149675000Y-104525000D01*
X149675000Y-105275000D01*
X149673796Y-105299504D01*
X149670196Y-105323773D01*
X149664235Y-105347571D01*
X149655970Y-105370671D01*
X149645480Y-105392849D01*
X149632867Y-105413893D01*
X149618253Y-105433598D01*
X149601777Y-105451777D01*
X149583598Y-105468253D01*
X149563893Y-105482867D01*
X149542849Y-105495480D01*
X149520671Y-105505970D01*
X149497571Y-105514235D01*
X149473773Y-105520196D01*
X149449504Y-105523796D01*
X149425000Y-105525000D01*
X148175000Y-105525000D01*
X148150496Y-105523796D01*
X148126227Y-105520196D01*
X148102429Y-105514235D01*
X148079329Y-105505970D01*
X148057151Y-105495480D01*
X148036107Y-105482867D01*
X148016402Y-105468253D01*
X147998223Y-105451777D01*
X147981747Y-105433598D01*
X147967133Y-105413893D01*
X147954520Y-105392849D01*
X147944030Y-105370671D01*
X147935765Y-105347571D01*
X147929804Y-105323773D01*
X147926204Y-105299504D01*
X147925000Y-105275000D01*
X147925000Y-104525000D01*
X147926204Y-104500496D01*
X147929804Y-104476227D01*
X147935765Y-104452429D01*
X147944030Y-104429329D01*
X147954520Y-104407151D01*
X147967133Y-104386107D01*
X147981747Y-104366402D01*
X147998223Y-104348223D01*
X148016402Y-104331747D01*
X148036107Y-104317133D01*
X148057151Y-104304520D01*
X148079329Y-104294030D01*
X148102429Y-104285765D01*
X148126227Y-104279804D01*
X148150496Y-104276204D01*
X148175000Y-104275000D01*
X149425000Y-104275000D01*
X149449504Y-104276204D01*
X149449504Y-104276204D01*
G37*
D12*
G04 #@! TD*
G04 #@! TO.P,R1,2*
G04 #@! TO.N,N/C*
X148800000Y-104900000D03*
D11*
G04 #@! TO.N,N/C*
G04 #@! TO.C,R1*
G36*
X149449504Y-101476204D02*
X149473773Y-101479804D01*
X149497571Y-101485765D01*
X149520671Y-101494030D01*
X149542849Y-101504520D01*
X149563893Y-101517133D01*
X149583598Y-101531747D01*
X149601777Y-101548223D01*
X149618253Y-101566402D01*
X149632867Y-101586107D01*
X149645480Y-101607151D01*
X149655970Y-101629329D01*
X149664235Y-101652429D01*
X149670196Y-101676227D01*
X149673796Y-101700496D01*
X149675000Y-101725000D01*
X149675000Y-102475000D01*
X149673796Y-102499504D01*
X149670196Y-102523773D01*
X149664235Y-102547571D01*
X149655970Y-102570671D01*
X149645480Y-102592849D01*
X149632867Y-102613893D01*
X149618253Y-102633598D01*
X149601777Y-102651777D01*
X149583598Y-102668253D01*
X149563893Y-102682867D01*
X149542849Y-102695480D01*
X149520671Y-102705970D01*
X149497571Y-102714235D01*
X149473773Y-102720196D01*
X149449504Y-102723796D01*
X149425000Y-102725000D01*
X148175000Y-102725000D01*
X148150496Y-102723796D01*
X148126227Y-102720196D01*
X148102429Y-102714235D01*
X148079329Y-102705970D01*
X148057151Y-102695480D01*
X148036107Y-102682867D01*
X148016402Y-102668253D01*
X147998223Y-102651777D01*
X147981747Y-102633598D01*
X147967133Y-102613893D01*
X147954520Y-102592849D01*
X147944030Y-102570671D01*
X147935765Y-102547571D01*
X147929804Y-102523773D01*
X147926204Y-102499504D01*
X147925000Y-102475000D01*
X147925000Y-101725000D01*
X147926204Y-101700496D01*
X147929804Y-101676227D01*
X147935765Y-101652429D01*
X147944030Y-101629329D01*
X147954520Y-101607151D01*
X147967133Y-101586107D01*
X147981747Y-101566402D01*
X147998223Y-101548223D01*
X148016402Y-101531747D01*
X148036107Y-101517133D01*
X148057151Y-101504520D01*
X148079329Y-101494030D01*
X148102429Y-101485765D01*
X148126227Y-101479804D01*
X148150496Y-101476204D01*
X148175000Y-101475000D01*
X149425000Y-101475000D01*
X149449504Y-101476204D01*
X149449504Y-101476204D01*
G37*
D12*
G04 #@! TD*
G04 #@! TO.P,R1,1*
G04 #@! TO.N,N/C*
X148800000Y-102100000D03*
D11*
G04 #@! TO.N,N/C*
G04 #@! TO.C,yellow*
G36*
X153549504Y-108676204D02*
X153573773Y-108679804D01*
X153597571Y-108685765D01*
X153620671Y-108694030D01*
X153642849Y-108704520D01*
X153663893Y-108717133D01*
X153683598Y-108731747D01*
X153701777Y-108748223D01*
X153718253Y-108766402D01*
X153732867Y-108786107D01*
X153745480Y-108807151D01*
X153755970Y-108829329D01*
X153764235Y-108852429D01*
X153770196Y-108876227D01*
X153773796Y-108900496D01*
X153775000Y-108925000D01*
X153775000Y-109675000D01*
X153773796Y-109699504D01*
X153770196Y-109723773D01*
X153764235Y-109747571D01*
X153755970Y-109770671D01*
X153745480Y-109792849D01*
X153732867Y-109813893D01*
X153718253Y-109833598D01*
X153701777Y-109851777D01*
X153683598Y-109868253D01*
X153663893Y-109882867D01*
X153642849Y-109895480D01*
X153620671Y-109905970D01*
X153597571Y-109914235D01*
X153573773Y-109920196D01*
X153549504Y-109923796D01*
X153525000Y-109925000D01*
X152275000Y-109925000D01*
X152250496Y-109923796D01*
X152226227Y-109920196D01*
X152202429Y-109914235D01*
X152179329Y-109905970D01*
X152157151Y-109895480D01*
X152136107Y-109882867D01*
X152116402Y-109868253D01*
X152098223Y-109851777D01*
X152081747Y-109833598D01*
X152067133Y-109813893D01*
X152054520Y-109792849D01*
X152044030Y-109770671D01*
X152035765Y-109747571D01*
X152029804Y-109723773D01*
X152026204Y-109699504D01*
X152025000Y-109675000D01*
X152025000Y-108925000D01*
X152026204Y-108900496D01*
X152029804Y-108876227D01*
X152035765Y-108852429D01*
X152044030Y-108829329D01*
X152054520Y-108807151D01*
X152067133Y-108786107D01*
X152081747Y-108766402D01*
X152098223Y-108748223D01*
X152116402Y-108731747D01*
X152136107Y-108717133D01*
X152157151Y-108704520D01*
X152179329Y-108694030D01*
X152202429Y-108685765D01*
X152226227Y-108679804D01*
X152250496Y-108676204D01*
X152275000Y-108675000D01*
X153525000Y-108675000D01*
X153549504Y-108676204D01*
X153549504Y-108676204D01*
G37*
D12*
G04 #@! TD*
G04 #@! TO.P,yellow,1*
G04 #@! TO.N,N/C*
X152900000Y-109300000D03*
D11*
G04 #@! TO.N,N/C*
G04 #@! TO.C,yellow*
G36*
X153549504Y-111476204D02*
X153573773Y-111479804D01*
X153597571Y-111485765D01*
X153620671Y-111494030D01*
X153642849Y-111504520D01*
X153663893Y-111517133D01*
X153683598Y-111531747D01*
X153701777Y-111548223D01*
X153718253Y-111566402D01*
X153732867Y-111586107D01*
X153745480Y-111607151D01*
X153755970Y-111629329D01*
X153764235Y-111652429D01*
X153770196Y-111676227D01*
X153773796Y-111700496D01*
X153775000Y-111725000D01*
X153775000Y-112475000D01*
X153773796Y-112499504D01*
X153770196Y-112523773D01*
X153764235Y-112547571D01*
X153755970Y-112570671D01*
X153745480Y-112592849D01*
X153732867Y-112613893D01*
X153718253Y-112633598D01*
X153701777Y-112651777D01*
X153683598Y-112668253D01*
X153663893Y-112682867D01*
X153642849Y-112695480D01*
X153620671Y-112705970D01*
X153597571Y-112714235D01*
X153573773Y-112720196D01*
X153549504Y-112723796D01*
X153525000Y-112725000D01*
X152275000Y-112725000D01*
X152250496Y-112723796D01*
X152226227Y-112720196D01*
X152202429Y-112714235D01*
X152179329Y-112705970D01*
X152157151Y-112695480D01*
X152136107Y-112682867D01*
X152116402Y-112668253D01*
X152098223Y-112651777D01*
X152081747Y-112633598D01*
X152067133Y-112613893D01*
X152054520Y-112592849D01*
X152044030Y-112570671D01*
X152035765Y-112547571D01*
X152029804Y-112523773D01*
X152026204Y-112499504D01*
X152025000Y-112475000D01*
X152025000Y-111725000D01*
X152026204Y-111700496D01*
X152029804Y-111676227D01*
X152035765Y-111652429D01*
X152044030Y-111629329D01*
X152054520Y-111607151D01*
X152067133Y-111586107D01*
X152081747Y-111566402D01*
X152098223Y-111548223D01*
X152116402Y-111531747D01*
X152136107Y-111517133D01*
X152157151Y-111504520D01*
X152179329Y-111494030D01*
X152202429Y-111485765D01*
X152226227Y-111479804D01*
X152250496Y-111476204D01*
X152275000Y-111475000D01*
X153525000Y-111475000D01*
X153549504Y-111476204D01*
X153549504Y-111476204D01*
G37*
D12*
G04 #@! TD*
G04 #@! TO.P,yellow,2*
G04 #@! TO.N,N/C*
X152900000Y-112100000D03*
D13*
G04 #@! TO.P,J2,3*
G04 #@! TO.N,N/C*
X153720000Y-114800000D03*
G04 #@! TO.P,J2,2*
X156260000Y-114800000D03*
D14*
G04 #@! TO.P,J2,1*
X158800000Y-114800000D03*
G04 #@! TD*
D11*
G04 #@! TO.N,N/C*
G04 #@! TO.C,blue*
G36*
X145249504Y-112376204D02*
X145273773Y-112379804D01*
X145297571Y-112385765D01*
X145320671Y-112394030D01*
X145342849Y-112404520D01*
X145363893Y-112417133D01*
X145383598Y-112431747D01*
X145401777Y-112448223D01*
X145418253Y-112466402D01*
X145432867Y-112486107D01*
X145445480Y-112507151D01*
X145455970Y-112529329D01*
X145464235Y-112552429D01*
X145470196Y-112576227D01*
X145473796Y-112600496D01*
X145475000Y-112625000D01*
X145475000Y-113375000D01*
X145473796Y-113399504D01*
X145470196Y-113423773D01*
X145464235Y-113447571D01*
X145455970Y-113470671D01*
X145445480Y-113492849D01*
X145432867Y-113513893D01*
X145418253Y-113533598D01*
X145401777Y-113551777D01*
X145383598Y-113568253D01*
X145363893Y-113582867D01*
X145342849Y-113595480D01*
X145320671Y-113605970D01*
X145297571Y-113614235D01*
X145273773Y-113620196D01*
X145249504Y-113623796D01*
X145225000Y-113625000D01*
X143975000Y-113625000D01*
X143950496Y-113623796D01*
X143926227Y-113620196D01*
X143902429Y-113614235D01*
X143879329Y-113605970D01*
X143857151Y-113595480D01*
X143836107Y-113582867D01*
X143816402Y-113568253D01*
X143798223Y-113551777D01*
X143781747Y-113533598D01*
X143767133Y-113513893D01*
X143754520Y-113492849D01*
X143744030Y-113470671D01*
X143735765Y-113447571D01*
X143729804Y-113423773D01*
X143726204Y-113399504D01*
X143725000Y-113375000D01*
X143725000Y-112625000D01*
X143726204Y-112600496D01*
X143729804Y-112576227D01*
X143735765Y-112552429D01*
X143744030Y-112529329D01*
X143754520Y-112507151D01*
X143767133Y-112486107D01*
X143781747Y-112466402D01*
X143798223Y-112448223D01*
X143816402Y-112431747D01*
X143836107Y-112417133D01*
X143857151Y-112404520D01*
X143879329Y-112394030D01*
X143902429Y-112385765D01*
X143926227Y-112379804D01*
X143950496Y-112376204D01*
X143975000Y-112375000D01*
X145225000Y-112375000D01*
X145249504Y-112376204D01*
X145249504Y-112376204D01*
G37*
D12*
G04 #@! TD*
G04 #@! TO.P,blue,2*
G04 #@! TO.N,N/C*
X144600000Y-113000000D03*
D11*
G04 #@! TO.N,N/C*
G04 #@! TO.C,blue*
G36*
X145249504Y-109576204D02*
X145273773Y-109579804D01*
X145297571Y-109585765D01*
X145320671Y-109594030D01*
X145342849Y-109604520D01*
X145363893Y-109617133D01*
X145383598Y-109631747D01*
X145401777Y-109648223D01*
X145418253Y-109666402D01*
X145432867Y-109686107D01*
X145445480Y-109707151D01*
X145455970Y-109729329D01*
X145464235Y-109752429D01*
X145470196Y-109776227D01*
X145473796Y-109800496D01*
X145475000Y-109825000D01*
X145475000Y-110575000D01*
X145473796Y-110599504D01*
X145470196Y-110623773D01*
X145464235Y-110647571D01*
X145455970Y-110670671D01*
X145445480Y-110692849D01*
X145432867Y-110713893D01*
X145418253Y-110733598D01*
X145401777Y-110751777D01*
X145383598Y-110768253D01*
X145363893Y-110782867D01*
X145342849Y-110795480D01*
X145320671Y-110805970D01*
X145297571Y-110814235D01*
X145273773Y-110820196D01*
X145249504Y-110823796D01*
X145225000Y-110825000D01*
X143975000Y-110825000D01*
X143950496Y-110823796D01*
X143926227Y-110820196D01*
X143902429Y-110814235D01*
X143879329Y-110805970D01*
X143857151Y-110795480D01*
X143836107Y-110782867D01*
X143816402Y-110768253D01*
X143798223Y-110751777D01*
X143781747Y-110733598D01*
X143767133Y-110713893D01*
X143754520Y-110692849D01*
X143744030Y-110670671D01*
X143735765Y-110647571D01*
X143729804Y-110623773D01*
X143726204Y-110599504D01*
X143725000Y-110575000D01*
X143725000Y-109825000D01*
X143726204Y-109800496D01*
X143729804Y-109776227D01*
X143735765Y-109752429D01*
X143744030Y-109729329D01*
X143754520Y-109707151D01*
X143767133Y-109686107D01*
X143781747Y-109666402D01*
X143798223Y-109648223D01*
X143816402Y-109631747D01*
X143836107Y-109617133D01*
X143857151Y-109604520D01*
X143879329Y-109594030D01*
X143902429Y-109585765D01*
X143926227Y-109579804D01*
X143950496Y-109576204D01*
X143975000Y-109575000D01*
X145225000Y-109575000D01*
X145249504Y-109576204D01*
X145249504Y-109576204D01*
G37*
D12*
G04 #@! TD*
G04 #@! TO.P,blue,1*
G04 #@! TO.N,N/C*
X144600000Y-110200000D03*
D15*
G04 #@! TO.P,SW1,2*
G04 #@! TO.N,N/C*
X147300000Y-108000000D03*
X147300000Y-115200000D03*
G04 #@! TO.P,SW1,1*
X150300000Y-108000000D03*
X150300000Y-115200000D03*
G04 #@! TD*
D11*
G04 #@! TO.N,N/C*
G04 #@! TO.C,R2*
G36*
X153549504Y-101476204D02*
X153573773Y-101479804D01*
X153597571Y-101485765D01*
X153620671Y-101494030D01*
X153642849Y-101504520D01*
X153663893Y-101517133D01*
X153683598Y-101531747D01*
X153701777Y-101548223D01*
X153718253Y-101566402D01*
X153732867Y-101586107D01*
X153745480Y-101607151D01*
X153755970Y-101629329D01*
X153764235Y-101652429D01*
X153770196Y-101676227D01*
X153773796Y-101700496D01*
X153775000Y-101725000D01*
X153775000Y-102475000D01*
X153773796Y-102499504D01*
X153770196Y-102523773D01*
X153764235Y-102547571D01*
X153755970Y-102570671D01*
X153745480Y-102592849D01*
X153732867Y-102613893D01*
X153718253Y-102633598D01*
X153701777Y-102651777D01*
X153683598Y-102668253D01*
X153663893Y-102682867D01*
X153642849Y-102695480D01*
X153620671Y-102705970D01*
X153597571Y-102714235D01*
X153573773Y-102720196D01*
X153549504Y-102723796D01*
X153525000Y-102725000D01*
X152275000Y-102725000D01*
X152250496Y-102723796D01*
X152226227Y-102720196D01*
X152202429Y-102714235D01*
X152179329Y-102705970D01*
X152157151Y-102695480D01*
X152136107Y-102682867D01*
X152116402Y-102668253D01*
X152098223Y-102651777D01*
X152081747Y-102633598D01*
X152067133Y-102613893D01*
X152054520Y-102592849D01*
X152044030Y-102570671D01*
X152035765Y-102547571D01*
X152029804Y-102523773D01*
X152026204Y-102499504D01*
X152025000Y-102475000D01*
X152025000Y-101725000D01*
X152026204Y-101700496D01*
X152029804Y-101676227D01*
X152035765Y-101652429D01*
X152044030Y-101629329D01*
X152054520Y-101607151D01*
X152067133Y-101586107D01*
X152081747Y-101566402D01*
X152098223Y-101548223D01*
X152116402Y-101531747D01*
X152136107Y-101517133D01*
X152157151Y-101504520D01*
X152179329Y-101494030D01*
X152202429Y-101485765D01*
X152226227Y-101479804D01*
X152250496Y-101476204D01*
X152275000Y-101475000D01*
X153525000Y-101475000D01*
X153549504Y-101476204D01*
X153549504Y-101476204D01*
G37*
D12*
G04 #@! TD*
G04 #@! TO.P,R2,1*
G04 #@! TO.N,N/C*
X152900000Y-102100000D03*
D11*
G04 #@! TO.N,N/C*
G04 #@! TO.C,R2*
G36*
X153549504Y-104276204D02*
X153573773Y-104279804D01*
X153597571Y-104285765D01*
X153620671Y-104294030D01*
X153642849Y-104304520D01*
X153663893Y-104317133D01*
X153683598Y-104331747D01*
X153701777Y-104348223D01*
X153718253Y-104366402D01*
X153732867Y-104386107D01*
X153745480Y-104407151D01*
X153755970Y-104429329D01*
X153764235Y-104452429D01*
X153770196Y-104476227D01*
X153773796Y-104500496D01*
X153775000Y-104525000D01*
X153775000Y-105275000D01*
X153773796Y-105299504D01*
X153770196Y-105323773D01*
X153764235Y-105347571D01*
X153755970Y-105370671D01*
X153745480Y-105392849D01*
X153732867Y-105413893D01*
X153718253Y-105433598D01*
X153701777Y-105451777D01*
X153683598Y-105468253D01*
X153663893Y-105482867D01*
X153642849Y-105495480D01*
X153620671Y-105505970D01*
X153597571Y-105514235D01*
X153573773Y-105520196D01*
X153549504Y-105523796D01*
X153525000Y-105525000D01*
X152275000Y-105525000D01*
X152250496Y-105523796D01*
X152226227Y-105520196D01*
X152202429Y-105514235D01*
X152179329Y-105505970D01*
X152157151Y-105495480D01*
X152136107Y-105482867D01*
X152116402Y-105468253D01*
X152098223Y-105451777D01*
X152081747Y-105433598D01*
X152067133Y-105413893D01*
X152054520Y-105392849D01*
X152044030Y-105370671D01*
X152035765Y-105347571D01*
X152029804Y-105323773D01*
X152026204Y-105299504D01*
X152025000Y-105275000D01*
X152025000Y-104525000D01*
X152026204Y-104500496D01*
X152029804Y-104476227D01*
X152035765Y-104452429D01*
X152044030Y-104429329D01*
X152054520Y-104407151D01*
X152067133Y-104386107D01*
X152081747Y-104366402D01*
X152098223Y-104348223D01*
X152116402Y-104331747D01*
X152136107Y-104317133D01*
X152157151Y-104304520D01*
X152179329Y-104294030D01*
X152202429Y-104285765D01*
X152226227Y-104279804D01*
X152250496Y-104276204D01*
X152275000Y-104275000D01*
X153525000Y-104275000D01*
X153549504Y-104276204D01*
X153549504Y-104276204D01*
G37*
D12*
G04 #@! TD*
G04 #@! TO.P,R2,2*
G04 #@! TO.N,N/C*
X152900000Y-104900000D03*
D11*
G04 #@! TO.N,Net-(D1-Pad1)*
G04 #@! TO.C,blue*
G36*
X142849504Y-76176204D02*
X142873773Y-76179804D01*
X142897571Y-76185765D01*
X142920671Y-76194030D01*
X142942849Y-76204520D01*
X142963893Y-76217133D01*
X142983598Y-76231747D01*
X143001777Y-76248223D01*
X143018253Y-76266402D01*
X143032867Y-76286107D01*
X143045480Y-76307151D01*
X143055970Y-76329329D01*
X143064235Y-76352429D01*
X143070196Y-76376227D01*
X143073796Y-76400496D01*
X143075000Y-76425000D01*
X143075000Y-77175000D01*
X143073796Y-77199504D01*
X143070196Y-77223773D01*
X143064235Y-77247571D01*
X143055970Y-77270671D01*
X143045480Y-77292849D01*
X143032867Y-77313893D01*
X143018253Y-77333598D01*
X143001777Y-77351777D01*
X142983598Y-77368253D01*
X142963893Y-77382867D01*
X142942849Y-77395480D01*
X142920671Y-77405970D01*
X142897571Y-77414235D01*
X142873773Y-77420196D01*
X142849504Y-77423796D01*
X142825000Y-77425000D01*
X141575000Y-77425000D01*
X141550496Y-77423796D01*
X141526227Y-77420196D01*
X141502429Y-77414235D01*
X141479329Y-77405970D01*
X141457151Y-77395480D01*
X141436107Y-77382867D01*
X141416402Y-77368253D01*
X141398223Y-77351777D01*
X141381747Y-77333598D01*
X141367133Y-77313893D01*
X141354520Y-77292849D01*
X141344030Y-77270671D01*
X141335765Y-77247571D01*
X141329804Y-77223773D01*
X141326204Y-77199504D01*
X141325000Y-77175000D01*
X141325000Y-76425000D01*
X141326204Y-76400496D01*
X141329804Y-76376227D01*
X141335765Y-76352429D01*
X141344030Y-76329329D01*
X141354520Y-76307151D01*
X141367133Y-76286107D01*
X141381747Y-76266402D01*
X141398223Y-76248223D01*
X141416402Y-76231747D01*
X141436107Y-76217133D01*
X141457151Y-76204520D01*
X141479329Y-76194030D01*
X141502429Y-76185765D01*
X141526227Y-76179804D01*
X141550496Y-76176204D01*
X141575000Y-76175000D01*
X142825000Y-76175000D01*
X142849504Y-76176204D01*
X142849504Y-76176204D01*
G37*
D12*
G04 #@! TD*
G04 #@! TO.P,blue,1*
G04 #@! TO.N,Net-(D1-Pad1)*
X142200000Y-76800000D03*
D11*
G04 #@! TO.N,VCC*
G04 #@! TO.C,blue*
G36*
X142849504Y-73376204D02*
X142873773Y-73379804D01*
X142897571Y-73385765D01*
X142920671Y-73394030D01*
X142942849Y-73404520D01*
X142963893Y-73417133D01*
X142983598Y-73431747D01*
X143001777Y-73448223D01*
X143018253Y-73466402D01*
X143032867Y-73486107D01*
X143045480Y-73507151D01*
X143055970Y-73529329D01*
X143064235Y-73552429D01*
X143070196Y-73576227D01*
X143073796Y-73600496D01*
X143075000Y-73625000D01*
X143075000Y-74375000D01*
X143073796Y-74399504D01*
X143070196Y-74423773D01*
X143064235Y-74447571D01*
X143055970Y-74470671D01*
X143045480Y-74492849D01*
X143032867Y-74513893D01*
X143018253Y-74533598D01*
X143001777Y-74551777D01*
X142983598Y-74568253D01*
X142963893Y-74582867D01*
X142942849Y-74595480D01*
X142920671Y-74605970D01*
X142897571Y-74614235D01*
X142873773Y-74620196D01*
X142849504Y-74623796D01*
X142825000Y-74625000D01*
X141575000Y-74625000D01*
X141550496Y-74623796D01*
X141526227Y-74620196D01*
X141502429Y-74614235D01*
X141479329Y-74605970D01*
X141457151Y-74595480D01*
X141436107Y-74582867D01*
X141416402Y-74568253D01*
X141398223Y-74551777D01*
X141381747Y-74533598D01*
X141367133Y-74513893D01*
X141354520Y-74492849D01*
X141344030Y-74470671D01*
X141335765Y-74447571D01*
X141329804Y-74423773D01*
X141326204Y-74399504D01*
X141325000Y-74375000D01*
X141325000Y-73625000D01*
X141326204Y-73600496D01*
X141329804Y-73576227D01*
X141335765Y-73552429D01*
X141344030Y-73529329D01*
X141354520Y-73507151D01*
X141367133Y-73486107D01*
X141381747Y-73466402D01*
X141398223Y-73448223D01*
X141416402Y-73431747D01*
X141436107Y-73417133D01*
X141457151Y-73404520D01*
X141479329Y-73394030D01*
X141502429Y-73385765D01*
X141526227Y-73379804D01*
X141550496Y-73376204D01*
X141575000Y-73375000D01*
X142825000Y-73375000D01*
X142849504Y-73376204D01*
X142849504Y-73376204D01*
G37*
D12*
G04 #@! TD*
G04 #@! TO.P,blue,2*
G04 #@! TO.N,VCC*
X142200000Y-74000000D03*
D11*
G04 #@! TO.N,VCC*
G04 #@! TO.C,yellow*
G36*
X134549504Y-74276204D02*
X134573773Y-74279804D01*
X134597571Y-74285765D01*
X134620671Y-74294030D01*
X134642849Y-74304520D01*
X134663893Y-74317133D01*
X134683598Y-74331747D01*
X134701777Y-74348223D01*
X134718253Y-74366402D01*
X134732867Y-74386107D01*
X134745480Y-74407151D01*
X134755970Y-74429329D01*
X134764235Y-74452429D01*
X134770196Y-74476227D01*
X134773796Y-74500496D01*
X134775000Y-74525000D01*
X134775000Y-75275000D01*
X134773796Y-75299504D01*
X134770196Y-75323773D01*
X134764235Y-75347571D01*
X134755970Y-75370671D01*
X134745480Y-75392849D01*
X134732867Y-75413893D01*
X134718253Y-75433598D01*
X134701777Y-75451777D01*
X134683598Y-75468253D01*
X134663893Y-75482867D01*
X134642849Y-75495480D01*
X134620671Y-75505970D01*
X134597571Y-75514235D01*
X134573773Y-75520196D01*
X134549504Y-75523796D01*
X134525000Y-75525000D01*
X133275000Y-75525000D01*
X133250496Y-75523796D01*
X133226227Y-75520196D01*
X133202429Y-75514235D01*
X133179329Y-75505970D01*
X133157151Y-75495480D01*
X133136107Y-75482867D01*
X133116402Y-75468253D01*
X133098223Y-75451777D01*
X133081747Y-75433598D01*
X133067133Y-75413893D01*
X133054520Y-75392849D01*
X133044030Y-75370671D01*
X133035765Y-75347571D01*
X133029804Y-75323773D01*
X133026204Y-75299504D01*
X133025000Y-75275000D01*
X133025000Y-74525000D01*
X133026204Y-74500496D01*
X133029804Y-74476227D01*
X133035765Y-74452429D01*
X133044030Y-74429329D01*
X133054520Y-74407151D01*
X133067133Y-74386107D01*
X133081747Y-74366402D01*
X133098223Y-74348223D01*
X133116402Y-74331747D01*
X133136107Y-74317133D01*
X133157151Y-74304520D01*
X133179329Y-74294030D01*
X133202429Y-74285765D01*
X133226227Y-74279804D01*
X133250496Y-74276204D01*
X133275000Y-74275000D01*
X134525000Y-74275000D01*
X134549504Y-74276204D01*
X134549504Y-74276204D01*
G37*
D12*
G04 #@! TD*
G04 #@! TO.P,yellow,2*
G04 #@! TO.N,VCC*
X133900000Y-74900000D03*
D11*
G04 #@! TO.N,Net-(D2-Pad1)*
G04 #@! TO.C,yellow*
G36*
X134549504Y-77076204D02*
X134573773Y-77079804D01*
X134597571Y-77085765D01*
X134620671Y-77094030D01*
X134642849Y-77104520D01*
X134663893Y-77117133D01*
X134683598Y-77131747D01*
X134701777Y-77148223D01*
X134718253Y-77166402D01*
X134732867Y-77186107D01*
X134745480Y-77207151D01*
X134755970Y-77229329D01*
X134764235Y-77252429D01*
X134770196Y-77276227D01*
X134773796Y-77300496D01*
X134775000Y-77325000D01*
X134775000Y-78075000D01*
X134773796Y-78099504D01*
X134770196Y-78123773D01*
X134764235Y-78147571D01*
X134755970Y-78170671D01*
X134745480Y-78192849D01*
X134732867Y-78213893D01*
X134718253Y-78233598D01*
X134701777Y-78251777D01*
X134683598Y-78268253D01*
X134663893Y-78282867D01*
X134642849Y-78295480D01*
X134620671Y-78305970D01*
X134597571Y-78314235D01*
X134573773Y-78320196D01*
X134549504Y-78323796D01*
X134525000Y-78325000D01*
X133275000Y-78325000D01*
X133250496Y-78323796D01*
X133226227Y-78320196D01*
X133202429Y-78314235D01*
X133179329Y-78305970D01*
X133157151Y-78295480D01*
X133136107Y-78282867D01*
X133116402Y-78268253D01*
X133098223Y-78251777D01*
X133081747Y-78233598D01*
X133067133Y-78213893D01*
X133054520Y-78192849D01*
X133044030Y-78170671D01*
X133035765Y-78147571D01*
X133029804Y-78123773D01*
X133026204Y-78099504D01*
X133025000Y-78075000D01*
X133025000Y-77325000D01*
X133026204Y-77300496D01*
X133029804Y-77276227D01*
X133035765Y-77252429D01*
X133044030Y-77229329D01*
X133054520Y-77207151D01*
X133067133Y-77186107D01*
X133081747Y-77166402D01*
X133098223Y-77148223D01*
X133116402Y-77131747D01*
X133136107Y-77117133D01*
X133157151Y-77104520D01*
X133179329Y-77094030D01*
X133202429Y-77085765D01*
X133226227Y-77079804D01*
X133250496Y-77076204D01*
X133275000Y-77075000D01*
X134525000Y-77075000D01*
X134549504Y-77076204D01*
X134549504Y-77076204D01*
G37*
D12*
G04 #@! TD*
G04 #@! TO.P,yellow,1*
G04 #@! TO.N,Net-(D2-Pad1)*
X133900000Y-77700000D03*
D14*
G04 #@! TO.P,J2,1*
G04 #@! TO.N,Net-(J1-Pad6)*
X128000000Y-72200000D03*
D13*
G04 #@! TO.P,J2,2*
G04 #@! TO.N,VCC*
X130540000Y-72200000D03*
G04 #@! TO.P,J2,3*
G04 #@! TO.N,GND*
X133080000Y-72200000D03*
G04 #@! TD*
D11*
G04 #@! TO.N,Net-(J1-Pad4)*
G04 #@! TO.C,R1*
G36*
X138649504Y-84276204D02*
X138673773Y-84279804D01*
X138697571Y-84285765D01*
X138720671Y-84294030D01*
X138742849Y-84304520D01*
X138763893Y-84317133D01*
X138783598Y-84331747D01*
X138801777Y-84348223D01*
X138818253Y-84366402D01*
X138832867Y-84386107D01*
X138845480Y-84407151D01*
X138855970Y-84429329D01*
X138864235Y-84452429D01*
X138870196Y-84476227D01*
X138873796Y-84500496D01*
X138875000Y-84525000D01*
X138875000Y-85275000D01*
X138873796Y-85299504D01*
X138870196Y-85323773D01*
X138864235Y-85347571D01*
X138855970Y-85370671D01*
X138845480Y-85392849D01*
X138832867Y-85413893D01*
X138818253Y-85433598D01*
X138801777Y-85451777D01*
X138783598Y-85468253D01*
X138763893Y-85482867D01*
X138742849Y-85495480D01*
X138720671Y-85505970D01*
X138697571Y-85514235D01*
X138673773Y-85520196D01*
X138649504Y-85523796D01*
X138625000Y-85525000D01*
X137375000Y-85525000D01*
X137350496Y-85523796D01*
X137326227Y-85520196D01*
X137302429Y-85514235D01*
X137279329Y-85505970D01*
X137257151Y-85495480D01*
X137236107Y-85482867D01*
X137216402Y-85468253D01*
X137198223Y-85451777D01*
X137181747Y-85433598D01*
X137167133Y-85413893D01*
X137154520Y-85392849D01*
X137144030Y-85370671D01*
X137135765Y-85347571D01*
X137129804Y-85323773D01*
X137126204Y-85299504D01*
X137125000Y-85275000D01*
X137125000Y-84525000D01*
X137126204Y-84500496D01*
X137129804Y-84476227D01*
X137135765Y-84452429D01*
X137144030Y-84429329D01*
X137154520Y-84407151D01*
X137167133Y-84386107D01*
X137181747Y-84366402D01*
X137198223Y-84348223D01*
X137216402Y-84331747D01*
X137236107Y-84317133D01*
X137257151Y-84304520D01*
X137279329Y-84294030D01*
X137302429Y-84285765D01*
X137326227Y-84279804D01*
X137350496Y-84276204D01*
X137375000Y-84275000D01*
X138625000Y-84275000D01*
X138649504Y-84276204D01*
X138649504Y-84276204D01*
G37*
D12*
G04 #@! TD*
G04 #@! TO.P,R1,1*
G04 #@! TO.N,Net-(J1-Pad4)*
X138000000Y-84900000D03*
D11*
G04 #@! TO.N,Net-(D1-Pad1)*
G04 #@! TO.C,R1*
G36*
X138649504Y-81476204D02*
X138673773Y-81479804D01*
X138697571Y-81485765D01*
X138720671Y-81494030D01*
X138742849Y-81504520D01*
X138763893Y-81517133D01*
X138783598Y-81531747D01*
X138801777Y-81548223D01*
X138818253Y-81566402D01*
X138832867Y-81586107D01*
X138845480Y-81607151D01*
X138855970Y-81629329D01*
X138864235Y-81652429D01*
X138870196Y-81676227D01*
X138873796Y-81700496D01*
X138875000Y-81725000D01*
X138875000Y-82475000D01*
X138873796Y-82499504D01*
X138870196Y-82523773D01*
X138864235Y-82547571D01*
X138855970Y-82570671D01*
X138845480Y-82592849D01*
X138832867Y-82613893D01*
X138818253Y-82633598D01*
X138801777Y-82651777D01*
X138783598Y-82668253D01*
X138763893Y-82682867D01*
X138742849Y-82695480D01*
X138720671Y-82705970D01*
X138697571Y-82714235D01*
X138673773Y-82720196D01*
X138649504Y-82723796D01*
X138625000Y-82725000D01*
X137375000Y-82725000D01*
X137350496Y-82723796D01*
X137326227Y-82720196D01*
X137302429Y-82714235D01*
X137279329Y-82705970D01*
X137257151Y-82695480D01*
X137236107Y-82682867D01*
X137216402Y-82668253D01*
X137198223Y-82651777D01*
X137181747Y-82633598D01*
X137167133Y-82613893D01*
X137154520Y-82592849D01*
X137144030Y-82570671D01*
X137135765Y-82547571D01*
X137129804Y-82523773D01*
X137126204Y-82499504D01*
X137125000Y-82475000D01*
X137125000Y-81725000D01*
X137126204Y-81700496D01*
X137129804Y-81676227D01*
X137135765Y-81652429D01*
X137144030Y-81629329D01*
X137154520Y-81607151D01*
X137167133Y-81586107D01*
X137181747Y-81566402D01*
X137198223Y-81548223D01*
X137216402Y-81531747D01*
X137236107Y-81517133D01*
X137257151Y-81504520D01*
X137279329Y-81494030D01*
X137302429Y-81485765D01*
X137326227Y-81479804D01*
X137350496Y-81476204D01*
X137375000Y-81475000D01*
X138625000Y-81475000D01*
X138649504Y-81476204D01*
X138649504Y-81476204D01*
G37*
D12*
G04 #@! TD*
G04 #@! TO.P,R1,2*
G04 #@! TO.N,Net-(D1-Pad1)*
X138000000Y-82100000D03*
D11*
G04 #@! TO.N,Net-(D2-Pad1)*
G04 #@! TO.C,R2*
G36*
X134549504Y-81476204D02*
X134573773Y-81479804D01*
X134597571Y-81485765D01*
X134620671Y-81494030D01*
X134642849Y-81504520D01*
X134663893Y-81517133D01*
X134683598Y-81531747D01*
X134701777Y-81548223D01*
X134718253Y-81566402D01*
X134732867Y-81586107D01*
X134745480Y-81607151D01*
X134755970Y-81629329D01*
X134764235Y-81652429D01*
X134770196Y-81676227D01*
X134773796Y-81700496D01*
X134775000Y-81725000D01*
X134775000Y-82475000D01*
X134773796Y-82499504D01*
X134770196Y-82523773D01*
X134764235Y-82547571D01*
X134755970Y-82570671D01*
X134745480Y-82592849D01*
X134732867Y-82613893D01*
X134718253Y-82633598D01*
X134701777Y-82651777D01*
X134683598Y-82668253D01*
X134663893Y-82682867D01*
X134642849Y-82695480D01*
X134620671Y-82705970D01*
X134597571Y-82714235D01*
X134573773Y-82720196D01*
X134549504Y-82723796D01*
X134525000Y-82725000D01*
X133275000Y-82725000D01*
X133250496Y-82723796D01*
X133226227Y-82720196D01*
X133202429Y-82714235D01*
X133179329Y-82705970D01*
X133157151Y-82695480D01*
X133136107Y-82682867D01*
X133116402Y-82668253D01*
X133098223Y-82651777D01*
X133081747Y-82633598D01*
X133067133Y-82613893D01*
X133054520Y-82592849D01*
X133044030Y-82570671D01*
X133035765Y-82547571D01*
X133029804Y-82523773D01*
X133026204Y-82499504D01*
X133025000Y-82475000D01*
X133025000Y-81725000D01*
X133026204Y-81700496D01*
X133029804Y-81676227D01*
X133035765Y-81652429D01*
X133044030Y-81629329D01*
X133054520Y-81607151D01*
X133067133Y-81586107D01*
X133081747Y-81566402D01*
X133098223Y-81548223D01*
X133116402Y-81531747D01*
X133136107Y-81517133D01*
X133157151Y-81504520D01*
X133179329Y-81494030D01*
X133202429Y-81485765D01*
X133226227Y-81479804D01*
X133250496Y-81476204D01*
X133275000Y-81475000D01*
X134525000Y-81475000D01*
X134549504Y-81476204D01*
X134549504Y-81476204D01*
G37*
D12*
G04 #@! TD*
G04 #@! TO.P,R2,2*
G04 #@! TO.N,Net-(D2-Pad1)*
X133900000Y-82100000D03*
D11*
G04 #@! TO.N,Net-(J1-Pad5)*
G04 #@! TO.C,R2*
G36*
X134549504Y-84276204D02*
X134573773Y-84279804D01*
X134597571Y-84285765D01*
X134620671Y-84294030D01*
X134642849Y-84304520D01*
X134663893Y-84317133D01*
X134683598Y-84331747D01*
X134701777Y-84348223D01*
X134718253Y-84366402D01*
X134732867Y-84386107D01*
X134745480Y-84407151D01*
X134755970Y-84429329D01*
X134764235Y-84452429D01*
X134770196Y-84476227D01*
X134773796Y-84500496D01*
X134775000Y-84525000D01*
X134775000Y-85275000D01*
X134773796Y-85299504D01*
X134770196Y-85323773D01*
X134764235Y-85347571D01*
X134755970Y-85370671D01*
X134745480Y-85392849D01*
X134732867Y-85413893D01*
X134718253Y-85433598D01*
X134701777Y-85451777D01*
X134683598Y-85468253D01*
X134663893Y-85482867D01*
X134642849Y-85495480D01*
X134620671Y-85505970D01*
X134597571Y-85514235D01*
X134573773Y-85520196D01*
X134549504Y-85523796D01*
X134525000Y-85525000D01*
X133275000Y-85525000D01*
X133250496Y-85523796D01*
X133226227Y-85520196D01*
X133202429Y-85514235D01*
X133179329Y-85505970D01*
X133157151Y-85495480D01*
X133136107Y-85482867D01*
X133116402Y-85468253D01*
X133098223Y-85451777D01*
X133081747Y-85433598D01*
X133067133Y-85413893D01*
X133054520Y-85392849D01*
X133044030Y-85370671D01*
X133035765Y-85347571D01*
X133029804Y-85323773D01*
X133026204Y-85299504D01*
X133025000Y-85275000D01*
X133025000Y-84525000D01*
X133026204Y-84500496D01*
X133029804Y-84476227D01*
X133035765Y-84452429D01*
X133044030Y-84429329D01*
X133054520Y-84407151D01*
X133067133Y-84386107D01*
X133081747Y-84366402D01*
X133098223Y-84348223D01*
X133116402Y-84331747D01*
X133136107Y-84317133D01*
X133157151Y-84304520D01*
X133179329Y-84294030D01*
X133202429Y-84285765D01*
X133226227Y-84279804D01*
X133250496Y-84276204D01*
X133275000Y-84275000D01*
X134525000Y-84275000D01*
X134549504Y-84276204D01*
X134549504Y-84276204D01*
G37*
D12*
G04 #@! TD*
G04 #@! TO.P,R2,1*
G04 #@! TO.N,Net-(J1-Pad5)*
X133900000Y-84900000D03*
D15*
G04 #@! TO.P,SW1,1*
G04 #@! TO.N,GND*
X136500000Y-71800000D03*
X136500000Y-79000000D03*
G04 #@! TO.P,SW1,2*
G04 #@! TO.N,Net-(J1-Pad3)*
X139500000Y-71800000D03*
X139500000Y-79000000D03*
G04 #@! TD*
D16*
G04 #@! TO.N,*
X144600000Y-115000000D03*
X145600000Y-108000000D03*
G04 #@! TO.N,VCC*
X142200000Y-72000000D03*
G04 #@! TO.N,Net-(J1-Pad3)*
X141200000Y-79000000D03*
G04 #@! TD*
D17*
G04 #@! TO.N,*
X144600000Y-107300000D02*
X147000000Y-104900000D01*
X144600000Y-110200000D02*
X144600000Y-107300000D01*
X147000000Y-104900000D02*
X148800000Y-104900000D01*
X144600000Y-113000000D02*
X144600000Y-113000000D01*
X156260000Y-114800000D02*
X153560000Y-112100000D01*
X152900000Y-112100000D02*
X152900000Y-112100000D01*
X144600000Y-115000000D02*
X144600000Y-113000000D01*
X153560000Y-112100000D02*
X152900000Y-112100000D01*
X152900000Y-109300000D02*
X152900000Y-104200000D01*
X150300000Y-108000000D02*
X150300000Y-103900000D01*
X145800000Y-98000000D02*
X145300000Y-97500000D01*
X150300000Y-114150000D02*
X150300000Y-108000000D01*
X150300000Y-103900000D02*
X149900000Y-103500000D01*
X153720000Y-114800000D02*
X150700000Y-114800000D01*
X150300000Y-115200000D02*
X150300000Y-114150000D01*
X150700000Y-114800000D02*
X150300000Y-115200000D01*
X149900000Y-103500000D02*
X147700000Y-103500000D01*
X147700000Y-103500000D02*
X145800000Y-101600000D01*
X145800000Y-101600000D02*
X145800000Y-98000000D01*
X147400000Y-108000000D02*
X145600000Y-108000000D01*
X147300000Y-114150000D02*
X147300000Y-107900000D01*
X147300000Y-115200000D02*
X147300000Y-114150000D01*
X148800000Y-97000000D02*
X145300000Y-93500000D01*
X148800000Y-102100000D02*
X148800000Y-97000000D01*
X152900000Y-98100000D02*
X146300000Y-91500000D01*
X152900000Y-102100000D02*
X152900000Y-98100000D01*
X156800000Y-99000000D02*
X147300000Y-89500000D01*
X158800000Y-109000000D02*
X156800000Y-107000000D01*
X156800000Y-107000000D02*
X156800000Y-99000000D01*
X158800000Y-114800000D02*
X158800000Y-109000000D01*
X145300000Y-97500000D02*
X143750010Y-97500000D01*
X145300000Y-93500000D02*
X143750010Y-93500000D01*
X146300000Y-91500000D02*
X143500000Y-91500000D01*
X147300000Y-89500000D02*
X143750010Y-89500000D01*
G04 #@! TO.N,Net-(D1-Pad1)*
X139800000Y-82100000D02*
X138000000Y-82100000D01*
X142200000Y-76800000D02*
X142200000Y-79700000D01*
X142200000Y-79700000D02*
X139800000Y-82100000D01*
G04 #@! TO.N,VCC*
X142200000Y-74000000D02*
X142200000Y-74000000D01*
X133240000Y-74900000D02*
X133900000Y-74900000D01*
X130540000Y-72200000D02*
X133240000Y-74900000D01*
X133900000Y-74900000D02*
X133900000Y-74900000D01*
X142200000Y-72000000D02*
X142200000Y-74000000D01*
G04 #@! TO.N,Net-(D2-Pad1)*
X133900000Y-77700000D02*
X133900000Y-82800000D01*
G04 #@! TO.N,GND*
X136100000Y-72200000D02*
X136500000Y-71800000D01*
X133080000Y-72200000D02*
X136100000Y-72200000D01*
X136500000Y-72850000D02*
X136500000Y-79000000D01*
X136500000Y-71800000D02*
X136500000Y-72850000D01*
X136500000Y-83100000D02*
X136900000Y-83500000D01*
X136500000Y-79000000D02*
X136500000Y-83100000D01*
X136900000Y-83500000D02*
X139100000Y-83500000D01*
X139100000Y-83500000D02*
X141000000Y-85400000D01*
X141000000Y-85400000D02*
X141000000Y-89000000D01*
X141000000Y-89000000D02*
X141500000Y-89500000D01*
X141500000Y-89500000D02*
X143300000Y-89500000D01*
G04 #@! TO.N,Net-(J1-Pad3)*
X139500000Y-72850000D02*
X139500000Y-79100000D01*
X139500000Y-71800000D02*
X139500000Y-72850000D01*
X139400000Y-79000000D02*
X141200000Y-79000000D01*
G04 #@! TO.N,Net-(J1-Pad4)*
X138000000Y-84900000D02*
X138000000Y-90000000D01*
X138000000Y-90000000D02*
X141500000Y-93500000D01*
X141500000Y-93500000D02*
X143300000Y-93500000D01*
G04 #@! TO.N,Net-(J1-Pad5)*
X133900000Y-84900000D02*
X133900000Y-88900000D01*
X133900000Y-88900000D02*
X140500000Y-95500000D01*
X140500000Y-95500000D02*
X143300000Y-95500000D01*
G04 #@! TO.N,Net-(J1-Pad6)*
X130000000Y-88000000D02*
X139500000Y-97500000D01*
X130000000Y-80000000D02*
X130000000Y-88000000D01*
X128000000Y-72200000D02*
X128000000Y-78000000D01*
X128000000Y-78000000D02*
X130000000Y-80000000D01*
X139500000Y-97500000D02*
X143300000Y-97500000D01*
G04 #@! TD*
M02*
