G04 #@! TF.GenerationSoftware,KiCad,Pcbnew,(5.0.1)-4*
G04 #@! TF.CreationDate,2019-02-18T18:34:45+08:00*
G04 #@! TF.ProjectId,Xiaomi2Ali-Smart-Plug-WIFI-Module,5869616F6D6932416C692D536D617274,rev?*
G04 #@! TF.SameCoordinates,Original*
G04 #@! TF.FileFunction,Legend,Top*
G04 #@! TF.FilePolarity,Positive*
%FSLAX46Y46*%
G04 Gerber Fmt 4.6, Leading zero omitted, Abs format (unit mm)*
G04 Created by KiCad (PCBNEW (5.0.1)-4) date 2019/2/18 18:34:45*
%MOMM*%
%LPD*%
G01*
G04 APERTURE LIST*
%ADD10C,0.150000*%
%ADD11C,0.300000*%
%ADD12C,0.120000*%
G04 APERTURE END LIST*
D10*
X156347619Y-102133333D02*
X156347619Y-101561904D01*
X156347619Y-101847619D02*
X157347619Y-101847619D01*
X157204761Y-101752380D01*
X157109523Y-101657142D01*
X157061904Y-101561904D01*
X156347619Y-102561904D02*
X157347619Y-102561904D01*
X156347619Y-103133333D02*
X156919047Y-102704761D01*
X157347619Y-103133333D02*
X156776190Y-102561904D01*
X156347619Y-104276190D02*
X156347619Y-104514285D01*
X156538095Y-104514285D01*
X156585714Y-104419047D01*
X156680952Y-104323809D01*
X156823809Y-104276190D01*
X157061904Y-104276190D01*
X157204761Y-104323809D01*
X157300000Y-104419047D01*
X157347619Y-104561904D01*
X157347619Y-104752380D01*
X157300000Y-104895238D01*
X157204761Y-104990476D01*
X157061904Y-105038095D01*
X156823809Y-105038095D01*
X156680952Y-104990476D01*
X156585714Y-104895238D01*
X156538095Y-104800000D01*
X156347619Y-104800000D01*
X156347619Y-105038095D01*
D11*
X143971428Y-114792857D02*
X142828571Y-114792857D01*
X143400000Y-114221428D02*
X143400000Y-115364285D01*
X143392857Y-107728571D02*
X143392857Y-108871428D01*
D10*
X130452380Y-84866666D02*
X130452380Y-85438095D01*
X130452380Y-85152380D02*
X129452380Y-85152380D01*
X129595238Y-85247619D01*
X129690476Y-85342857D01*
X129738095Y-85438095D01*
X130452380Y-84438095D02*
X129452380Y-84438095D01*
X130452380Y-83866666D02*
X129880952Y-84295238D01*
X129452380Y-83866666D02*
X130023809Y-84438095D01*
X130452380Y-82723809D02*
X130452380Y-82485714D01*
X130261904Y-82485714D01*
X130214285Y-82580952D01*
X130119047Y-82676190D01*
X129976190Y-82723809D01*
X129738095Y-82723809D01*
X129595238Y-82676190D01*
X129500000Y-82580952D01*
X129452380Y-82438095D01*
X129452380Y-82247619D01*
X129500000Y-82104761D01*
X129595238Y-82009523D01*
X129738095Y-81961904D01*
X129976190Y-81961904D01*
X130119047Y-82009523D01*
X130214285Y-82104761D01*
X130261904Y-82200000D01*
X130452380Y-82200000D01*
X130452380Y-81961904D01*
D11*
X142828571Y-72207142D02*
X143971428Y-72207142D01*
X143400000Y-72778571D02*
X143400000Y-71635714D01*
X143407142Y-79271428D02*
X143407142Y-78128571D01*
D12*
G04 #@! TO.C,J1*
X142240000Y-86440000D02*
X143300000Y-86440000D01*
X142240000Y-87500000D02*
X142240000Y-86440000D01*
X142240000Y-88500000D02*
X144360000Y-88500000D01*
X144360000Y-88500000D02*
X144360000Y-100560000D01*
X142240000Y-88500000D02*
X142240000Y-100560000D01*
X142240000Y-100560000D02*
X144360000Y-100560000D01*
X144560000Y-86440000D02*
X142440000Y-86440000D01*
X144560000Y-98500000D02*
X144560000Y-86440000D01*
X142440000Y-98500000D02*
X142440000Y-86440000D01*
X144560000Y-98500000D02*
X142440000Y-98500000D01*
X144560000Y-99500000D02*
X144560000Y-100560000D01*
X144560000Y-100560000D02*
X143500000Y-100560000D01*
G04 #@! TO.C,R1*
X147890000Y-102897936D02*
X147890000Y-104102064D01*
X149710000Y-102897936D02*
X149710000Y-104102064D01*
G04 #@! TO.C,yellow*
X154035000Y-112300000D02*
X154035000Y-108415000D01*
X154035000Y-108415000D02*
X151765000Y-108415000D01*
X151765000Y-108415000D02*
X151765000Y-112300000D01*
G04 #@! TO.C,J2*
X160130000Y-113470000D02*
X160130000Y-114800000D01*
X158800000Y-113470000D02*
X160130000Y-113470000D01*
X157530000Y-113470000D02*
X157530000Y-116130000D01*
X157530000Y-116130000D02*
X152390000Y-116130000D01*
X157530000Y-113470000D02*
X152390000Y-113470000D01*
X152390000Y-113470000D02*
X152390000Y-116130000D01*
G04 #@! TO.C,blue*
X143465000Y-109315000D02*
X143465000Y-113200000D01*
X145735000Y-109315000D02*
X143465000Y-109315000D01*
X145735000Y-113200000D02*
X145735000Y-109315000D01*
G04 #@! TO.C,SW1*
X147770000Y-109230000D02*
X149830000Y-109230000D01*
X147770000Y-113970000D02*
X149830000Y-113970000D01*
X146430000Y-113970000D02*
X146830000Y-113970000D01*
X146430000Y-109230000D02*
X146430000Y-113970000D01*
X146430000Y-109230000D02*
X146830000Y-109230000D01*
X151170000Y-113970000D02*
X150770000Y-113970000D01*
X151170000Y-109230000D02*
X150770000Y-109230000D01*
X151170000Y-109230000D02*
X151170000Y-113970000D01*
G04 #@! TO.C,R2*
X153810000Y-102897936D02*
X153810000Y-104102064D01*
X151990000Y-102897936D02*
X151990000Y-104102064D01*
G04 #@! TO.C,blue*
X141065000Y-73800000D02*
X141065000Y-77685000D01*
X141065000Y-77685000D02*
X143335000Y-77685000D01*
X143335000Y-77685000D02*
X143335000Y-73800000D01*
G04 #@! TO.C,yellow*
X135035000Y-78585000D02*
X135035000Y-74700000D01*
X132765000Y-78585000D02*
X135035000Y-78585000D01*
X132765000Y-74700000D02*
X132765000Y-78585000D01*
G04 #@! TO.C,J2*
X134410000Y-73530000D02*
X134410000Y-70870000D01*
X129270000Y-73530000D02*
X134410000Y-73530000D01*
X129270000Y-70870000D02*
X134410000Y-70870000D01*
X129270000Y-73530000D02*
X129270000Y-70870000D01*
X128000000Y-73530000D02*
X126670000Y-73530000D01*
X126670000Y-73530000D02*
X126670000Y-72200000D01*
G04 #@! TO.C,R1*
X137090000Y-84102064D02*
X137090000Y-82897936D01*
X138910000Y-84102064D02*
X138910000Y-82897936D01*
G04 #@! TO.C,R2*
X134810000Y-84102064D02*
X134810000Y-82897936D01*
X132990000Y-84102064D02*
X132990000Y-82897936D01*
G04 #@! TO.C,SW1*
X135630000Y-77770000D02*
X135630000Y-73030000D01*
X135630000Y-77770000D02*
X136030000Y-77770000D01*
X135630000Y-73030000D02*
X136030000Y-73030000D01*
X140370000Y-77770000D02*
X139970000Y-77770000D01*
X140370000Y-77770000D02*
X140370000Y-73030000D01*
X140370000Y-73030000D02*
X139970000Y-73030000D01*
X139030000Y-73030000D02*
X136970000Y-73030000D01*
X139030000Y-77770000D02*
X136970000Y-77770000D01*
G04 #@! TO.C,J1*
D10*
X141452380Y-85233333D02*
X142166666Y-85233333D01*
X142309523Y-85280952D01*
X142404761Y-85376190D01*
X142452380Y-85519047D01*
X142452380Y-85614285D01*
X142452380Y-84233333D02*
X142452380Y-84804761D01*
X142452380Y-84519047D02*
X141452380Y-84519047D01*
X141595238Y-84614285D01*
X141690476Y-84709523D01*
X141738095Y-84804761D01*
X144252380Y-102433333D02*
X144966666Y-102433333D01*
X145109523Y-102480952D01*
X145204761Y-102576190D01*
X145252380Y-102719047D01*
X145252380Y-102814285D01*
X145252380Y-101433333D02*
X145252380Y-102004761D01*
X145252380Y-101719047D02*
X144252380Y-101719047D01*
X144395238Y-101814285D01*
X144490476Y-101909523D01*
X144538095Y-102004761D01*
G04 #@! TO.C,R1*
X151072380Y-103666666D02*
X150596190Y-104000000D01*
X151072380Y-104238095D02*
X150072380Y-104238095D01*
X150072380Y-103857142D01*
X150120000Y-103761904D01*
X150167619Y-103714285D01*
X150262857Y-103666666D01*
X150405714Y-103666666D01*
X150500952Y-103714285D01*
X150548571Y-103761904D01*
X150596190Y-103857142D01*
X150596190Y-104238095D01*
X151072380Y-102714285D02*
X151072380Y-103285714D01*
X151072380Y-103000000D02*
X150072380Y-103000000D01*
X150215238Y-103095238D01*
X150310476Y-103190476D01*
X150358095Y-103285714D01*
G04 #@! TO.C,yellow*
X154585714Y-112866666D02*
X155252380Y-112628571D01*
X154585714Y-112390476D02*
X155252380Y-112628571D01*
X155490476Y-112723809D01*
X155538095Y-112771428D01*
X155585714Y-112866666D01*
X155204761Y-111628571D02*
X155252380Y-111723809D01*
X155252380Y-111914285D01*
X155204761Y-112009523D01*
X155109523Y-112057142D01*
X154728571Y-112057142D01*
X154633333Y-112009523D01*
X154585714Y-111914285D01*
X154585714Y-111723809D01*
X154633333Y-111628571D01*
X154728571Y-111580952D01*
X154823809Y-111580952D01*
X154919047Y-112057142D01*
X155252380Y-111009523D02*
X155204761Y-111104761D01*
X155109523Y-111152380D01*
X154252380Y-111152380D01*
X155252380Y-110485714D02*
X155204761Y-110580952D01*
X155109523Y-110628571D01*
X154252380Y-110628571D01*
X155252380Y-109961904D02*
X155204761Y-110057142D01*
X155157142Y-110104761D01*
X155061904Y-110152380D01*
X154776190Y-110152380D01*
X154680952Y-110104761D01*
X154633333Y-110057142D01*
X154585714Y-109961904D01*
X154585714Y-109819047D01*
X154633333Y-109723809D01*
X154680952Y-109676190D01*
X154776190Y-109628571D01*
X155061904Y-109628571D01*
X155157142Y-109676190D01*
X155204761Y-109723809D01*
X155252380Y-109819047D01*
X155252380Y-109961904D01*
X154585714Y-109295238D02*
X155252380Y-109104761D01*
X154776190Y-108914285D01*
X155252380Y-108723809D01*
X154585714Y-108533333D01*
G04 #@! TO.C,J2*
X158252380Y-112533333D02*
X158966666Y-112533333D01*
X159109523Y-112580952D01*
X159204761Y-112676190D01*
X159252380Y-112819047D01*
X159252380Y-112914285D01*
X158347619Y-112104761D02*
X158300000Y-112057142D01*
X158252380Y-111961904D01*
X158252380Y-111723809D01*
X158300000Y-111628571D01*
X158347619Y-111580952D01*
X158442857Y-111533333D01*
X158538095Y-111533333D01*
X158680952Y-111580952D01*
X159252380Y-112152380D01*
X159252380Y-111533333D01*
G04 #@! TO.C,blue*
X143352380Y-112957142D02*
X142352380Y-112957142D01*
X142733333Y-112957142D02*
X142685714Y-112861904D01*
X142685714Y-112671428D01*
X142733333Y-112576190D01*
X142780952Y-112528571D01*
X142876190Y-112480952D01*
X143161904Y-112480952D01*
X143257142Y-112528571D01*
X143304761Y-112576190D01*
X143352380Y-112671428D01*
X143352380Y-112861904D01*
X143304761Y-112957142D01*
X143352380Y-111909523D02*
X143304761Y-112004761D01*
X143209523Y-112052380D01*
X142352380Y-112052380D01*
X142685714Y-111100000D02*
X143352380Y-111100000D01*
X142685714Y-111528571D02*
X143209523Y-111528571D01*
X143304761Y-111480952D01*
X143352380Y-111385714D01*
X143352380Y-111242857D01*
X143304761Y-111147619D01*
X143257142Y-111100000D01*
X143304761Y-110242857D02*
X143352380Y-110338095D01*
X143352380Y-110528571D01*
X143304761Y-110623809D01*
X143209523Y-110671428D01*
X142828571Y-110671428D01*
X142733333Y-110623809D01*
X142685714Y-110528571D01*
X142685714Y-110338095D01*
X142733333Y-110242857D01*
X142828571Y-110195238D01*
X142923809Y-110195238D01*
X143019047Y-110671428D01*
G04 #@! TO.C,SW1*
X149104761Y-112933333D02*
X149152380Y-112790476D01*
X149152380Y-112552380D01*
X149104761Y-112457142D01*
X149057142Y-112409523D01*
X148961904Y-112361904D01*
X148866666Y-112361904D01*
X148771428Y-112409523D01*
X148723809Y-112457142D01*
X148676190Y-112552380D01*
X148628571Y-112742857D01*
X148580952Y-112838095D01*
X148533333Y-112885714D01*
X148438095Y-112933333D01*
X148342857Y-112933333D01*
X148247619Y-112885714D01*
X148200000Y-112838095D01*
X148152380Y-112742857D01*
X148152380Y-112504761D01*
X148200000Y-112361904D01*
X148152380Y-112028571D02*
X149152380Y-111790476D01*
X148438095Y-111600000D01*
X149152380Y-111409523D01*
X148152380Y-111171428D01*
X149152380Y-110266666D02*
X149152380Y-110838095D01*
X149152380Y-110552380D02*
X148152380Y-110552380D01*
X148295238Y-110647619D01*
X148390476Y-110742857D01*
X148438095Y-110838095D01*
G04 #@! TO.C,R2*
X155172380Y-103666666D02*
X154696190Y-104000000D01*
X155172380Y-104238095D02*
X154172380Y-104238095D01*
X154172380Y-103857142D01*
X154220000Y-103761904D01*
X154267619Y-103714285D01*
X154362857Y-103666666D01*
X154505714Y-103666666D01*
X154600952Y-103714285D01*
X154648571Y-103761904D01*
X154696190Y-103857142D01*
X154696190Y-104238095D01*
X154267619Y-103285714D02*
X154220000Y-103238095D01*
X154172380Y-103142857D01*
X154172380Y-102904761D01*
X154220000Y-102809523D01*
X154267619Y-102761904D01*
X154362857Y-102714285D01*
X154458095Y-102714285D01*
X154600952Y-102761904D01*
X155172380Y-103333333D01*
X155172380Y-102714285D01*
G04 #@! TO.C,blue*
X144352380Y-76757142D02*
X143352380Y-76757142D01*
X143733333Y-76757142D02*
X143685714Y-76661904D01*
X143685714Y-76471428D01*
X143733333Y-76376190D01*
X143780952Y-76328571D01*
X143876190Y-76280952D01*
X144161904Y-76280952D01*
X144257142Y-76328571D01*
X144304761Y-76376190D01*
X144352380Y-76471428D01*
X144352380Y-76661904D01*
X144304761Y-76757142D01*
X144352380Y-75709523D02*
X144304761Y-75804761D01*
X144209523Y-75852380D01*
X143352380Y-75852380D01*
X143685714Y-74900000D02*
X144352380Y-74900000D01*
X143685714Y-75328571D02*
X144209523Y-75328571D01*
X144304761Y-75280952D01*
X144352380Y-75185714D01*
X144352380Y-75042857D01*
X144304761Y-74947619D01*
X144257142Y-74900000D01*
X144304761Y-74042857D02*
X144352380Y-74138095D01*
X144352380Y-74328571D01*
X144304761Y-74423809D01*
X144209523Y-74471428D01*
X143828571Y-74471428D01*
X143733333Y-74423809D01*
X143685714Y-74328571D01*
X143685714Y-74138095D01*
X143733333Y-74042857D01*
X143828571Y-73995238D01*
X143923809Y-73995238D01*
X144019047Y-74471428D01*
G04 #@! TO.C,yellow*
X131785714Y-78466666D02*
X132452380Y-78228571D01*
X131785714Y-77990476D02*
X132452380Y-78228571D01*
X132690476Y-78323809D01*
X132738095Y-78371428D01*
X132785714Y-78466666D01*
X132404761Y-77228571D02*
X132452380Y-77323809D01*
X132452380Y-77514285D01*
X132404761Y-77609523D01*
X132309523Y-77657142D01*
X131928571Y-77657142D01*
X131833333Y-77609523D01*
X131785714Y-77514285D01*
X131785714Y-77323809D01*
X131833333Y-77228571D01*
X131928571Y-77180952D01*
X132023809Y-77180952D01*
X132119047Y-77657142D01*
X132452380Y-76609523D02*
X132404761Y-76704761D01*
X132309523Y-76752380D01*
X131452380Y-76752380D01*
X132452380Y-76085714D02*
X132404761Y-76180952D01*
X132309523Y-76228571D01*
X131452380Y-76228571D01*
X132452380Y-75561904D02*
X132404761Y-75657142D01*
X132357142Y-75704761D01*
X132261904Y-75752380D01*
X131976190Y-75752380D01*
X131880952Y-75704761D01*
X131833333Y-75657142D01*
X131785714Y-75561904D01*
X131785714Y-75419047D01*
X131833333Y-75323809D01*
X131880952Y-75276190D01*
X131976190Y-75228571D01*
X132261904Y-75228571D01*
X132357142Y-75276190D01*
X132404761Y-75323809D01*
X132452380Y-75419047D01*
X132452380Y-75561904D01*
X131785714Y-74895238D02*
X132452380Y-74704761D01*
X131976190Y-74514285D01*
X132452380Y-74323809D01*
X131785714Y-74133333D01*
G04 #@! TO.C,J2*
X127452380Y-75133333D02*
X128166666Y-75133333D01*
X128309523Y-75180952D01*
X128404761Y-75276190D01*
X128452380Y-75419047D01*
X128452380Y-75514285D01*
X127547619Y-74704761D02*
X127500000Y-74657142D01*
X127452380Y-74561904D01*
X127452380Y-74323809D01*
X127500000Y-74228571D01*
X127547619Y-74180952D01*
X127642857Y-74133333D01*
X127738095Y-74133333D01*
X127880952Y-74180952D01*
X128452380Y-74752380D01*
X128452380Y-74133333D01*
G04 #@! TO.C,R1*
X136632380Y-83666666D02*
X136156190Y-84000000D01*
X136632380Y-84238095D02*
X135632380Y-84238095D01*
X135632380Y-83857142D01*
X135680000Y-83761904D01*
X135727619Y-83714285D01*
X135822857Y-83666666D01*
X135965714Y-83666666D01*
X136060952Y-83714285D01*
X136108571Y-83761904D01*
X136156190Y-83857142D01*
X136156190Y-84238095D01*
X136632380Y-82714285D02*
X136632380Y-83285714D01*
X136632380Y-83000000D02*
X135632380Y-83000000D01*
X135775238Y-83095238D01*
X135870476Y-83190476D01*
X135918095Y-83285714D01*
G04 #@! TO.C,R2*
X132532380Y-83666666D02*
X132056190Y-84000000D01*
X132532380Y-84238095D02*
X131532380Y-84238095D01*
X131532380Y-83857142D01*
X131580000Y-83761904D01*
X131627619Y-83714285D01*
X131722857Y-83666666D01*
X131865714Y-83666666D01*
X131960952Y-83714285D01*
X132008571Y-83761904D01*
X132056190Y-83857142D01*
X132056190Y-84238095D01*
X131627619Y-83285714D02*
X131580000Y-83238095D01*
X131532380Y-83142857D01*
X131532380Y-82904761D01*
X131580000Y-82809523D01*
X131627619Y-82761904D01*
X131722857Y-82714285D01*
X131818095Y-82714285D01*
X131960952Y-82761904D01*
X132532380Y-83333333D01*
X132532380Y-82714285D01*
G04 #@! TO.C,SW1*
X138504761Y-76733333D02*
X138552380Y-76590476D01*
X138552380Y-76352380D01*
X138504761Y-76257142D01*
X138457142Y-76209523D01*
X138361904Y-76161904D01*
X138266666Y-76161904D01*
X138171428Y-76209523D01*
X138123809Y-76257142D01*
X138076190Y-76352380D01*
X138028571Y-76542857D01*
X137980952Y-76638095D01*
X137933333Y-76685714D01*
X137838095Y-76733333D01*
X137742857Y-76733333D01*
X137647619Y-76685714D01*
X137600000Y-76638095D01*
X137552380Y-76542857D01*
X137552380Y-76304761D01*
X137600000Y-76161904D01*
X137552380Y-75828571D02*
X138552380Y-75590476D01*
X137838095Y-75400000D01*
X138552380Y-75209523D01*
X137552380Y-74971428D01*
X138552380Y-74066666D02*
X138552380Y-74638095D01*
X138552380Y-74352380D02*
X137552380Y-74352380D01*
X137695238Y-74447619D01*
X137790476Y-74542857D01*
X137838095Y-74638095D01*
G04 #@! TD*
M02*
