G04 #@! TF.GenerationSoftware,KiCad,Pcbnew,(5.0.1)-4*
G04 #@! TF.CreationDate,2019-02-18T18:34:45+08:00*
G04 #@! TF.ProjectId,Xiaomi2Ali-Smart-Plug-WIFI-Module,5869616F6D6932416C692D536D617274,rev?*
G04 #@! TF.SameCoordinates,Original*
G04 #@! TF.FileFunction,Soldermask,Top*
G04 #@! TF.FilePolarity,Negative*
%FSLAX46Y46*%
G04 Gerber Fmt 4.6, Leading zero omitted, Abs format (unit mm)*
G04 Created by KiCad (PCBNEW (5.0.1)-4) date 2019/2/18 18:34:45*
%MOMM*%
%LPD*%
G01*
G04 APERTURE LIST*
%ADD10C,0.100000*%
G04 APERTURE END LIST*
D10*
G36*
X148051000Y-116051000D02*
X146549000Y-116051000D01*
X146549000Y-114349000D01*
X148051000Y-114349000D01*
X148051000Y-116051000D01*
X148051000Y-116051000D01*
G37*
G36*
X151051000Y-116051000D02*
X149549000Y-116051000D01*
X149549000Y-114349000D01*
X151051000Y-114349000D01*
X151051000Y-116051000D01*
X151051000Y-116051000D01*
G37*
G36*
X153830442Y-113905518D02*
X153896627Y-113912037D01*
X154009853Y-113946384D01*
X154066467Y-113963557D01*
X154205087Y-114037652D01*
X154222991Y-114047222D01*
X154258729Y-114076552D01*
X154360186Y-114159814D01*
X154443448Y-114261271D01*
X154472778Y-114297009D01*
X154472779Y-114297011D01*
X154556443Y-114453533D01*
X154556443Y-114453534D01*
X154607963Y-114623373D01*
X154625359Y-114800000D01*
X154607963Y-114976627D01*
X154573616Y-115089853D01*
X154556443Y-115146467D01*
X154482348Y-115285087D01*
X154472778Y-115302991D01*
X154443448Y-115338729D01*
X154360186Y-115440186D01*
X154258729Y-115523448D01*
X154222991Y-115552778D01*
X154222989Y-115552779D01*
X154066467Y-115636443D01*
X154009853Y-115653616D01*
X153896627Y-115687963D01*
X153830442Y-115694482D01*
X153764260Y-115701000D01*
X153675740Y-115701000D01*
X153609558Y-115694482D01*
X153543373Y-115687963D01*
X153430147Y-115653616D01*
X153373533Y-115636443D01*
X153217011Y-115552779D01*
X153217009Y-115552778D01*
X153181271Y-115523448D01*
X153079814Y-115440186D01*
X152996552Y-115338729D01*
X152967222Y-115302991D01*
X152957652Y-115285087D01*
X152883557Y-115146467D01*
X152866384Y-115089853D01*
X152832037Y-114976627D01*
X152814641Y-114800000D01*
X152832037Y-114623373D01*
X152883557Y-114453534D01*
X152883557Y-114453533D01*
X152967221Y-114297011D01*
X152967222Y-114297009D01*
X152996552Y-114261271D01*
X153079814Y-114159814D01*
X153181271Y-114076552D01*
X153217009Y-114047222D01*
X153234913Y-114037652D01*
X153373533Y-113963557D01*
X153430147Y-113946384D01*
X153543373Y-113912037D01*
X153609558Y-113905518D01*
X153675740Y-113899000D01*
X153764260Y-113899000D01*
X153830442Y-113905518D01*
X153830442Y-113905518D01*
G37*
G36*
X156370442Y-113905518D02*
X156436627Y-113912037D01*
X156549853Y-113946384D01*
X156606467Y-113963557D01*
X156745087Y-114037652D01*
X156762991Y-114047222D01*
X156798729Y-114076552D01*
X156900186Y-114159814D01*
X156983448Y-114261271D01*
X157012778Y-114297009D01*
X157012779Y-114297011D01*
X157096443Y-114453533D01*
X157096443Y-114453534D01*
X157147963Y-114623373D01*
X157165359Y-114800000D01*
X157147963Y-114976627D01*
X157113616Y-115089853D01*
X157096443Y-115146467D01*
X157022348Y-115285087D01*
X157012778Y-115302991D01*
X156983448Y-115338729D01*
X156900186Y-115440186D01*
X156798729Y-115523448D01*
X156762991Y-115552778D01*
X156762989Y-115552779D01*
X156606467Y-115636443D01*
X156549853Y-115653616D01*
X156436627Y-115687963D01*
X156370442Y-115694482D01*
X156304260Y-115701000D01*
X156215740Y-115701000D01*
X156149558Y-115694482D01*
X156083373Y-115687963D01*
X155970147Y-115653616D01*
X155913533Y-115636443D01*
X155757011Y-115552779D01*
X155757009Y-115552778D01*
X155721271Y-115523448D01*
X155619814Y-115440186D01*
X155536552Y-115338729D01*
X155507222Y-115302991D01*
X155497652Y-115285087D01*
X155423557Y-115146467D01*
X155406384Y-115089853D01*
X155372037Y-114976627D01*
X155354641Y-114800000D01*
X155372037Y-114623373D01*
X155423557Y-114453534D01*
X155423557Y-114453533D01*
X155507221Y-114297011D01*
X155507222Y-114297009D01*
X155536552Y-114261271D01*
X155619814Y-114159814D01*
X155721271Y-114076552D01*
X155757009Y-114047222D01*
X155774913Y-114037652D01*
X155913533Y-113963557D01*
X155970147Y-113946384D01*
X156083373Y-113912037D01*
X156149558Y-113905518D01*
X156215740Y-113899000D01*
X156304260Y-113899000D01*
X156370442Y-113905518D01*
X156370442Y-113905518D01*
G37*
G36*
X159701000Y-115701000D02*
X157899000Y-115701000D01*
X157899000Y-113899000D01*
X159701000Y-113899000D01*
X159701000Y-115701000D01*
X159701000Y-115701000D01*
G37*
G36*
X145368604Y-112328347D02*
X145405145Y-112339432D01*
X145438820Y-112357431D01*
X145468341Y-112381659D01*
X145492569Y-112411180D01*
X145510568Y-112444855D01*
X145521653Y-112481396D01*
X145526000Y-112525538D01*
X145526000Y-113474462D01*
X145521653Y-113518604D01*
X145510568Y-113555145D01*
X145492569Y-113588820D01*
X145468341Y-113618341D01*
X145438820Y-113642569D01*
X145405145Y-113660568D01*
X145368604Y-113671653D01*
X145324462Y-113676000D01*
X143875538Y-113676000D01*
X143831396Y-113671653D01*
X143794855Y-113660568D01*
X143761180Y-113642569D01*
X143731659Y-113618341D01*
X143707431Y-113588820D01*
X143689432Y-113555145D01*
X143678347Y-113518604D01*
X143674000Y-113474462D01*
X143674000Y-112525538D01*
X143678347Y-112481396D01*
X143689432Y-112444855D01*
X143707431Y-112411180D01*
X143731659Y-112381659D01*
X143761180Y-112357431D01*
X143794855Y-112339432D01*
X143831396Y-112328347D01*
X143875538Y-112324000D01*
X145324462Y-112324000D01*
X145368604Y-112328347D01*
X145368604Y-112328347D01*
G37*
G36*
X153668604Y-111428347D02*
X153705145Y-111439432D01*
X153738820Y-111457431D01*
X153768341Y-111481659D01*
X153792569Y-111511180D01*
X153810568Y-111544855D01*
X153821653Y-111581396D01*
X153826000Y-111625538D01*
X153826000Y-112574462D01*
X153821653Y-112618604D01*
X153810568Y-112655145D01*
X153792569Y-112688820D01*
X153768341Y-112718341D01*
X153738820Y-112742569D01*
X153705145Y-112760568D01*
X153668604Y-112771653D01*
X153624462Y-112776000D01*
X152175538Y-112776000D01*
X152131396Y-112771653D01*
X152094855Y-112760568D01*
X152061180Y-112742569D01*
X152031659Y-112718341D01*
X152007431Y-112688820D01*
X151989432Y-112655145D01*
X151978347Y-112618604D01*
X151974000Y-112574462D01*
X151974000Y-111625538D01*
X151978347Y-111581396D01*
X151989432Y-111544855D01*
X152007431Y-111511180D01*
X152031659Y-111481659D01*
X152061180Y-111457431D01*
X152094855Y-111439432D01*
X152131396Y-111428347D01*
X152175538Y-111424000D01*
X153624462Y-111424000D01*
X153668604Y-111428347D01*
X153668604Y-111428347D01*
G37*
G36*
X145368604Y-109528347D02*
X145405145Y-109539432D01*
X145438820Y-109557431D01*
X145468341Y-109581659D01*
X145492569Y-109611180D01*
X145510568Y-109644855D01*
X145521653Y-109681396D01*
X145526000Y-109725538D01*
X145526000Y-110674462D01*
X145521653Y-110718604D01*
X145510568Y-110755145D01*
X145492569Y-110788820D01*
X145468341Y-110818341D01*
X145438820Y-110842569D01*
X145405145Y-110860568D01*
X145368604Y-110871653D01*
X145324462Y-110876000D01*
X143875538Y-110876000D01*
X143831396Y-110871653D01*
X143794855Y-110860568D01*
X143761180Y-110842569D01*
X143731659Y-110818341D01*
X143707431Y-110788820D01*
X143689432Y-110755145D01*
X143678347Y-110718604D01*
X143674000Y-110674462D01*
X143674000Y-109725538D01*
X143678347Y-109681396D01*
X143689432Y-109644855D01*
X143707431Y-109611180D01*
X143731659Y-109581659D01*
X143761180Y-109557431D01*
X143794855Y-109539432D01*
X143831396Y-109528347D01*
X143875538Y-109524000D01*
X145324462Y-109524000D01*
X145368604Y-109528347D01*
X145368604Y-109528347D01*
G37*
G36*
X153668604Y-108628347D02*
X153705145Y-108639432D01*
X153738820Y-108657431D01*
X153768341Y-108681659D01*
X153792569Y-108711180D01*
X153810568Y-108744855D01*
X153821653Y-108781396D01*
X153826000Y-108825538D01*
X153826000Y-109774462D01*
X153821653Y-109818604D01*
X153810568Y-109855145D01*
X153792569Y-109888820D01*
X153768341Y-109918341D01*
X153738820Y-109942569D01*
X153705145Y-109960568D01*
X153668604Y-109971653D01*
X153624462Y-109976000D01*
X152175538Y-109976000D01*
X152131396Y-109971653D01*
X152094855Y-109960568D01*
X152061180Y-109942569D01*
X152031659Y-109918341D01*
X152007431Y-109888820D01*
X151989432Y-109855145D01*
X151978347Y-109818604D01*
X151974000Y-109774462D01*
X151974000Y-108825538D01*
X151978347Y-108781396D01*
X151989432Y-108744855D01*
X152007431Y-108711180D01*
X152031659Y-108681659D01*
X152061180Y-108657431D01*
X152094855Y-108639432D01*
X152131396Y-108628347D01*
X152175538Y-108624000D01*
X153624462Y-108624000D01*
X153668604Y-108628347D01*
X153668604Y-108628347D01*
G37*
G36*
X151051000Y-108851000D02*
X149549000Y-108851000D01*
X149549000Y-107149000D01*
X151051000Y-107149000D01*
X151051000Y-108851000D01*
X151051000Y-108851000D01*
G37*
G36*
X148051000Y-108851000D02*
X146549000Y-108851000D01*
X146549000Y-107149000D01*
X148051000Y-107149000D01*
X148051000Y-108851000D01*
X148051000Y-108851000D01*
G37*
G36*
X149568604Y-104228347D02*
X149605145Y-104239432D01*
X149638820Y-104257431D01*
X149668341Y-104281659D01*
X149692569Y-104311180D01*
X149710568Y-104344855D01*
X149721653Y-104381396D01*
X149726000Y-104425538D01*
X149726000Y-105374462D01*
X149721653Y-105418604D01*
X149710568Y-105455145D01*
X149692569Y-105488820D01*
X149668341Y-105518341D01*
X149638820Y-105542569D01*
X149605145Y-105560568D01*
X149568604Y-105571653D01*
X149524462Y-105576000D01*
X148075538Y-105576000D01*
X148031396Y-105571653D01*
X147994855Y-105560568D01*
X147961180Y-105542569D01*
X147931659Y-105518341D01*
X147907431Y-105488820D01*
X147889432Y-105455145D01*
X147878347Y-105418604D01*
X147874000Y-105374462D01*
X147874000Y-104425538D01*
X147878347Y-104381396D01*
X147889432Y-104344855D01*
X147907431Y-104311180D01*
X147931659Y-104281659D01*
X147961180Y-104257431D01*
X147994855Y-104239432D01*
X148031396Y-104228347D01*
X148075538Y-104224000D01*
X149524462Y-104224000D01*
X149568604Y-104228347D01*
X149568604Y-104228347D01*
G37*
G36*
X153668604Y-104228347D02*
X153705145Y-104239432D01*
X153738820Y-104257431D01*
X153768341Y-104281659D01*
X153792569Y-104311180D01*
X153810568Y-104344855D01*
X153821653Y-104381396D01*
X153826000Y-104425538D01*
X153826000Y-105374462D01*
X153821653Y-105418604D01*
X153810568Y-105455145D01*
X153792569Y-105488820D01*
X153768341Y-105518341D01*
X153738820Y-105542569D01*
X153705145Y-105560568D01*
X153668604Y-105571653D01*
X153624462Y-105576000D01*
X152175538Y-105576000D01*
X152131396Y-105571653D01*
X152094855Y-105560568D01*
X152061180Y-105542569D01*
X152031659Y-105518341D01*
X152007431Y-105488820D01*
X151989432Y-105455145D01*
X151978347Y-105418604D01*
X151974000Y-105374462D01*
X151974000Y-104425538D01*
X151978347Y-104381396D01*
X151989432Y-104344855D01*
X152007431Y-104311180D01*
X152031659Y-104281659D01*
X152061180Y-104257431D01*
X152094855Y-104239432D01*
X152131396Y-104228347D01*
X152175538Y-104224000D01*
X153624462Y-104224000D01*
X153668604Y-104228347D01*
X153668604Y-104228347D01*
G37*
G36*
X149568604Y-101428347D02*
X149605145Y-101439432D01*
X149638820Y-101457431D01*
X149668341Y-101481659D01*
X149692569Y-101511180D01*
X149710568Y-101544855D01*
X149721653Y-101581396D01*
X149726000Y-101625538D01*
X149726000Y-102574462D01*
X149721653Y-102618604D01*
X149710568Y-102655145D01*
X149692569Y-102688820D01*
X149668341Y-102718341D01*
X149638820Y-102742569D01*
X149605145Y-102760568D01*
X149568604Y-102771653D01*
X149524462Y-102776000D01*
X148075538Y-102776000D01*
X148031396Y-102771653D01*
X147994855Y-102760568D01*
X147961180Y-102742569D01*
X147931659Y-102718341D01*
X147907431Y-102688820D01*
X147889432Y-102655145D01*
X147878347Y-102618604D01*
X147874000Y-102574462D01*
X147874000Y-101625538D01*
X147878347Y-101581396D01*
X147889432Y-101544855D01*
X147907431Y-101511180D01*
X147931659Y-101481659D01*
X147961180Y-101457431D01*
X147994855Y-101439432D01*
X148031396Y-101428347D01*
X148075538Y-101424000D01*
X149524462Y-101424000D01*
X149568604Y-101428347D01*
X149568604Y-101428347D01*
G37*
G36*
X153668604Y-101428347D02*
X153705145Y-101439432D01*
X153738820Y-101457431D01*
X153768341Y-101481659D01*
X153792569Y-101511180D01*
X153810568Y-101544855D01*
X153821653Y-101581396D01*
X153826000Y-101625538D01*
X153826000Y-102574462D01*
X153821653Y-102618604D01*
X153810568Y-102655145D01*
X153792569Y-102688820D01*
X153768341Y-102718341D01*
X153738820Y-102742569D01*
X153705145Y-102760568D01*
X153668604Y-102771653D01*
X153624462Y-102776000D01*
X152175538Y-102776000D01*
X152131396Y-102771653D01*
X152094855Y-102760568D01*
X152061180Y-102742569D01*
X152031659Y-102718341D01*
X152007431Y-102688820D01*
X151989432Y-102655145D01*
X151978347Y-102618604D01*
X151974000Y-102574462D01*
X151974000Y-101625538D01*
X151978347Y-101581396D01*
X151989432Y-101544855D01*
X152007431Y-101511180D01*
X152031659Y-101481659D01*
X152061180Y-101457431D01*
X152094855Y-101439432D01*
X152131396Y-101428347D01*
X152175538Y-101424000D01*
X153624462Y-101424000D01*
X153668604Y-101428347D01*
X153668604Y-101428347D01*
G37*
G36*
X144226000Y-100226000D02*
X142574000Y-100226000D01*
X142574000Y-98774000D01*
X144226000Y-98774000D01*
X144226000Y-100226000D01*
X144226000Y-100226000D01*
G37*
G36*
X144226000Y-98226000D02*
X142574000Y-98226000D01*
X142574000Y-96774000D01*
X144226000Y-96774000D01*
X144226000Y-98226000D01*
X144226000Y-98226000D01*
G37*
G36*
X144226000Y-96226000D02*
X142574000Y-96226000D01*
X142574000Y-94774000D01*
X144226000Y-94774000D01*
X144226000Y-96226000D01*
X144226000Y-96226000D01*
G37*
G36*
X144226000Y-94226000D02*
X142574000Y-94226000D01*
X142574000Y-92774000D01*
X144226000Y-92774000D01*
X144226000Y-94226000D01*
X144226000Y-94226000D01*
G37*
G36*
X144226000Y-92226000D02*
X142574000Y-92226000D01*
X142574000Y-90774000D01*
X144226000Y-90774000D01*
X144226000Y-92226000D01*
X144226000Y-92226000D01*
G37*
G36*
X144226000Y-90226000D02*
X142574000Y-90226000D01*
X142574000Y-88774000D01*
X144226000Y-88774000D01*
X144226000Y-90226000D01*
X144226000Y-90226000D01*
G37*
G36*
X144226000Y-88226000D02*
X142574000Y-88226000D01*
X142574000Y-86774000D01*
X144226000Y-86774000D01*
X144226000Y-88226000D01*
X144226000Y-88226000D01*
G37*
G36*
X138768604Y-84228347D02*
X138805145Y-84239432D01*
X138838820Y-84257431D01*
X138868341Y-84281659D01*
X138892569Y-84311180D01*
X138910568Y-84344855D01*
X138921653Y-84381396D01*
X138926000Y-84425538D01*
X138926000Y-85374462D01*
X138921653Y-85418604D01*
X138910568Y-85455145D01*
X138892569Y-85488820D01*
X138868341Y-85518341D01*
X138838820Y-85542569D01*
X138805145Y-85560568D01*
X138768604Y-85571653D01*
X138724462Y-85576000D01*
X137275538Y-85576000D01*
X137231396Y-85571653D01*
X137194855Y-85560568D01*
X137161180Y-85542569D01*
X137131659Y-85518341D01*
X137107431Y-85488820D01*
X137089432Y-85455145D01*
X137078347Y-85418604D01*
X137074000Y-85374462D01*
X137074000Y-84425538D01*
X137078347Y-84381396D01*
X137089432Y-84344855D01*
X137107431Y-84311180D01*
X137131659Y-84281659D01*
X137161180Y-84257431D01*
X137194855Y-84239432D01*
X137231396Y-84228347D01*
X137275538Y-84224000D01*
X138724462Y-84224000D01*
X138768604Y-84228347D01*
X138768604Y-84228347D01*
G37*
G36*
X134668604Y-84228347D02*
X134705145Y-84239432D01*
X134738820Y-84257431D01*
X134768341Y-84281659D01*
X134792569Y-84311180D01*
X134810568Y-84344855D01*
X134821653Y-84381396D01*
X134826000Y-84425538D01*
X134826000Y-85374462D01*
X134821653Y-85418604D01*
X134810568Y-85455145D01*
X134792569Y-85488820D01*
X134768341Y-85518341D01*
X134738820Y-85542569D01*
X134705145Y-85560568D01*
X134668604Y-85571653D01*
X134624462Y-85576000D01*
X133175538Y-85576000D01*
X133131396Y-85571653D01*
X133094855Y-85560568D01*
X133061180Y-85542569D01*
X133031659Y-85518341D01*
X133007431Y-85488820D01*
X132989432Y-85455145D01*
X132978347Y-85418604D01*
X132974000Y-85374462D01*
X132974000Y-84425538D01*
X132978347Y-84381396D01*
X132989432Y-84344855D01*
X133007431Y-84311180D01*
X133031659Y-84281659D01*
X133061180Y-84257431D01*
X133094855Y-84239432D01*
X133131396Y-84228347D01*
X133175538Y-84224000D01*
X134624462Y-84224000D01*
X134668604Y-84228347D01*
X134668604Y-84228347D01*
G37*
G36*
X134668604Y-81428347D02*
X134705145Y-81439432D01*
X134738820Y-81457431D01*
X134768341Y-81481659D01*
X134792569Y-81511180D01*
X134810568Y-81544855D01*
X134821653Y-81581396D01*
X134826000Y-81625538D01*
X134826000Y-82574462D01*
X134821653Y-82618604D01*
X134810568Y-82655145D01*
X134792569Y-82688820D01*
X134768341Y-82718341D01*
X134738820Y-82742569D01*
X134705145Y-82760568D01*
X134668604Y-82771653D01*
X134624462Y-82776000D01*
X133175538Y-82776000D01*
X133131396Y-82771653D01*
X133094855Y-82760568D01*
X133061180Y-82742569D01*
X133031659Y-82718341D01*
X133007431Y-82688820D01*
X132989432Y-82655145D01*
X132978347Y-82618604D01*
X132974000Y-82574462D01*
X132974000Y-81625538D01*
X132978347Y-81581396D01*
X132989432Y-81544855D01*
X133007431Y-81511180D01*
X133031659Y-81481659D01*
X133061180Y-81457431D01*
X133094855Y-81439432D01*
X133131396Y-81428347D01*
X133175538Y-81424000D01*
X134624462Y-81424000D01*
X134668604Y-81428347D01*
X134668604Y-81428347D01*
G37*
G36*
X138768604Y-81428347D02*
X138805145Y-81439432D01*
X138838820Y-81457431D01*
X138868341Y-81481659D01*
X138892569Y-81511180D01*
X138910568Y-81544855D01*
X138921653Y-81581396D01*
X138926000Y-81625538D01*
X138926000Y-82574462D01*
X138921653Y-82618604D01*
X138910568Y-82655145D01*
X138892569Y-82688820D01*
X138868341Y-82718341D01*
X138838820Y-82742569D01*
X138805145Y-82760568D01*
X138768604Y-82771653D01*
X138724462Y-82776000D01*
X137275538Y-82776000D01*
X137231396Y-82771653D01*
X137194855Y-82760568D01*
X137161180Y-82742569D01*
X137131659Y-82718341D01*
X137107431Y-82688820D01*
X137089432Y-82655145D01*
X137078347Y-82618604D01*
X137074000Y-82574462D01*
X137074000Y-81625538D01*
X137078347Y-81581396D01*
X137089432Y-81544855D01*
X137107431Y-81511180D01*
X137131659Y-81481659D01*
X137161180Y-81457431D01*
X137194855Y-81439432D01*
X137231396Y-81428347D01*
X137275538Y-81424000D01*
X138724462Y-81424000D01*
X138768604Y-81428347D01*
X138768604Y-81428347D01*
G37*
G36*
X137251000Y-79851000D02*
X135749000Y-79851000D01*
X135749000Y-78149000D01*
X137251000Y-78149000D01*
X137251000Y-79851000D01*
X137251000Y-79851000D01*
G37*
G36*
X140251000Y-79851000D02*
X138749000Y-79851000D01*
X138749000Y-78149000D01*
X140251000Y-78149000D01*
X140251000Y-79851000D01*
X140251000Y-79851000D01*
G37*
G36*
X134668604Y-77028347D02*
X134705145Y-77039432D01*
X134738820Y-77057431D01*
X134768341Y-77081659D01*
X134792569Y-77111180D01*
X134810568Y-77144855D01*
X134821653Y-77181396D01*
X134826000Y-77225538D01*
X134826000Y-78174462D01*
X134821653Y-78218604D01*
X134810568Y-78255145D01*
X134792569Y-78288820D01*
X134768341Y-78318341D01*
X134738820Y-78342569D01*
X134705145Y-78360568D01*
X134668604Y-78371653D01*
X134624462Y-78376000D01*
X133175538Y-78376000D01*
X133131396Y-78371653D01*
X133094855Y-78360568D01*
X133061180Y-78342569D01*
X133031659Y-78318341D01*
X133007431Y-78288820D01*
X132989432Y-78255145D01*
X132978347Y-78218604D01*
X132974000Y-78174462D01*
X132974000Y-77225538D01*
X132978347Y-77181396D01*
X132989432Y-77144855D01*
X133007431Y-77111180D01*
X133031659Y-77081659D01*
X133061180Y-77057431D01*
X133094855Y-77039432D01*
X133131396Y-77028347D01*
X133175538Y-77024000D01*
X134624462Y-77024000D01*
X134668604Y-77028347D01*
X134668604Y-77028347D01*
G37*
G36*
X142968604Y-76128347D02*
X143005145Y-76139432D01*
X143038820Y-76157431D01*
X143068341Y-76181659D01*
X143092569Y-76211180D01*
X143110568Y-76244855D01*
X143121653Y-76281396D01*
X143126000Y-76325538D01*
X143126000Y-77274462D01*
X143121653Y-77318604D01*
X143110568Y-77355145D01*
X143092569Y-77388820D01*
X143068341Y-77418341D01*
X143038820Y-77442569D01*
X143005145Y-77460568D01*
X142968604Y-77471653D01*
X142924462Y-77476000D01*
X141475538Y-77476000D01*
X141431396Y-77471653D01*
X141394855Y-77460568D01*
X141361180Y-77442569D01*
X141331659Y-77418341D01*
X141307431Y-77388820D01*
X141289432Y-77355145D01*
X141278347Y-77318604D01*
X141274000Y-77274462D01*
X141274000Y-76325538D01*
X141278347Y-76281396D01*
X141289432Y-76244855D01*
X141307431Y-76211180D01*
X141331659Y-76181659D01*
X141361180Y-76157431D01*
X141394855Y-76139432D01*
X141431396Y-76128347D01*
X141475538Y-76124000D01*
X142924462Y-76124000D01*
X142968604Y-76128347D01*
X142968604Y-76128347D01*
G37*
G36*
X134668604Y-74228347D02*
X134705145Y-74239432D01*
X134738820Y-74257431D01*
X134768341Y-74281659D01*
X134792569Y-74311180D01*
X134810568Y-74344855D01*
X134821653Y-74381396D01*
X134826000Y-74425538D01*
X134826000Y-75374462D01*
X134821653Y-75418604D01*
X134810568Y-75455145D01*
X134792569Y-75488820D01*
X134768341Y-75518341D01*
X134738820Y-75542569D01*
X134705145Y-75560568D01*
X134668604Y-75571653D01*
X134624462Y-75576000D01*
X133175538Y-75576000D01*
X133131396Y-75571653D01*
X133094855Y-75560568D01*
X133061180Y-75542569D01*
X133031659Y-75518341D01*
X133007431Y-75488820D01*
X132989432Y-75455145D01*
X132978347Y-75418604D01*
X132974000Y-75374462D01*
X132974000Y-74425538D01*
X132978347Y-74381396D01*
X132989432Y-74344855D01*
X133007431Y-74311180D01*
X133031659Y-74281659D01*
X133061180Y-74257431D01*
X133094855Y-74239432D01*
X133131396Y-74228347D01*
X133175538Y-74224000D01*
X134624462Y-74224000D01*
X134668604Y-74228347D01*
X134668604Y-74228347D01*
G37*
G36*
X142968604Y-73328347D02*
X143005145Y-73339432D01*
X143038820Y-73357431D01*
X143068341Y-73381659D01*
X143092569Y-73411180D01*
X143110568Y-73444855D01*
X143121653Y-73481396D01*
X143126000Y-73525538D01*
X143126000Y-74474462D01*
X143121653Y-74518604D01*
X143110568Y-74555145D01*
X143092569Y-74588820D01*
X143068341Y-74618341D01*
X143038820Y-74642569D01*
X143005145Y-74660568D01*
X142968604Y-74671653D01*
X142924462Y-74676000D01*
X141475538Y-74676000D01*
X141431396Y-74671653D01*
X141394855Y-74660568D01*
X141361180Y-74642569D01*
X141331659Y-74618341D01*
X141307431Y-74588820D01*
X141289432Y-74555145D01*
X141278347Y-74518604D01*
X141274000Y-74474462D01*
X141274000Y-73525538D01*
X141278347Y-73481396D01*
X141289432Y-73444855D01*
X141307431Y-73411180D01*
X141331659Y-73381659D01*
X141361180Y-73357431D01*
X141394855Y-73339432D01*
X141431396Y-73328347D01*
X141475538Y-73324000D01*
X142924462Y-73324000D01*
X142968604Y-73328347D01*
X142968604Y-73328347D01*
G37*
G36*
X130650442Y-71305518D02*
X130716627Y-71312037D01*
X130829853Y-71346384D01*
X130886467Y-71363557D01*
X131025087Y-71437652D01*
X131042991Y-71447222D01*
X131078729Y-71476552D01*
X131180186Y-71559814D01*
X131263448Y-71661271D01*
X131292778Y-71697009D01*
X131292779Y-71697011D01*
X131376443Y-71853533D01*
X131376443Y-71853534D01*
X131427963Y-72023373D01*
X131445359Y-72200000D01*
X131427963Y-72376627D01*
X131393616Y-72489853D01*
X131376443Y-72546467D01*
X131320568Y-72651000D01*
X131292778Y-72702991D01*
X131263448Y-72738729D01*
X131180186Y-72840186D01*
X131078729Y-72923448D01*
X131042991Y-72952778D01*
X131042989Y-72952779D01*
X130886467Y-73036443D01*
X130829853Y-73053616D01*
X130716627Y-73087963D01*
X130650442Y-73094482D01*
X130584260Y-73101000D01*
X130495740Y-73101000D01*
X130429558Y-73094482D01*
X130363373Y-73087963D01*
X130250147Y-73053616D01*
X130193533Y-73036443D01*
X130037011Y-72952779D01*
X130037009Y-72952778D01*
X130001271Y-72923448D01*
X129899814Y-72840186D01*
X129816552Y-72738729D01*
X129787222Y-72702991D01*
X129759432Y-72651000D01*
X129703557Y-72546467D01*
X129686384Y-72489853D01*
X129652037Y-72376627D01*
X129634641Y-72200000D01*
X129652037Y-72023373D01*
X129703557Y-71853534D01*
X129703557Y-71853533D01*
X129787221Y-71697011D01*
X129787222Y-71697009D01*
X129816552Y-71661271D01*
X129899814Y-71559814D01*
X130001271Y-71476552D01*
X130037009Y-71447222D01*
X130054913Y-71437652D01*
X130193533Y-71363557D01*
X130250147Y-71346384D01*
X130363373Y-71312037D01*
X130429558Y-71305518D01*
X130495740Y-71299000D01*
X130584260Y-71299000D01*
X130650442Y-71305518D01*
X130650442Y-71305518D01*
G37*
G36*
X133190442Y-71305518D02*
X133256627Y-71312037D01*
X133369853Y-71346384D01*
X133426467Y-71363557D01*
X133565087Y-71437652D01*
X133582991Y-71447222D01*
X133618729Y-71476552D01*
X133720186Y-71559814D01*
X133803448Y-71661271D01*
X133832778Y-71697009D01*
X133832779Y-71697011D01*
X133916443Y-71853533D01*
X133916443Y-71853534D01*
X133967963Y-72023373D01*
X133985359Y-72200000D01*
X133967963Y-72376627D01*
X133933616Y-72489853D01*
X133916443Y-72546467D01*
X133860568Y-72651000D01*
X133832778Y-72702991D01*
X133803448Y-72738729D01*
X133720186Y-72840186D01*
X133618729Y-72923448D01*
X133582991Y-72952778D01*
X133582989Y-72952779D01*
X133426467Y-73036443D01*
X133369853Y-73053616D01*
X133256627Y-73087963D01*
X133190442Y-73094482D01*
X133124260Y-73101000D01*
X133035740Y-73101000D01*
X132969558Y-73094482D01*
X132903373Y-73087963D01*
X132790147Y-73053616D01*
X132733533Y-73036443D01*
X132577011Y-72952779D01*
X132577009Y-72952778D01*
X132541271Y-72923448D01*
X132439814Y-72840186D01*
X132356552Y-72738729D01*
X132327222Y-72702991D01*
X132299432Y-72651000D01*
X132243557Y-72546467D01*
X132226384Y-72489853D01*
X132192037Y-72376627D01*
X132174641Y-72200000D01*
X132192037Y-72023373D01*
X132243557Y-71853534D01*
X132243557Y-71853533D01*
X132327221Y-71697011D01*
X132327222Y-71697009D01*
X132356552Y-71661271D01*
X132439814Y-71559814D01*
X132541271Y-71476552D01*
X132577009Y-71447222D01*
X132594913Y-71437652D01*
X132733533Y-71363557D01*
X132790147Y-71346384D01*
X132903373Y-71312037D01*
X132969558Y-71305518D01*
X133035740Y-71299000D01*
X133124260Y-71299000D01*
X133190442Y-71305518D01*
X133190442Y-71305518D01*
G37*
G36*
X128901000Y-73101000D02*
X127099000Y-73101000D01*
X127099000Y-71299000D01*
X128901000Y-71299000D01*
X128901000Y-73101000D01*
X128901000Y-73101000D01*
G37*
G36*
X140251000Y-72651000D02*
X138749000Y-72651000D01*
X138749000Y-70949000D01*
X140251000Y-70949000D01*
X140251000Y-72651000D01*
X140251000Y-72651000D01*
G37*
G36*
X137251000Y-72651000D02*
X135749000Y-72651000D01*
X135749000Y-70949000D01*
X137251000Y-70949000D01*
X137251000Y-72651000D01*
X137251000Y-72651000D01*
G37*
M02*
