G04 #@! TF.GenerationSoftware,KiCad,Pcbnew,(5.0.1)-4*
G04 #@! TF.CreationDate,2019-02-18T18:34:45+08:00*
G04 #@! TF.ProjectId,Xiaomi2Ali-Smart-Plug-WIFI-Module,5869616F6D6932416C692D536D617274,rev?*
G04 #@! TF.SameCoordinates,Original*
G04 #@! TF.FileFunction,Soldermask,Bot*
G04 #@! TF.FilePolarity,Negative*
%FSLAX46Y46*%
G04 Gerber Fmt 4.6, Leading zero omitted, Abs format (unit mm)*
G04 Created by KiCad (PCBNEW (5.0.1)-4) date 2019/2/18 18:34:45*
%MOMM*%
%LPD*%
G01*
G04 APERTURE LIST*
%ADD10C,0.100000*%
G04 APERTURE END LIST*
D10*
G36*
X153830442Y-113905518D02*
X153896627Y-113912037D01*
X154009853Y-113946384D01*
X154066467Y-113963557D01*
X154205087Y-114037652D01*
X154222991Y-114047222D01*
X154258729Y-114076552D01*
X154360186Y-114159814D01*
X154443448Y-114261271D01*
X154472778Y-114297009D01*
X154472779Y-114297011D01*
X154556443Y-114453533D01*
X154556443Y-114453534D01*
X154607963Y-114623373D01*
X154625359Y-114800000D01*
X154607963Y-114976627D01*
X154573616Y-115089853D01*
X154556443Y-115146467D01*
X154482348Y-115285087D01*
X154472778Y-115302991D01*
X154443448Y-115338729D01*
X154360186Y-115440186D01*
X154258729Y-115523448D01*
X154222991Y-115552778D01*
X154222989Y-115552779D01*
X154066467Y-115636443D01*
X154009853Y-115653616D01*
X153896627Y-115687963D01*
X153830442Y-115694482D01*
X153764260Y-115701000D01*
X153675740Y-115701000D01*
X153609558Y-115694482D01*
X153543373Y-115687963D01*
X153430147Y-115653616D01*
X153373533Y-115636443D01*
X153217011Y-115552779D01*
X153217009Y-115552778D01*
X153181271Y-115523448D01*
X153079814Y-115440186D01*
X152996552Y-115338729D01*
X152967222Y-115302991D01*
X152957652Y-115285087D01*
X152883557Y-115146467D01*
X152866384Y-115089853D01*
X152832037Y-114976627D01*
X152814641Y-114800000D01*
X152832037Y-114623373D01*
X152883557Y-114453534D01*
X152883557Y-114453533D01*
X152967221Y-114297011D01*
X152967222Y-114297009D01*
X152996552Y-114261271D01*
X153079814Y-114159814D01*
X153181271Y-114076552D01*
X153217009Y-114047222D01*
X153234913Y-114037652D01*
X153373533Y-113963557D01*
X153430147Y-113946384D01*
X153543373Y-113912037D01*
X153609558Y-113905518D01*
X153675740Y-113899000D01*
X153764260Y-113899000D01*
X153830442Y-113905518D01*
X153830442Y-113905518D01*
G37*
G36*
X159701000Y-115701000D02*
X157899000Y-115701000D01*
X157899000Y-113899000D01*
X159701000Y-113899000D01*
X159701000Y-115701000D01*
X159701000Y-115701000D01*
G37*
G36*
X156370442Y-113905518D02*
X156436627Y-113912037D01*
X156549853Y-113946384D01*
X156606467Y-113963557D01*
X156745087Y-114037652D01*
X156762991Y-114047222D01*
X156798729Y-114076552D01*
X156900186Y-114159814D01*
X156983448Y-114261271D01*
X157012778Y-114297009D01*
X157012779Y-114297011D01*
X157096443Y-114453533D01*
X157096443Y-114453534D01*
X157147963Y-114623373D01*
X157165359Y-114800000D01*
X157147963Y-114976627D01*
X157113616Y-115089853D01*
X157096443Y-115146467D01*
X157022348Y-115285087D01*
X157012778Y-115302991D01*
X156983448Y-115338729D01*
X156900186Y-115440186D01*
X156798729Y-115523448D01*
X156762991Y-115552778D01*
X156762989Y-115552779D01*
X156606467Y-115636443D01*
X156549853Y-115653616D01*
X156436627Y-115687963D01*
X156370442Y-115694482D01*
X156304260Y-115701000D01*
X156215740Y-115701000D01*
X156149558Y-115694482D01*
X156083373Y-115687963D01*
X155970147Y-115653616D01*
X155913533Y-115636443D01*
X155757011Y-115552779D01*
X155757009Y-115552778D01*
X155721271Y-115523448D01*
X155619814Y-115440186D01*
X155536552Y-115338729D01*
X155507222Y-115302991D01*
X155497652Y-115285087D01*
X155423557Y-115146467D01*
X155406384Y-115089853D01*
X155372037Y-114976627D01*
X155354641Y-114800000D01*
X155372037Y-114623373D01*
X155423557Y-114453534D01*
X155423557Y-114453533D01*
X155507221Y-114297011D01*
X155507222Y-114297009D01*
X155536552Y-114261271D01*
X155619814Y-114159814D01*
X155721271Y-114076552D01*
X155757009Y-114047222D01*
X155774913Y-114037652D01*
X155913533Y-113963557D01*
X155970147Y-113946384D01*
X156083373Y-113912037D01*
X156149558Y-113905518D01*
X156215740Y-113899000D01*
X156304260Y-113899000D01*
X156370442Y-113905518D01*
X156370442Y-113905518D01*
G37*
G36*
X144226000Y-100226000D02*
X142574000Y-100226000D01*
X142574000Y-98774000D01*
X144226000Y-98774000D01*
X144226000Y-100226000D01*
X144226000Y-100226000D01*
G37*
G36*
X144226000Y-98226000D02*
X142574000Y-98226000D01*
X142574000Y-96774000D01*
X144226000Y-96774000D01*
X144226000Y-98226000D01*
X144226000Y-98226000D01*
G37*
G36*
X144226000Y-96226000D02*
X142574000Y-96226000D01*
X142574000Y-94774000D01*
X144226000Y-94774000D01*
X144226000Y-96226000D01*
X144226000Y-96226000D01*
G37*
G36*
X144226000Y-94226000D02*
X142574000Y-94226000D01*
X142574000Y-92774000D01*
X144226000Y-92774000D01*
X144226000Y-94226000D01*
X144226000Y-94226000D01*
G37*
G36*
X144226000Y-92226000D02*
X142574000Y-92226000D01*
X142574000Y-90774000D01*
X144226000Y-90774000D01*
X144226000Y-92226000D01*
X144226000Y-92226000D01*
G37*
G36*
X144226000Y-90226000D02*
X142574000Y-90226000D01*
X142574000Y-88774000D01*
X144226000Y-88774000D01*
X144226000Y-90226000D01*
X144226000Y-90226000D01*
G37*
G36*
X144226000Y-88226000D02*
X142574000Y-88226000D01*
X142574000Y-86774000D01*
X144226000Y-86774000D01*
X144226000Y-88226000D01*
X144226000Y-88226000D01*
G37*
G36*
X128901000Y-73101000D02*
X127099000Y-73101000D01*
X127099000Y-71299000D01*
X128901000Y-71299000D01*
X128901000Y-73101000D01*
X128901000Y-73101000D01*
G37*
G36*
X130650442Y-71305518D02*
X130716627Y-71312037D01*
X130829853Y-71346384D01*
X130886467Y-71363557D01*
X131025087Y-71437652D01*
X131042991Y-71447222D01*
X131078729Y-71476552D01*
X131180186Y-71559814D01*
X131263448Y-71661271D01*
X131292778Y-71697009D01*
X131292779Y-71697011D01*
X131376443Y-71853533D01*
X131376443Y-71853534D01*
X131427963Y-72023373D01*
X131445359Y-72200000D01*
X131427963Y-72376627D01*
X131393616Y-72489853D01*
X131376443Y-72546467D01*
X131302348Y-72685087D01*
X131292778Y-72702991D01*
X131263448Y-72738729D01*
X131180186Y-72840186D01*
X131078729Y-72923448D01*
X131042991Y-72952778D01*
X131042989Y-72952779D01*
X130886467Y-73036443D01*
X130829853Y-73053616D01*
X130716627Y-73087963D01*
X130650442Y-73094482D01*
X130584260Y-73101000D01*
X130495740Y-73101000D01*
X130429558Y-73094482D01*
X130363373Y-73087963D01*
X130250147Y-73053616D01*
X130193533Y-73036443D01*
X130037011Y-72952779D01*
X130037009Y-72952778D01*
X130001271Y-72923448D01*
X129899814Y-72840186D01*
X129816552Y-72738729D01*
X129787222Y-72702991D01*
X129777652Y-72685087D01*
X129703557Y-72546467D01*
X129686384Y-72489853D01*
X129652037Y-72376627D01*
X129634641Y-72200000D01*
X129652037Y-72023373D01*
X129703557Y-71853534D01*
X129703557Y-71853533D01*
X129787221Y-71697011D01*
X129787222Y-71697009D01*
X129816552Y-71661271D01*
X129899814Y-71559814D01*
X130001271Y-71476552D01*
X130037009Y-71447222D01*
X130054913Y-71437652D01*
X130193533Y-71363557D01*
X130250147Y-71346384D01*
X130363373Y-71312037D01*
X130429558Y-71305518D01*
X130495740Y-71299000D01*
X130584260Y-71299000D01*
X130650442Y-71305518D01*
X130650442Y-71305518D01*
G37*
G36*
X133190442Y-71305518D02*
X133256627Y-71312037D01*
X133369853Y-71346384D01*
X133426467Y-71363557D01*
X133565087Y-71437652D01*
X133582991Y-71447222D01*
X133618729Y-71476552D01*
X133720186Y-71559814D01*
X133803448Y-71661271D01*
X133832778Y-71697009D01*
X133832779Y-71697011D01*
X133916443Y-71853533D01*
X133916443Y-71853534D01*
X133967963Y-72023373D01*
X133985359Y-72200000D01*
X133967963Y-72376627D01*
X133933616Y-72489853D01*
X133916443Y-72546467D01*
X133842348Y-72685087D01*
X133832778Y-72702991D01*
X133803448Y-72738729D01*
X133720186Y-72840186D01*
X133618729Y-72923448D01*
X133582991Y-72952778D01*
X133582989Y-72952779D01*
X133426467Y-73036443D01*
X133369853Y-73053616D01*
X133256627Y-73087963D01*
X133190442Y-73094482D01*
X133124260Y-73101000D01*
X133035740Y-73101000D01*
X132969558Y-73094482D01*
X132903373Y-73087963D01*
X132790147Y-73053616D01*
X132733533Y-73036443D01*
X132577011Y-72952779D01*
X132577009Y-72952778D01*
X132541271Y-72923448D01*
X132439814Y-72840186D01*
X132356552Y-72738729D01*
X132327222Y-72702991D01*
X132317652Y-72685087D01*
X132243557Y-72546467D01*
X132226384Y-72489853D01*
X132192037Y-72376627D01*
X132174641Y-72200000D01*
X132192037Y-72023373D01*
X132243557Y-71853534D01*
X132243557Y-71853533D01*
X132327221Y-71697011D01*
X132327222Y-71697009D01*
X132356552Y-71661271D01*
X132439814Y-71559814D01*
X132541271Y-71476552D01*
X132577009Y-71447222D01*
X132594913Y-71437652D01*
X132733533Y-71363557D01*
X132790147Y-71346384D01*
X132903373Y-71312037D01*
X132969558Y-71305518D01*
X133035740Y-71299000D01*
X133124260Y-71299000D01*
X133190442Y-71305518D01*
X133190442Y-71305518D01*
G37*
M02*
