G04 #@! TF.GenerationSoftware,KiCad,Pcbnew,(5.0.1)-4*
G04 #@! TF.CreationDate,2019-02-20T00:21:43+08:00*
G04 #@! TF.ProjectId,Xiaomi2Ali-Smart-Plug-WIFI-Module,5869616F6D6932416C692D536D617274,rev?*
G04 #@! TF.SameCoordinates,Original*
G04 #@! TF.FileFunction,Copper,L1,Top,Signal*
G04 #@! TF.FilePolarity,Positive*
%FSLAX46Y46*%
G04 Gerber Fmt 4.6, Leading zero omitted, Abs format (unit mm)*
G04 Created by KiCad (PCBNEW (5.0.1)-4) date 2019/2/20 0:21:43*
%MOMM*%
%LPD*%
G01*
G04 APERTURE LIST*
G04 #@! TA.AperFunction,Conductor*
%ADD10C,0.100000*%
G04 #@! TD*
G04 #@! TA.AperFunction,SMDPad,CuDef*
%ADD11C,1.250000*%
G04 #@! TD*
G04 #@! TA.AperFunction,ComponentPad*
%ADD12R,1.700000X1.700000*%
G04 #@! TD*
G04 #@! TA.AperFunction,ComponentPad*
%ADD13O,1.700000X1.700000*%
G04 #@! TD*
G04 #@! TA.AperFunction,SMDPad,CuDef*
%ADD14R,1.400000X1.600000*%
G04 #@! TD*
G04 #@! TA.AperFunction,ComponentPad*
%ADD15R,1.350000X1.350000*%
G04 #@! TD*
G04 #@! TA.AperFunction,ViaPad*
%ADD16C,0.800000*%
G04 #@! TD*
G04 #@! TA.AperFunction,Conductor*
%ADD17C,0.250000*%
G04 #@! TD*
G04 APERTURE END LIST*
D10*
G04 #@! TO.N,Net-(D1-Pad1)*
G04 #@! TO.C,blue*
G36*
X142849504Y-76176204D02*
X142873773Y-76179804D01*
X142897571Y-76185765D01*
X142920671Y-76194030D01*
X142942849Y-76204520D01*
X142963893Y-76217133D01*
X142983598Y-76231747D01*
X143001777Y-76248223D01*
X143018253Y-76266402D01*
X143032867Y-76286107D01*
X143045480Y-76307151D01*
X143055970Y-76329329D01*
X143064235Y-76352429D01*
X143070196Y-76376227D01*
X143073796Y-76400496D01*
X143075000Y-76425000D01*
X143075000Y-77175000D01*
X143073796Y-77199504D01*
X143070196Y-77223773D01*
X143064235Y-77247571D01*
X143055970Y-77270671D01*
X143045480Y-77292849D01*
X143032867Y-77313893D01*
X143018253Y-77333598D01*
X143001777Y-77351777D01*
X142983598Y-77368253D01*
X142963893Y-77382867D01*
X142942849Y-77395480D01*
X142920671Y-77405970D01*
X142897571Y-77414235D01*
X142873773Y-77420196D01*
X142849504Y-77423796D01*
X142825000Y-77425000D01*
X141575000Y-77425000D01*
X141550496Y-77423796D01*
X141526227Y-77420196D01*
X141502429Y-77414235D01*
X141479329Y-77405970D01*
X141457151Y-77395480D01*
X141436107Y-77382867D01*
X141416402Y-77368253D01*
X141398223Y-77351777D01*
X141381747Y-77333598D01*
X141367133Y-77313893D01*
X141354520Y-77292849D01*
X141344030Y-77270671D01*
X141335765Y-77247571D01*
X141329804Y-77223773D01*
X141326204Y-77199504D01*
X141325000Y-77175000D01*
X141325000Y-76425000D01*
X141326204Y-76400496D01*
X141329804Y-76376227D01*
X141335765Y-76352429D01*
X141344030Y-76329329D01*
X141354520Y-76307151D01*
X141367133Y-76286107D01*
X141381747Y-76266402D01*
X141398223Y-76248223D01*
X141416402Y-76231747D01*
X141436107Y-76217133D01*
X141457151Y-76204520D01*
X141479329Y-76194030D01*
X141502429Y-76185765D01*
X141526227Y-76179804D01*
X141550496Y-76176204D01*
X141575000Y-76175000D01*
X142825000Y-76175000D01*
X142849504Y-76176204D01*
X142849504Y-76176204D01*
G37*
D11*
G04 #@! TD*
G04 #@! TO.P,blue,1*
G04 #@! TO.N,Net-(D1-Pad1)*
X142200000Y-76800000D03*
D10*
G04 #@! TO.N,VCC*
G04 #@! TO.C,blue*
G36*
X142849504Y-73376204D02*
X142873773Y-73379804D01*
X142897571Y-73385765D01*
X142920671Y-73394030D01*
X142942849Y-73404520D01*
X142963893Y-73417133D01*
X142983598Y-73431747D01*
X143001777Y-73448223D01*
X143018253Y-73466402D01*
X143032867Y-73486107D01*
X143045480Y-73507151D01*
X143055970Y-73529329D01*
X143064235Y-73552429D01*
X143070196Y-73576227D01*
X143073796Y-73600496D01*
X143075000Y-73625000D01*
X143075000Y-74375000D01*
X143073796Y-74399504D01*
X143070196Y-74423773D01*
X143064235Y-74447571D01*
X143055970Y-74470671D01*
X143045480Y-74492849D01*
X143032867Y-74513893D01*
X143018253Y-74533598D01*
X143001777Y-74551777D01*
X142983598Y-74568253D01*
X142963893Y-74582867D01*
X142942849Y-74595480D01*
X142920671Y-74605970D01*
X142897571Y-74614235D01*
X142873773Y-74620196D01*
X142849504Y-74623796D01*
X142825000Y-74625000D01*
X141575000Y-74625000D01*
X141550496Y-74623796D01*
X141526227Y-74620196D01*
X141502429Y-74614235D01*
X141479329Y-74605970D01*
X141457151Y-74595480D01*
X141436107Y-74582867D01*
X141416402Y-74568253D01*
X141398223Y-74551777D01*
X141381747Y-74533598D01*
X141367133Y-74513893D01*
X141354520Y-74492849D01*
X141344030Y-74470671D01*
X141335765Y-74447571D01*
X141329804Y-74423773D01*
X141326204Y-74399504D01*
X141325000Y-74375000D01*
X141325000Y-73625000D01*
X141326204Y-73600496D01*
X141329804Y-73576227D01*
X141335765Y-73552429D01*
X141344030Y-73529329D01*
X141354520Y-73507151D01*
X141367133Y-73486107D01*
X141381747Y-73466402D01*
X141398223Y-73448223D01*
X141416402Y-73431747D01*
X141436107Y-73417133D01*
X141457151Y-73404520D01*
X141479329Y-73394030D01*
X141502429Y-73385765D01*
X141526227Y-73379804D01*
X141550496Y-73376204D01*
X141575000Y-73375000D01*
X142825000Y-73375000D01*
X142849504Y-73376204D01*
X142849504Y-73376204D01*
G37*
D11*
G04 #@! TD*
G04 #@! TO.P,blue,2*
G04 #@! TO.N,VCC*
X142200000Y-74000000D03*
D10*
G04 #@! TO.N,VCC*
G04 #@! TO.C,yellow*
G36*
X134549504Y-74276204D02*
X134573773Y-74279804D01*
X134597571Y-74285765D01*
X134620671Y-74294030D01*
X134642849Y-74304520D01*
X134663893Y-74317133D01*
X134683598Y-74331747D01*
X134701777Y-74348223D01*
X134718253Y-74366402D01*
X134732867Y-74386107D01*
X134745480Y-74407151D01*
X134755970Y-74429329D01*
X134764235Y-74452429D01*
X134770196Y-74476227D01*
X134773796Y-74500496D01*
X134775000Y-74525000D01*
X134775000Y-75275000D01*
X134773796Y-75299504D01*
X134770196Y-75323773D01*
X134764235Y-75347571D01*
X134755970Y-75370671D01*
X134745480Y-75392849D01*
X134732867Y-75413893D01*
X134718253Y-75433598D01*
X134701777Y-75451777D01*
X134683598Y-75468253D01*
X134663893Y-75482867D01*
X134642849Y-75495480D01*
X134620671Y-75505970D01*
X134597571Y-75514235D01*
X134573773Y-75520196D01*
X134549504Y-75523796D01*
X134525000Y-75525000D01*
X133275000Y-75525000D01*
X133250496Y-75523796D01*
X133226227Y-75520196D01*
X133202429Y-75514235D01*
X133179329Y-75505970D01*
X133157151Y-75495480D01*
X133136107Y-75482867D01*
X133116402Y-75468253D01*
X133098223Y-75451777D01*
X133081747Y-75433598D01*
X133067133Y-75413893D01*
X133054520Y-75392849D01*
X133044030Y-75370671D01*
X133035765Y-75347571D01*
X133029804Y-75323773D01*
X133026204Y-75299504D01*
X133025000Y-75275000D01*
X133025000Y-74525000D01*
X133026204Y-74500496D01*
X133029804Y-74476227D01*
X133035765Y-74452429D01*
X133044030Y-74429329D01*
X133054520Y-74407151D01*
X133067133Y-74386107D01*
X133081747Y-74366402D01*
X133098223Y-74348223D01*
X133116402Y-74331747D01*
X133136107Y-74317133D01*
X133157151Y-74304520D01*
X133179329Y-74294030D01*
X133202429Y-74285765D01*
X133226227Y-74279804D01*
X133250496Y-74276204D01*
X133275000Y-74275000D01*
X134525000Y-74275000D01*
X134549504Y-74276204D01*
X134549504Y-74276204D01*
G37*
D11*
G04 #@! TD*
G04 #@! TO.P,yellow,2*
G04 #@! TO.N,VCC*
X133900000Y-74900000D03*
D10*
G04 #@! TO.N,Net-(D2-Pad1)*
G04 #@! TO.C,yellow*
G36*
X134549504Y-77076204D02*
X134573773Y-77079804D01*
X134597571Y-77085765D01*
X134620671Y-77094030D01*
X134642849Y-77104520D01*
X134663893Y-77117133D01*
X134683598Y-77131747D01*
X134701777Y-77148223D01*
X134718253Y-77166402D01*
X134732867Y-77186107D01*
X134745480Y-77207151D01*
X134755970Y-77229329D01*
X134764235Y-77252429D01*
X134770196Y-77276227D01*
X134773796Y-77300496D01*
X134775000Y-77325000D01*
X134775000Y-78075000D01*
X134773796Y-78099504D01*
X134770196Y-78123773D01*
X134764235Y-78147571D01*
X134755970Y-78170671D01*
X134745480Y-78192849D01*
X134732867Y-78213893D01*
X134718253Y-78233598D01*
X134701777Y-78251777D01*
X134683598Y-78268253D01*
X134663893Y-78282867D01*
X134642849Y-78295480D01*
X134620671Y-78305970D01*
X134597571Y-78314235D01*
X134573773Y-78320196D01*
X134549504Y-78323796D01*
X134525000Y-78325000D01*
X133275000Y-78325000D01*
X133250496Y-78323796D01*
X133226227Y-78320196D01*
X133202429Y-78314235D01*
X133179329Y-78305970D01*
X133157151Y-78295480D01*
X133136107Y-78282867D01*
X133116402Y-78268253D01*
X133098223Y-78251777D01*
X133081747Y-78233598D01*
X133067133Y-78213893D01*
X133054520Y-78192849D01*
X133044030Y-78170671D01*
X133035765Y-78147571D01*
X133029804Y-78123773D01*
X133026204Y-78099504D01*
X133025000Y-78075000D01*
X133025000Y-77325000D01*
X133026204Y-77300496D01*
X133029804Y-77276227D01*
X133035765Y-77252429D01*
X133044030Y-77229329D01*
X133054520Y-77207151D01*
X133067133Y-77186107D01*
X133081747Y-77166402D01*
X133098223Y-77148223D01*
X133116402Y-77131747D01*
X133136107Y-77117133D01*
X133157151Y-77104520D01*
X133179329Y-77094030D01*
X133202429Y-77085765D01*
X133226227Y-77079804D01*
X133250496Y-77076204D01*
X133275000Y-77075000D01*
X134525000Y-77075000D01*
X134549504Y-77076204D01*
X134549504Y-77076204D01*
G37*
D11*
G04 #@! TD*
G04 #@! TO.P,yellow,1*
G04 #@! TO.N,Net-(D2-Pad1)*
X133900000Y-77700000D03*
D12*
G04 #@! TO.P,J2,1*
G04 #@! TO.N,Net-(J1-Pad6)*
X128000000Y-72200000D03*
D13*
G04 #@! TO.P,J2,2*
G04 #@! TO.N,VCC*
X130540000Y-72200000D03*
G04 #@! TO.P,J2,3*
G04 #@! TO.N,GND*
X133080000Y-72200000D03*
G04 #@! TD*
D10*
G04 #@! TO.N,Net-(J1-Pad4)*
G04 #@! TO.C,R1*
G36*
X138649504Y-84276204D02*
X138673773Y-84279804D01*
X138697571Y-84285765D01*
X138720671Y-84294030D01*
X138742849Y-84304520D01*
X138763893Y-84317133D01*
X138783598Y-84331747D01*
X138801777Y-84348223D01*
X138818253Y-84366402D01*
X138832867Y-84386107D01*
X138845480Y-84407151D01*
X138855970Y-84429329D01*
X138864235Y-84452429D01*
X138870196Y-84476227D01*
X138873796Y-84500496D01*
X138875000Y-84525000D01*
X138875000Y-85275000D01*
X138873796Y-85299504D01*
X138870196Y-85323773D01*
X138864235Y-85347571D01*
X138855970Y-85370671D01*
X138845480Y-85392849D01*
X138832867Y-85413893D01*
X138818253Y-85433598D01*
X138801777Y-85451777D01*
X138783598Y-85468253D01*
X138763893Y-85482867D01*
X138742849Y-85495480D01*
X138720671Y-85505970D01*
X138697571Y-85514235D01*
X138673773Y-85520196D01*
X138649504Y-85523796D01*
X138625000Y-85525000D01*
X137375000Y-85525000D01*
X137350496Y-85523796D01*
X137326227Y-85520196D01*
X137302429Y-85514235D01*
X137279329Y-85505970D01*
X137257151Y-85495480D01*
X137236107Y-85482867D01*
X137216402Y-85468253D01*
X137198223Y-85451777D01*
X137181747Y-85433598D01*
X137167133Y-85413893D01*
X137154520Y-85392849D01*
X137144030Y-85370671D01*
X137135765Y-85347571D01*
X137129804Y-85323773D01*
X137126204Y-85299504D01*
X137125000Y-85275000D01*
X137125000Y-84525000D01*
X137126204Y-84500496D01*
X137129804Y-84476227D01*
X137135765Y-84452429D01*
X137144030Y-84429329D01*
X137154520Y-84407151D01*
X137167133Y-84386107D01*
X137181747Y-84366402D01*
X137198223Y-84348223D01*
X137216402Y-84331747D01*
X137236107Y-84317133D01*
X137257151Y-84304520D01*
X137279329Y-84294030D01*
X137302429Y-84285765D01*
X137326227Y-84279804D01*
X137350496Y-84276204D01*
X137375000Y-84275000D01*
X138625000Y-84275000D01*
X138649504Y-84276204D01*
X138649504Y-84276204D01*
G37*
D11*
G04 #@! TD*
G04 #@! TO.P,R1,1*
G04 #@! TO.N,Net-(J1-Pad4)*
X138000000Y-84900000D03*
D10*
G04 #@! TO.N,Net-(D1-Pad1)*
G04 #@! TO.C,R1*
G36*
X138649504Y-81476204D02*
X138673773Y-81479804D01*
X138697571Y-81485765D01*
X138720671Y-81494030D01*
X138742849Y-81504520D01*
X138763893Y-81517133D01*
X138783598Y-81531747D01*
X138801777Y-81548223D01*
X138818253Y-81566402D01*
X138832867Y-81586107D01*
X138845480Y-81607151D01*
X138855970Y-81629329D01*
X138864235Y-81652429D01*
X138870196Y-81676227D01*
X138873796Y-81700496D01*
X138875000Y-81725000D01*
X138875000Y-82475000D01*
X138873796Y-82499504D01*
X138870196Y-82523773D01*
X138864235Y-82547571D01*
X138855970Y-82570671D01*
X138845480Y-82592849D01*
X138832867Y-82613893D01*
X138818253Y-82633598D01*
X138801777Y-82651777D01*
X138783598Y-82668253D01*
X138763893Y-82682867D01*
X138742849Y-82695480D01*
X138720671Y-82705970D01*
X138697571Y-82714235D01*
X138673773Y-82720196D01*
X138649504Y-82723796D01*
X138625000Y-82725000D01*
X137375000Y-82725000D01*
X137350496Y-82723796D01*
X137326227Y-82720196D01*
X137302429Y-82714235D01*
X137279329Y-82705970D01*
X137257151Y-82695480D01*
X137236107Y-82682867D01*
X137216402Y-82668253D01*
X137198223Y-82651777D01*
X137181747Y-82633598D01*
X137167133Y-82613893D01*
X137154520Y-82592849D01*
X137144030Y-82570671D01*
X137135765Y-82547571D01*
X137129804Y-82523773D01*
X137126204Y-82499504D01*
X137125000Y-82475000D01*
X137125000Y-81725000D01*
X137126204Y-81700496D01*
X137129804Y-81676227D01*
X137135765Y-81652429D01*
X137144030Y-81629329D01*
X137154520Y-81607151D01*
X137167133Y-81586107D01*
X137181747Y-81566402D01*
X137198223Y-81548223D01*
X137216402Y-81531747D01*
X137236107Y-81517133D01*
X137257151Y-81504520D01*
X137279329Y-81494030D01*
X137302429Y-81485765D01*
X137326227Y-81479804D01*
X137350496Y-81476204D01*
X137375000Y-81475000D01*
X138625000Y-81475000D01*
X138649504Y-81476204D01*
X138649504Y-81476204D01*
G37*
D11*
G04 #@! TD*
G04 #@! TO.P,R1,2*
G04 #@! TO.N,Net-(D1-Pad1)*
X138000000Y-82100000D03*
D10*
G04 #@! TO.N,Net-(D2-Pad1)*
G04 #@! TO.C,R2*
G36*
X134549504Y-81476204D02*
X134573773Y-81479804D01*
X134597571Y-81485765D01*
X134620671Y-81494030D01*
X134642849Y-81504520D01*
X134663893Y-81517133D01*
X134683598Y-81531747D01*
X134701777Y-81548223D01*
X134718253Y-81566402D01*
X134732867Y-81586107D01*
X134745480Y-81607151D01*
X134755970Y-81629329D01*
X134764235Y-81652429D01*
X134770196Y-81676227D01*
X134773796Y-81700496D01*
X134775000Y-81725000D01*
X134775000Y-82475000D01*
X134773796Y-82499504D01*
X134770196Y-82523773D01*
X134764235Y-82547571D01*
X134755970Y-82570671D01*
X134745480Y-82592849D01*
X134732867Y-82613893D01*
X134718253Y-82633598D01*
X134701777Y-82651777D01*
X134683598Y-82668253D01*
X134663893Y-82682867D01*
X134642849Y-82695480D01*
X134620671Y-82705970D01*
X134597571Y-82714235D01*
X134573773Y-82720196D01*
X134549504Y-82723796D01*
X134525000Y-82725000D01*
X133275000Y-82725000D01*
X133250496Y-82723796D01*
X133226227Y-82720196D01*
X133202429Y-82714235D01*
X133179329Y-82705970D01*
X133157151Y-82695480D01*
X133136107Y-82682867D01*
X133116402Y-82668253D01*
X133098223Y-82651777D01*
X133081747Y-82633598D01*
X133067133Y-82613893D01*
X133054520Y-82592849D01*
X133044030Y-82570671D01*
X133035765Y-82547571D01*
X133029804Y-82523773D01*
X133026204Y-82499504D01*
X133025000Y-82475000D01*
X133025000Y-81725000D01*
X133026204Y-81700496D01*
X133029804Y-81676227D01*
X133035765Y-81652429D01*
X133044030Y-81629329D01*
X133054520Y-81607151D01*
X133067133Y-81586107D01*
X133081747Y-81566402D01*
X133098223Y-81548223D01*
X133116402Y-81531747D01*
X133136107Y-81517133D01*
X133157151Y-81504520D01*
X133179329Y-81494030D01*
X133202429Y-81485765D01*
X133226227Y-81479804D01*
X133250496Y-81476204D01*
X133275000Y-81475000D01*
X134525000Y-81475000D01*
X134549504Y-81476204D01*
X134549504Y-81476204D01*
G37*
D11*
G04 #@! TD*
G04 #@! TO.P,R2,2*
G04 #@! TO.N,Net-(D2-Pad1)*
X133900000Y-82100000D03*
D10*
G04 #@! TO.N,Net-(J1-Pad5)*
G04 #@! TO.C,R2*
G36*
X134549504Y-84276204D02*
X134573773Y-84279804D01*
X134597571Y-84285765D01*
X134620671Y-84294030D01*
X134642849Y-84304520D01*
X134663893Y-84317133D01*
X134683598Y-84331747D01*
X134701777Y-84348223D01*
X134718253Y-84366402D01*
X134732867Y-84386107D01*
X134745480Y-84407151D01*
X134755970Y-84429329D01*
X134764235Y-84452429D01*
X134770196Y-84476227D01*
X134773796Y-84500496D01*
X134775000Y-84525000D01*
X134775000Y-85275000D01*
X134773796Y-85299504D01*
X134770196Y-85323773D01*
X134764235Y-85347571D01*
X134755970Y-85370671D01*
X134745480Y-85392849D01*
X134732867Y-85413893D01*
X134718253Y-85433598D01*
X134701777Y-85451777D01*
X134683598Y-85468253D01*
X134663893Y-85482867D01*
X134642849Y-85495480D01*
X134620671Y-85505970D01*
X134597571Y-85514235D01*
X134573773Y-85520196D01*
X134549504Y-85523796D01*
X134525000Y-85525000D01*
X133275000Y-85525000D01*
X133250496Y-85523796D01*
X133226227Y-85520196D01*
X133202429Y-85514235D01*
X133179329Y-85505970D01*
X133157151Y-85495480D01*
X133136107Y-85482867D01*
X133116402Y-85468253D01*
X133098223Y-85451777D01*
X133081747Y-85433598D01*
X133067133Y-85413893D01*
X133054520Y-85392849D01*
X133044030Y-85370671D01*
X133035765Y-85347571D01*
X133029804Y-85323773D01*
X133026204Y-85299504D01*
X133025000Y-85275000D01*
X133025000Y-84525000D01*
X133026204Y-84500496D01*
X133029804Y-84476227D01*
X133035765Y-84452429D01*
X133044030Y-84429329D01*
X133054520Y-84407151D01*
X133067133Y-84386107D01*
X133081747Y-84366402D01*
X133098223Y-84348223D01*
X133116402Y-84331747D01*
X133136107Y-84317133D01*
X133157151Y-84304520D01*
X133179329Y-84294030D01*
X133202429Y-84285765D01*
X133226227Y-84279804D01*
X133250496Y-84276204D01*
X133275000Y-84275000D01*
X134525000Y-84275000D01*
X134549504Y-84276204D01*
X134549504Y-84276204D01*
G37*
D11*
G04 #@! TD*
G04 #@! TO.P,R2,1*
G04 #@! TO.N,Net-(J1-Pad5)*
X133900000Y-84900000D03*
D14*
G04 #@! TO.P,SW1,1*
G04 #@! TO.N,GND*
X136500000Y-71800000D03*
X136500000Y-79000000D03*
G04 #@! TO.P,SW1,2*
G04 #@! TO.N,Net-(J1-Pad3)*
X139500000Y-71800000D03*
X139500000Y-79000000D03*
G04 #@! TD*
D15*
G04 #@! TO.P,J1,1*
G04 #@! TO.N,VCC*
X143100000Y-87500000D03*
G04 #@! TO.P,J1,2*
G04 #@! TO.N,GND*
X143100000Y-89500000D03*
G04 #@! TO.P,J1,3*
G04 #@! TO.N,Net-(J1-Pad3)*
X143100000Y-91500000D03*
G04 #@! TO.P,J1,4*
G04 #@! TO.N,Net-(J1-Pad4)*
X143100000Y-93500000D03*
G04 #@! TO.P,J1,5*
G04 #@! TO.N,Net-(J1-Pad5)*
X143100000Y-95500000D03*
G04 #@! TO.P,J1,6*
G04 #@! TO.N,Net-(J1-Pad6)*
X143100000Y-97500000D03*
G04 #@! TO.P,J1,7*
G04 #@! TO.N,Net-(J1-Pad7)*
X143100000Y-99500000D03*
G04 #@! TD*
D16*
G04 #@! TO.N,VCC*
X142200000Y-72000000D03*
G04 #@! TO.N,Net-(J1-Pad3)*
X141200000Y-79000000D03*
G04 #@! TD*
D17*
G04 #@! TO.N,Net-(D1-Pad1)*
X139800000Y-82100000D02*
X138000000Y-82100000D01*
X142200000Y-76800000D02*
X142200000Y-79700000D01*
X142200000Y-79700000D02*
X139800000Y-82100000D01*
G04 #@! TO.N,VCC*
X142200000Y-74000000D02*
X142200000Y-74000000D01*
X133240000Y-74900000D02*
X133900000Y-74900000D01*
X130540000Y-72200000D02*
X133240000Y-74900000D01*
X133900000Y-74900000D02*
X133900000Y-74900000D01*
X142200000Y-72000000D02*
X142200000Y-74000000D01*
G04 #@! TO.N,Net-(D2-Pad1)*
X133900000Y-77700000D02*
X133900000Y-82800000D01*
G04 #@! TO.N,GND*
X136100000Y-72200000D02*
X136500000Y-71800000D01*
X133080000Y-72200000D02*
X136100000Y-72200000D01*
X136500000Y-72850000D02*
X136500000Y-79000000D01*
X136500000Y-71800000D02*
X136500000Y-72850000D01*
X141500000Y-89500000D02*
X142674990Y-89500000D01*
X136500000Y-83100000D02*
X136900000Y-83500000D01*
X136500000Y-79000000D02*
X136500000Y-83100000D01*
X136900000Y-83500000D02*
X139100000Y-83500000D01*
X139100000Y-83500000D02*
X141000000Y-85400000D01*
X141000000Y-85400000D02*
X141000000Y-89000000D01*
X141000000Y-89000000D02*
X141500000Y-89500000D01*
G04 #@! TO.N,Net-(J1-Pad3)*
X139500000Y-72850000D02*
X139500000Y-79100000D01*
X139500000Y-71800000D02*
X139500000Y-72850000D01*
X139400000Y-79000000D02*
X141200000Y-79000000D01*
G04 #@! TO.N,Net-(J1-Pad4)*
X138000000Y-84900000D02*
X138000000Y-90000000D01*
X138000000Y-90000000D02*
X141500000Y-93500000D01*
X141500000Y-93500000D02*
X142674990Y-93500000D01*
G04 #@! TO.N,Net-(J1-Pad5)*
X133900000Y-84900000D02*
X133900000Y-88900000D01*
X133900000Y-88900000D02*
X140500000Y-95500000D01*
X140500000Y-95500000D02*
X142674990Y-95500000D01*
G04 #@! TO.N,Net-(J1-Pad6)*
X130000000Y-88000000D02*
X139500000Y-97500000D01*
X130000000Y-80000000D02*
X130000000Y-88000000D01*
X128000000Y-72200000D02*
X128000000Y-78000000D01*
X128000000Y-78000000D02*
X130000000Y-80000000D01*
X139500000Y-97500000D02*
X142674990Y-97500000D01*
G04 #@! TD*
M02*
