G04 #@! TF.GenerationSoftware,KiCad,Pcbnew,(5.0.1)-4*
G04 #@! TF.CreationDate,2019-02-22T14:36:10+08:00*
G04 #@! TF.ProjectId,Xiaomi2Ali-Smart-Plug-WIFI-Module,5869616F6D6932416C692D536D617274,rev?*
G04 #@! TF.SameCoordinates,Original*
G04 #@! TF.FileFunction,Copper,L1,Top,Signal*
G04 #@! TF.FilePolarity,Positive*
%FSLAX46Y46*%
G04 Gerber Fmt 4.6, Leading zero omitted, Abs format (unit mm)*
G04 Created by KiCad (PCBNEW (5.0.1)-4) date 2019/2/22 14:36:10*
%MOMM*%
%LPD*%
G01*
G04 APERTURE LIST*
G04 #@! TA.AperFunction,SMDPad,CuDef*
%ADD10R,1.300000X1.550000*%
G04 #@! TD*
G04 #@! TA.AperFunction,Conductor*
%ADD11C,0.100000*%
G04 #@! TD*
G04 #@! TA.AperFunction,SMDPad,CuDef*
%ADD12C,1.250000*%
G04 #@! TD*
G04 #@! TA.AperFunction,ComponentPad*
%ADD13R,1.700000X1.700000*%
G04 #@! TD*
G04 #@! TA.AperFunction,ComponentPad*
%ADD14O,1.700000X1.700000*%
G04 #@! TD*
G04 #@! TA.AperFunction,ComponentPad*
%ADD15R,1.350000X1.350000*%
G04 #@! TD*
G04 #@! TA.AperFunction,ViaPad*
%ADD16C,0.800000*%
G04 #@! TD*
G04 #@! TA.AperFunction,Conductor*
%ADD17C,0.250000*%
G04 #@! TD*
G04 APERTURE END LIST*
D10*
G04 #@! TO.P,SW1,1*
G04 #@! TO.N,GND*
X136250000Y-80375000D03*
X136250000Y-72425000D03*
G04 #@! TO.P,SW1,2*
G04 #@! TO.N,Net-(J1-Pad3)*
X140750000Y-80375000D03*
X140750000Y-72425000D03*
G04 #@! TD*
D11*
G04 #@! TO.N,Net-(D1-Pad1)*
G04 #@! TO.C,D1*
G36*
X143949504Y-76376204D02*
X143973773Y-76379804D01*
X143997571Y-76385765D01*
X144020671Y-76394030D01*
X144042849Y-76404520D01*
X144063893Y-76417133D01*
X144083598Y-76431747D01*
X144101777Y-76448223D01*
X144118253Y-76466402D01*
X144132867Y-76486107D01*
X144145480Y-76507151D01*
X144155970Y-76529329D01*
X144164235Y-76552429D01*
X144170196Y-76576227D01*
X144173796Y-76600496D01*
X144175000Y-76625000D01*
X144175000Y-77375000D01*
X144173796Y-77399504D01*
X144170196Y-77423773D01*
X144164235Y-77447571D01*
X144155970Y-77470671D01*
X144145480Y-77492849D01*
X144132867Y-77513893D01*
X144118253Y-77533598D01*
X144101777Y-77551777D01*
X144083598Y-77568253D01*
X144063893Y-77582867D01*
X144042849Y-77595480D01*
X144020671Y-77605970D01*
X143997571Y-77614235D01*
X143973773Y-77620196D01*
X143949504Y-77623796D01*
X143925000Y-77625000D01*
X142675000Y-77625000D01*
X142650496Y-77623796D01*
X142626227Y-77620196D01*
X142602429Y-77614235D01*
X142579329Y-77605970D01*
X142557151Y-77595480D01*
X142536107Y-77582867D01*
X142516402Y-77568253D01*
X142498223Y-77551777D01*
X142481747Y-77533598D01*
X142467133Y-77513893D01*
X142454520Y-77492849D01*
X142444030Y-77470671D01*
X142435765Y-77447571D01*
X142429804Y-77423773D01*
X142426204Y-77399504D01*
X142425000Y-77375000D01*
X142425000Y-76625000D01*
X142426204Y-76600496D01*
X142429804Y-76576227D01*
X142435765Y-76552429D01*
X142444030Y-76529329D01*
X142454520Y-76507151D01*
X142467133Y-76486107D01*
X142481747Y-76466402D01*
X142498223Y-76448223D01*
X142516402Y-76431747D01*
X142536107Y-76417133D01*
X142557151Y-76404520D01*
X142579329Y-76394030D01*
X142602429Y-76385765D01*
X142626227Y-76379804D01*
X142650496Y-76376204D01*
X142675000Y-76375000D01*
X143925000Y-76375000D01*
X143949504Y-76376204D01*
X143949504Y-76376204D01*
G37*
D12*
G04 #@! TD*
G04 #@! TO.P,D1,1*
G04 #@! TO.N,Net-(D1-Pad1)*
X143300000Y-77000000D03*
D11*
G04 #@! TO.N,VCC*
G04 #@! TO.C,D1*
G36*
X143949504Y-73576204D02*
X143973773Y-73579804D01*
X143997571Y-73585765D01*
X144020671Y-73594030D01*
X144042849Y-73604520D01*
X144063893Y-73617133D01*
X144083598Y-73631747D01*
X144101777Y-73648223D01*
X144118253Y-73666402D01*
X144132867Y-73686107D01*
X144145480Y-73707151D01*
X144155970Y-73729329D01*
X144164235Y-73752429D01*
X144170196Y-73776227D01*
X144173796Y-73800496D01*
X144175000Y-73825000D01*
X144175000Y-74575000D01*
X144173796Y-74599504D01*
X144170196Y-74623773D01*
X144164235Y-74647571D01*
X144155970Y-74670671D01*
X144145480Y-74692849D01*
X144132867Y-74713893D01*
X144118253Y-74733598D01*
X144101777Y-74751777D01*
X144083598Y-74768253D01*
X144063893Y-74782867D01*
X144042849Y-74795480D01*
X144020671Y-74805970D01*
X143997571Y-74814235D01*
X143973773Y-74820196D01*
X143949504Y-74823796D01*
X143925000Y-74825000D01*
X142675000Y-74825000D01*
X142650496Y-74823796D01*
X142626227Y-74820196D01*
X142602429Y-74814235D01*
X142579329Y-74805970D01*
X142557151Y-74795480D01*
X142536107Y-74782867D01*
X142516402Y-74768253D01*
X142498223Y-74751777D01*
X142481747Y-74733598D01*
X142467133Y-74713893D01*
X142454520Y-74692849D01*
X142444030Y-74670671D01*
X142435765Y-74647571D01*
X142429804Y-74623773D01*
X142426204Y-74599504D01*
X142425000Y-74575000D01*
X142425000Y-73825000D01*
X142426204Y-73800496D01*
X142429804Y-73776227D01*
X142435765Y-73752429D01*
X142444030Y-73729329D01*
X142454520Y-73707151D01*
X142467133Y-73686107D01*
X142481747Y-73666402D01*
X142498223Y-73648223D01*
X142516402Y-73631747D01*
X142536107Y-73617133D01*
X142557151Y-73604520D01*
X142579329Y-73594030D01*
X142602429Y-73585765D01*
X142626227Y-73579804D01*
X142650496Y-73576204D01*
X142675000Y-73575000D01*
X143925000Y-73575000D01*
X143949504Y-73576204D01*
X143949504Y-73576204D01*
G37*
D12*
G04 #@! TD*
G04 #@! TO.P,D1,2*
G04 #@! TO.N,VCC*
X143300000Y-74200000D03*
D11*
G04 #@! TO.N,VCC*
G04 #@! TO.C,D2*
G36*
X134349504Y-74876204D02*
X134373773Y-74879804D01*
X134397571Y-74885765D01*
X134420671Y-74894030D01*
X134442849Y-74904520D01*
X134463893Y-74917133D01*
X134483598Y-74931747D01*
X134501777Y-74948223D01*
X134518253Y-74966402D01*
X134532867Y-74986107D01*
X134545480Y-75007151D01*
X134555970Y-75029329D01*
X134564235Y-75052429D01*
X134570196Y-75076227D01*
X134573796Y-75100496D01*
X134575000Y-75125000D01*
X134575000Y-75875000D01*
X134573796Y-75899504D01*
X134570196Y-75923773D01*
X134564235Y-75947571D01*
X134555970Y-75970671D01*
X134545480Y-75992849D01*
X134532867Y-76013893D01*
X134518253Y-76033598D01*
X134501777Y-76051777D01*
X134483598Y-76068253D01*
X134463893Y-76082867D01*
X134442849Y-76095480D01*
X134420671Y-76105970D01*
X134397571Y-76114235D01*
X134373773Y-76120196D01*
X134349504Y-76123796D01*
X134325000Y-76125000D01*
X133075000Y-76125000D01*
X133050496Y-76123796D01*
X133026227Y-76120196D01*
X133002429Y-76114235D01*
X132979329Y-76105970D01*
X132957151Y-76095480D01*
X132936107Y-76082867D01*
X132916402Y-76068253D01*
X132898223Y-76051777D01*
X132881747Y-76033598D01*
X132867133Y-76013893D01*
X132854520Y-75992849D01*
X132844030Y-75970671D01*
X132835765Y-75947571D01*
X132829804Y-75923773D01*
X132826204Y-75899504D01*
X132825000Y-75875000D01*
X132825000Y-75125000D01*
X132826204Y-75100496D01*
X132829804Y-75076227D01*
X132835765Y-75052429D01*
X132844030Y-75029329D01*
X132854520Y-75007151D01*
X132867133Y-74986107D01*
X132881747Y-74966402D01*
X132898223Y-74948223D01*
X132916402Y-74931747D01*
X132936107Y-74917133D01*
X132957151Y-74904520D01*
X132979329Y-74894030D01*
X133002429Y-74885765D01*
X133026227Y-74879804D01*
X133050496Y-74876204D01*
X133075000Y-74875000D01*
X134325000Y-74875000D01*
X134349504Y-74876204D01*
X134349504Y-74876204D01*
G37*
D12*
G04 #@! TD*
G04 #@! TO.P,D2,2*
G04 #@! TO.N,VCC*
X133700000Y-75500000D03*
D11*
G04 #@! TO.N,Net-(D2-Pad1)*
G04 #@! TO.C,D2*
G36*
X134349504Y-77676204D02*
X134373773Y-77679804D01*
X134397571Y-77685765D01*
X134420671Y-77694030D01*
X134442849Y-77704520D01*
X134463893Y-77717133D01*
X134483598Y-77731747D01*
X134501777Y-77748223D01*
X134518253Y-77766402D01*
X134532867Y-77786107D01*
X134545480Y-77807151D01*
X134555970Y-77829329D01*
X134564235Y-77852429D01*
X134570196Y-77876227D01*
X134573796Y-77900496D01*
X134575000Y-77925000D01*
X134575000Y-78675000D01*
X134573796Y-78699504D01*
X134570196Y-78723773D01*
X134564235Y-78747571D01*
X134555970Y-78770671D01*
X134545480Y-78792849D01*
X134532867Y-78813893D01*
X134518253Y-78833598D01*
X134501777Y-78851777D01*
X134483598Y-78868253D01*
X134463893Y-78882867D01*
X134442849Y-78895480D01*
X134420671Y-78905970D01*
X134397571Y-78914235D01*
X134373773Y-78920196D01*
X134349504Y-78923796D01*
X134325000Y-78925000D01*
X133075000Y-78925000D01*
X133050496Y-78923796D01*
X133026227Y-78920196D01*
X133002429Y-78914235D01*
X132979329Y-78905970D01*
X132957151Y-78895480D01*
X132936107Y-78882867D01*
X132916402Y-78868253D01*
X132898223Y-78851777D01*
X132881747Y-78833598D01*
X132867133Y-78813893D01*
X132854520Y-78792849D01*
X132844030Y-78770671D01*
X132835765Y-78747571D01*
X132829804Y-78723773D01*
X132826204Y-78699504D01*
X132825000Y-78675000D01*
X132825000Y-77925000D01*
X132826204Y-77900496D01*
X132829804Y-77876227D01*
X132835765Y-77852429D01*
X132844030Y-77829329D01*
X132854520Y-77807151D01*
X132867133Y-77786107D01*
X132881747Y-77766402D01*
X132898223Y-77748223D01*
X132916402Y-77731747D01*
X132936107Y-77717133D01*
X132957151Y-77704520D01*
X132979329Y-77694030D01*
X133002429Y-77685765D01*
X133026227Y-77679804D01*
X133050496Y-77676204D01*
X133075000Y-77675000D01*
X134325000Y-77675000D01*
X134349504Y-77676204D01*
X134349504Y-77676204D01*
G37*
D12*
G04 #@! TD*
G04 #@! TO.P,D2,1*
G04 #@! TO.N,Net-(D2-Pad1)*
X133700000Y-78300000D03*
D13*
G04 #@! TO.P,J2,1*
G04 #@! TO.N,Net-(J1-Pad6)*
X128000000Y-73000000D03*
D14*
G04 #@! TO.P,J2,2*
G04 #@! TO.N,VCC*
X130540000Y-73000000D03*
G04 #@! TO.P,J2,3*
G04 #@! TO.N,GND*
X133080000Y-73000000D03*
G04 #@! TD*
D11*
G04 #@! TO.N,Net-(J1-Pad4)*
G04 #@! TO.C,R1*
G36*
X138649504Y-84276204D02*
X138673773Y-84279804D01*
X138697571Y-84285765D01*
X138720671Y-84294030D01*
X138742849Y-84304520D01*
X138763893Y-84317133D01*
X138783598Y-84331747D01*
X138801777Y-84348223D01*
X138818253Y-84366402D01*
X138832867Y-84386107D01*
X138845480Y-84407151D01*
X138855970Y-84429329D01*
X138864235Y-84452429D01*
X138870196Y-84476227D01*
X138873796Y-84500496D01*
X138875000Y-84525000D01*
X138875000Y-85275000D01*
X138873796Y-85299504D01*
X138870196Y-85323773D01*
X138864235Y-85347571D01*
X138855970Y-85370671D01*
X138845480Y-85392849D01*
X138832867Y-85413893D01*
X138818253Y-85433598D01*
X138801777Y-85451777D01*
X138783598Y-85468253D01*
X138763893Y-85482867D01*
X138742849Y-85495480D01*
X138720671Y-85505970D01*
X138697571Y-85514235D01*
X138673773Y-85520196D01*
X138649504Y-85523796D01*
X138625000Y-85525000D01*
X137375000Y-85525000D01*
X137350496Y-85523796D01*
X137326227Y-85520196D01*
X137302429Y-85514235D01*
X137279329Y-85505970D01*
X137257151Y-85495480D01*
X137236107Y-85482867D01*
X137216402Y-85468253D01*
X137198223Y-85451777D01*
X137181747Y-85433598D01*
X137167133Y-85413893D01*
X137154520Y-85392849D01*
X137144030Y-85370671D01*
X137135765Y-85347571D01*
X137129804Y-85323773D01*
X137126204Y-85299504D01*
X137125000Y-85275000D01*
X137125000Y-84525000D01*
X137126204Y-84500496D01*
X137129804Y-84476227D01*
X137135765Y-84452429D01*
X137144030Y-84429329D01*
X137154520Y-84407151D01*
X137167133Y-84386107D01*
X137181747Y-84366402D01*
X137198223Y-84348223D01*
X137216402Y-84331747D01*
X137236107Y-84317133D01*
X137257151Y-84304520D01*
X137279329Y-84294030D01*
X137302429Y-84285765D01*
X137326227Y-84279804D01*
X137350496Y-84276204D01*
X137375000Y-84275000D01*
X138625000Y-84275000D01*
X138649504Y-84276204D01*
X138649504Y-84276204D01*
G37*
D12*
G04 #@! TD*
G04 #@! TO.P,R1,1*
G04 #@! TO.N,Net-(J1-Pad4)*
X138000000Y-84900000D03*
D11*
G04 #@! TO.N,Net-(D1-Pad1)*
G04 #@! TO.C,R1*
G36*
X138649504Y-81476204D02*
X138673773Y-81479804D01*
X138697571Y-81485765D01*
X138720671Y-81494030D01*
X138742849Y-81504520D01*
X138763893Y-81517133D01*
X138783598Y-81531747D01*
X138801777Y-81548223D01*
X138818253Y-81566402D01*
X138832867Y-81586107D01*
X138845480Y-81607151D01*
X138855970Y-81629329D01*
X138864235Y-81652429D01*
X138870196Y-81676227D01*
X138873796Y-81700496D01*
X138875000Y-81725000D01*
X138875000Y-82475000D01*
X138873796Y-82499504D01*
X138870196Y-82523773D01*
X138864235Y-82547571D01*
X138855970Y-82570671D01*
X138845480Y-82592849D01*
X138832867Y-82613893D01*
X138818253Y-82633598D01*
X138801777Y-82651777D01*
X138783598Y-82668253D01*
X138763893Y-82682867D01*
X138742849Y-82695480D01*
X138720671Y-82705970D01*
X138697571Y-82714235D01*
X138673773Y-82720196D01*
X138649504Y-82723796D01*
X138625000Y-82725000D01*
X137375000Y-82725000D01*
X137350496Y-82723796D01*
X137326227Y-82720196D01*
X137302429Y-82714235D01*
X137279329Y-82705970D01*
X137257151Y-82695480D01*
X137236107Y-82682867D01*
X137216402Y-82668253D01*
X137198223Y-82651777D01*
X137181747Y-82633598D01*
X137167133Y-82613893D01*
X137154520Y-82592849D01*
X137144030Y-82570671D01*
X137135765Y-82547571D01*
X137129804Y-82523773D01*
X137126204Y-82499504D01*
X137125000Y-82475000D01*
X137125000Y-81725000D01*
X137126204Y-81700496D01*
X137129804Y-81676227D01*
X137135765Y-81652429D01*
X137144030Y-81629329D01*
X137154520Y-81607151D01*
X137167133Y-81586107D01*
X137181747Y-81566402D01*
X137198223Y-81548223D01*
X137216402Y-81531747D01*
X137236107Y-81517133D01*
X137257151Y-81504520D01*
X137279329Y-81494030D01*
X137302429Y-81485765D01*
X137326227Y-81479804D01*
X137350496Y-81476204D01*
X137375000Y-81475000D01*
X138625000Y-81475000D01*
X138649504Y-81476204D01*
X138649504Y-81476204D01*
G37*
D12*
G04 #@! TD*
G04 #@! TO.P,R1,2*
G04 #@! TO.N,Net-(D1-Pad1)*
X138000000Y-82100000D03*
D11*
G04 #@! TO.N,Net-(D2-Pad1)*
G04 #@! TO.C,R2*
G36*
X134349504Y-81476204D02*
X134373773Y-81479804D01*
X134397571Y-81485765D01*
X134420671Y-81494030D01*
X134442849Y-81504520D01*
X134463893Y-81517133D01*
X134483598Y-81531747D01*
X134501777Y-81548223D01*
X134518253Y-81566402D01*
X134532867Y-81586107D01*
X134545480Y-81607151D01*
X134555970Y-81629329D01*
X134564235Y-81652429D01*
X134570196Y-81676227D01*
X134573796Y-81700496D01*
X134575000Y-81725000D01*
X134575000Y-82475000D01*
X134573796Y-82499504D01*
X134570196Y-82523773D01*
X134564235Y-82547571D01*
X134555970Y-82570671D01*
X134545480Y-82592849D01*
X134532867Y-82613893D01*
X134518253Y-82633598D01*
X134501777Y-82651777D01*
X134483598Y-82668253D01*
X134463893Y-82682867D01*
X134442849Y-82695480D01*
X134420671Y-82705970D01*
X134397571Y-82714235D01*
X134373773Y-82720196D01*
X134349504Y-82723796D01*
X134325000Y-82725000D01*
X133075000Y-82725000D01*
X133050496Y-82723796D01*
X133026227Y-82720196D01*
X133002429Y-82714235D01*
X132979329Y-82705970D01*
X132957151Y-82695480D01*
X132936107Y-82682867D01*
X132916402Y-82668253D01*
X132898223Y-82651777D01*
X132881747Y-82633598D01*
X132867133Y-82613893D01*
X132854520Y-82592849D01*
X132844030Y-82570671D01*
X132835765Y-82547571D01*
X132829804Y-82523773D01*
X132826204Y-82499504D01*
X132825000Y-82475000D01*
X132825000Y-81725000D01*
X132826204Y-81700496D01*
X132829804Y-81676227D01*
X132835765Y-81652429D01*
X132844030Y-81629329D01*
X132854520Y-81607151D01*
X132867133Y-81586107D01*
X132881747Y-81566402D01*
X132898223Y-81548223D01*
X132916402Y-81531747D01*
X132936107Y-81517133D01*
X132957151Y-81504520D01*
X132979329Y-81494030D01*
X133002429Y-81485765D01*
X133026227Y-81479804D01*
X133050496Y-81476204D01*
X133075000Y-81475000D01*
X134325000Y-81475000D01*
X134349504Y-81476204D01*
X134349504Y-81476204D01*
G37*
D12*
G04 #@! TD*
G04 #@! TO.P,R2,2*
G04 #@! TO.N,Net-(D2-Pad1)*
X133700000Y-82100000D03*
D11*
G04 #@! TO.N,Net-(J1-Pad5)*
G04 #@! TO.C,R2*
G36*
X134349504Y-84276204D02*
X134373773Y-84279804D01*
X134397571Y-84285765D01*
X134420671Y-84294030D01*
X134442849Y-84304520D01*
X134463893Y-84317133D01*
X134483598Y-84331747D01*
X134501777Y-84348223D01*
X134518253Y-84366402D01*
X134532867Y-84386107D01*
X134545480Y-84407151D01*
X134555970Y-84429329D01*
X134564235Y-84452429D01*
X134570196Y-84476227D01*
X134573796Y-84500496D01*
X134575000Y-84525000D01*
X134575000Y-85275000D01*
X134573796Y-85299504D01*
X134570196Y-85323773D01*
X134564235Y-85347571D01*
X134555970Y-85370671D01*
X134545480Y-85392849D01*
X134532867Y-85413893D01*
X134518253Y-85433598D01*
X134501777Y-85451777D01*
X134483598Y-85468253D01*
X134463893Y-85482867D01*
X134442849Y-85495480D01*
X134420671Y-85505970D01*
X134397571Y-85514235D01*
X134373773Y-85520196D01*
X134349504Y-85523796D01*
X134325000Y-85525000D01*
X133075000Y-85525000D01*
X133050496Y-85523796D01*
X133026227Y-85520196D01*
X133002429Y-85514235D01*
X132979329Y-85505970D01*
X132957151Y-85495480D01*
X132936107Y-85482867D01*
X132916402Y-85468253D01*
X132898223Y-85451777D01*
X132881747Y-85433598D01*
X132867133Y-85413893D01*
X132854520Y-85392849D01*
X132844030Y-85370671D01*
X132835765Y-85347571D01*
X132829804Y-85323773D01*
X132826204Y-85299504D01*
X132825000Y-85275000D01*
X132825000Y-84525000D01*
X132826204Y-84500496D01*
X132829804Y-84476227D01*
X132835765Y-84452429D01*
X132844030Y-84429329D01*
X132854520Y-84407151D01*
X132867133Y-84386107D01*
X132881747Y-84366402D01*
X132898223Y-84348223D01*
X132916402Y-84331747D01*
X132936107Y-84317133D01*
X132957151Y-84304520D01*
X132979329Y-84294030D01*
X133002429Y-84285765D01*
X133026227Y-84279804D01*
X133050496Y-84276204D01*
X133075000Y-84275000D01*
X134325000Y-84275000D01*
X134349504Y-84276204D01*
X134349504Y-84276204D01*
G37*
D12*
G04 #@! TD*
G04 #@! TO.P,R2,1*
G04 #@! TO.N,Net-(J1-Pad5)*
X133700000Y-84900000D03*
D15*
G04 #@! TO.P,J1,1*
G04 #@! TO.N,VCC*
X143800000Y-87500000D03*
G04 #@! TO.P,J1,2*
G04 #@! TO.N,GND*
X143800000Y-89500000D03*
G04 #@! TO.P,J1,3*
G04 #@! TO.N,Net-(J1-Pad3)*
X143800000Y-91500000D03*
G04 #@! TO.P,J1,4*
G04 #@! TO.N,Net-(J1-Pad4)*
X143800000Y-93500000D03*
G04 #@! TO.P,J1,5*
G04 #@! TO.N,Net-(J1-Pad5)*
X143800000Y-95500000D03*
G04 #@! TO.P,J1,6*
G04 #@! TO.N,Net-(J1-Pad6)*
X143800000Y-97500000D03*
G04 #@! TO.P,J1,7*
G04 #@! TO.N,Net-(J1-Pad7)*
X143800000Y-99500000D03*
G04 #@! TD*
D16*
G04 #@! TO.N,VCC*
X143300000Y-72400000D03*
G04 #@! TO.N,Net-(J1-Pad3)*
X139000000Y-80400000D03*
G04 #@! TD*
D17*
G04 #@! TO.N,Net-(D1-Pad1)*
X138975000Y-82100000D02*
X138000000Y-82100000D01*
X141000000Y-82100000D02*
X138975000Y-82100000D01*
X143300000Y-77000000D02*
X143300000Y-79800000D01*
X143300000Y-79800000D02*
X141000000Y-82100000D01*
G04 #@! TO.N,VCC*
X133900000Y-74900000D02*
X133900000Y-74900000D01*
X143300000Y-72400000D02*
X143300000Y-74200000D01*
X131600000Y-75500000D02*
X133700000Y-75500000D01*
X130540000Y-73000000D02*
X130540000Y-74440000D01*
X130540000Y-74440000D02*
X131600000Y-75500000D01*
G04 #@! TO.N,Net-(D2-Pad1)*
X133700000Y-78300000D02*
X133700000Y-82100000D01*
G04 #@! TO.N,GND*
X136100000Y-72200000D02*
X136500000Y-71800000D01*
X136900000Y-83500000D02*
X139100000Y-83500000D01*
X139100000Y-83500000D02*
X141000000Y-85400000D01*
X141000000Y-85400000D02*
X141000000Y-89000000D01*
X141000000Y-89000000D02*
X141500000Y-89500000D01*
X136250000Y-82850000D02*
X136900000Y-83500000D01*
X141500000Y-89500000D02*
X143374990Y-89500000D01*
X135675000Y-73000000D02*
X136250000Y-72425000D01*
X133080000Y-73000000D02*
X135675000Y-73000000D01*
X136250000Y-72425000D02*
X136250000Y-80375000D01*
X136250000Y-80375000D02*
X136250000Y-82850000D01*
G04 #@! TO.N,Net-(J1-Pad3)*
X140750000Y-73450000D02*
X140750000Y-80375000D01*
X140750000Y-72425000D02*
X140750000Y-73450000D01*
X139025000Y-80375000D02*
X139000000Y-80400000D01*
X140750000Y-80375000D02*
X139025000Y-80375000D01*
G04 #@! TO.N,Net-(J1-Pad4)*
X138000000Y-84900000D02*
X138000000Y-90000000D01*
X138000000Y-90000000D02*
X141500000Y-93500000D01*
X141500000Y-93500000D02*
X143374990Y-93500000D01*
G04 #@! TO.N,Net-(J1-Pad5)*
X133700000Y-88700000D02*
X140500000Y-95500000D01*
X133700000Y-84900000D02*
X133700000Y-88700000D01*
X140500000Y-95500000D02*
X143374990Y-95500000D01*
G04 #@! TO.N,Net-(J1-Pad6)*
X130000000Y-88000000D02*
X139500000Y-97500000D01*
X130000000Y-80000000D02*
X130000000Y-88000000D01*
X128000000Y-78000000D02*
X130000000Y-80000000D01*
X139500000Y-97500000D02*
X143374990Y-97500000D01*
X128000000Y-73000000D02*
X128000000Y-78000000D01*
G04 #@! TD*
M02*
