G04 #@! TF.GenerationSoftware,KiCad,Pcbnew,(5.0.1)-4*
G04 #@! TF.CreationDate,2019-02-16T16:55:34+08:00*
G04 #@! TF.ProjectId,Xiaomi2Ali-Smart-Plug-WIFI-Module,5869616F6D6932416C692D536D617274,rev?*
G04 #@! TF.SameCoordinates,Original*
G04 #@! TF.FileFunction,Soldermask,Top*
G04 #@! TF.FilePolarity,Negative*
%FSLAX46Y46*%
G04 Gerber Fmt 4.6, Leading zero omitted, Abs format (unit mm)*
G04 Created by KiCad (PCBNEW (5.0.1)-4) date 2019/2/16 16:55:34*
%MOMM*%
%LPD*%
G01*
G04 APERTURE LIST*
%ADD10C,0.100000*%
G04 APERTURE END LIST*
D10*
G36*
X143826000Y-100226000D02*
X142374000Y-100226000D01*
X142374000Y-98774000D01*
X143826000Y-98774000D01*
X143826000Y-100226000D01*
X143826000Y-100226000D01*
G37*
G36*
X143826000Y-98226000D02*
X142374000Y-98226000D01*
X142374000Y-96774000D01*
X143826000Y-96774000D01*
X143826000Y-98226000D01*
X143826000Y-98226000D01*
G37*
G36*
X143826000Y-96226000D02*
X142374000Y-96226000D01*
X142374000Y-94774000D01*
X143826000Y-94774000D01*
X143826000Y-96226000D01*
X143826000Y-96226000D01*
G37*
G36*
X143826000Y-94226000D02*
X142374000Y-94226000D01*
X142374000Y-92774000D01*
X143826000Y-92774000D01*
X143826000Y-94226000D01*
X143826000Y-94226000D01*
G37*
G36*
X143826000Y-92226000D02*
X142374000Y-92226000D01*
X142374000Y-90774000D01*
X143826000Y-90774000D01*
X143826000Y-92226000D01*
X143826000Y-92226000D01*
G37*
G36*
X143826000Y-90226000D02*
X142374000Y-90226000D01*
X142374000Y-88774000D01*
X143826000Y-88774000D01*
X143826000Y-90226000D01*
X143826000Y-90226000D01*
G37*
G36*
X143826000Y-88226000D02*
X142374000Y-88226000D01*
X142374000Y-86774000D01*
X143826000Y-86774000D01*
X143826000Y-88226000D01*
X143826000Y-88226000D01*
G37*
G36*
X138768604Y-84228347D02*
X138805145Y-84239432D01*
X138838820Y-84257431D01*
X138868341Y-84281659D01*
X138892569Y-84311180D01*
X138910568Y-84344855D01*
X138921653Y-84381396D01*
X138926000Y-84425538D01*
X138926000Y-85374462D01*
X138921653Y-85418604D01*
X138910568Y-85455145D01*
X138892569Y-85488820D01*
X138868341Y-85518341D01*
X138838820Y-85542569D01*
X138805145Y-85560568D01*
X138768604Y-85571653D01*
X138724462Y-85576000D01*
X137275538Y-85576000D01*
X137231396Y-85571653D01*
X137194855Y-85560568D01*
X137161180Y-85542569D01*
X137131659Y-85518341D01*
X137107431Y-85488820D01*
X137089432Y-85455145D01*
X137078347Y-85418604D01*
X137074000Y-85374462D01*
X137074000Y-84425538D01*
X137078347Y-84381396D01*
X137089432Y-84344855D01*
X137107431Y-84311180D01*
X137131659Y-84281659D01*
X137161180Y-84257431D01*
X137194855Y-84239432D01*
X137231396Y-84228347D01*
X137275538Y-84224000D01*
X138724462Y-84224000D01*
X138768604Y-84228347D01*
X138768604Y-84228347D01*
G37*
G36*
X134668604Y-84228347D02*
X134705145Y-84239432D01*
X134738820Y-84257431D01*
X134768341Y-84281659D01*
X134792569Y-84311180D01*
X134810568Y-84344855D01*
X134821653Y-84381396D01*
X134826000Y-84425538D01*
X134826000Y-85374462D01*
X134821653Y-85418604D01*
X134810568Y-85455145D01*
X134792569Y-85488820D01*
X134768341Y-85518341D01*
X134738820Y-85542569D01*
X134705145Y-85560568D01*
X134668604Y-85571653D01*
X134624462Y-85576000D01*
X133175538Y-85576000D01*
X133131396Y-85571653D01*
X133094855Y-85560568D01*
X133061180Y-85542569D01*
X133031659Y-85518341D01*
X133007431Y-85488820D01*
X132989432Y-85455145D01*
X132978347Y-85418604D01*
X132974000Y-85374462D01*
X132974000Y-84425538D01*
X132978347Y-84381396D01*
X132989432Y-84344855D01*
X133007431Y-84311180D01*
X133031659Y-84281659D01*
X133061180Y-84257431D01*
X133094855Y-84239432D01*
X133131396Y-84228347D01*
X133175538Y-84224000D01*
X134624462Y-84224000D01*
X134668604Y-84228347D01*
X134668604Y-84228347D01*
G37*
G36*
X138768604Y-81428347D02*
X138805145Y-81439432D01*
X138838820Y-81457431D01*
X138868341Y-81481659D01*
X138892569Y-81511180D01*
X138910568Y-81544855D01*
X138921653Y-81581396D01*
X138926000Y-81625538D01*
X138926000Y-82574462D01*
X138921653Y-82618604D01*
X138910568Y-82655145D01*
X138892569Y-82688820D01*
X138868341Y-82718341D01*
X138838820Y-82742569D01*
X138805145Y-82760568D01*
X138768604Y-82771653D01*
X138724462Y-82776000D01*
X137275538Y-82776000D01*
X137231396Y-82771653D01*
X137194855Y-82760568D01*
X137161180Y-82742569D01*
X137131659Y-82718341D01*
X137107431Y-82688820D01*
X137089432Y-82655145D01*
X137078347Y-82618604D01*
X137074000Y-82574462D01*
X137074000Y-81625538D01*
X137078347Y-81581396D01*
X137089432Y-81544855D01*
X137107431Y-81511180D01*
X137131659Y-81481659D01*
X137161180Y-81457431D01*
X137194855Y-81439432D01*
X137231396Y-81428347D01*
X137275538Y-81424000D01*
X138724462Y-81424000D01*
X138768604Y-81428347D01*
X138768604Y-81428347D01*
G37*
G36*
X134668604Y-81428347D02*
X134705145Y-81439432D01*
X134738820Y-81457431D01*
X134768341Y-81481659D01*
X134792569Y-81511180D01*
X134810568Y-81544855D01*
X134821653Y-81581396D01*
X134826000Y-81625538D01*
X134826000Y-82574462D01*
X134821653Y-82618604D01*
X134810568Y-82655145D01*
X134792569Y-82688820D01*
X134768341Y-82718341D01*
X134738820Y-82742569D01*
X134705145Y-82760568D01*
X134668604Y-82771653D01*
X134624462Y-82776000D01*
X133175538Y-82776000D01*
X133131396Y-82771653D01*
X133094855Y-82760568D01*
X133061180Y-82742569D01*
X133031659Y-82718341D01*
X133007431Y-82688820D01*
X132989432Y-82655145D01*
X132978347Y-82618604D01*
X132974000Y-82574462D01*
X132974000Y-81625538D01*
X132978347Y-81581396D01*
X132989432Y-81544855D01*
X133007431Y-81511180D01*
X133031659Y-81481659D01*
X133061180Y-81457431D01*
X133094855Y-81439432D01*
X133131396Y-81428347D01*
X133175538Y-81424000D01*
X134624462Y-81424000D01*
X134668604Y-81428347D01*
X134668604Y-81428347D01*
G37*
G36*
X137251000Y-79851000D02*
X135749000Y-79851000D01*
X135749000Y-78149000D01*
X137251000Y-78149000D01*
X137251000Y-79851000D01*
X137251000Y-79851000D01*
G37*
G36*
X140251000Y-79851000D02*
X138749000Y-79851000D01*
X138749000Y-78149000D01*
X140251000Y-78149000D01*
X140251000Y-79851000D01*
X140251000Y-79851000D01*
G37*
G36*
X134668604Y-77028347D02*
X134705145Y-77039432D01*
X134738820Y-77057431D01*
X134768341Y-77081659D01*
X134792569Y-77111180D01*
X134810568Y-77144855D01*
X134821653Y-77181396D01*
X134826000Y-77225538D01*
X134826000Y-78174462D01*
X134821653Y-78218604D01*
X134810568Y-78255145D01*
X134792569Y-78288820D01*
X134768341Y-78318341D01*
X134738820Y-78342569D01*
X134705145Y-78360568D01*
X134668604Y-78371653D01*
X134624462Y-78376000D01*
X133175538Y-78376000D01*
X133131396Y-78371653D01*
X133094855Y-78360568D01*
X133061180Y-78342569D01*
X133031659Y-78318341D01*
X133007431Y-78288820D01*
X132989432Y-78255145D01*
X132978347Y-78218604D01*
X132974000Y-78174462D01*
X132974000Y-77225538D01*
X132978347Y-77181396D01*
X132989432Y-77144855D01*
X133007431Y-77111180D01*
X133031659Y-77081659D01*
X133061180Y-77057431D01*
X133094855Y-77039432D01*
X133131396Y-77028347D01*
X133175538Y-77024000D01*
X134624462Y-77024000D01*
X134668604Y-77028347D01*
X134668604Y-77028347D01*
G37*
G36*
X142968604Y-76128347D02*
X143005145Y-76139432D01*
X143038820Y-76157431D01*
X143068341Y-76181659D01*
X143092569Y-76211180D01*
X143110568Y-76244855D01*
X143121653Y-76281396D01*
X143126000Y-76325538D01*
X143126000Y-77274462D01*
X143121653Y-77318604D01*
X143110568Y-77355145D01*
X143092569Y-77388820D01*
X143068341Y-77418341D01*
X143038820Y-77442569D01*
X143005145Y-77460568D01*
X142968604Y-77471653D01*
X142924462Y-77476000D01*
X141475538Y-77476000D01*
X141431396Y-77471653D01*
X141394855Y-77460568D01*
X141361180Y-77442569D01*
X141331659Y-77418341D01*
X141307431Y-77388820D01*
X141289432Y-77355145D01*
X141278347Y-77318604D01*
X141274000Y-77274462D01*
X141274000Y-76325538D01*
X141278347Y-76281396D01*
X141289432Y-76244855D01*
X141307431Y-76211180D01*
X141331659Y-76181659D01*
X141361180Y-76157431D01*
X141394855Y-76139432D01*
X141431396Y-76128347D01*
X141475538Y-76124000D01*
X142924462Y-76124000D01*
X142968604Y-76128347D01*
X142968604Y-76128347D01*
G37*
G36*
X134668604Y-74228347D02*
X134705145Y-74239432D01*
X134738820Y-74257431D01*
X134768341Y-74281659D01*
X134792569Y-74311180D01*
X134810568Y-74344855D01*
X134821653Y-74381396D01*
X134826000Y-74425538D01*
X134826000Y-75374462D01*
X134821653Y-75418604D01*
X134810568Y-75455145D01*
X134792569Y-75488820D01*
X134768341Y-75518341D01*
X134738820Y-75542569D01*
X134705145Y-75560568D01*
X134668604Y-75571653D01*
X134624462Y-75576000D01*
X133175538Y-75576000D01*
X133131396Y-75571653D01*
X133094855Y-75560568D01*
X133061180Y-75542569D01*
X133031659Y-75518341D01*
X133007431Y-75488820D01*
X132989432Y-75455145D01*
X132978347Y-75418604D01*
X132974000Y-75374462D01*
X132974000Y-74425538D01*
X132978347Y-74381396D01*
X132989432Y-74344855D01*
X133007431Y-74311180D01*
X133031659Y-74281659D01*
X133061180Y-74257431D01*
X133094855Y-74239432D01*
X133131396Y-74228347D01*
X133175538Y-74224000D01*
X134624462Y-74224000D01*
X134668604Y-74228347D01*
X134668604Y-74228347D01*
G37*
G36*
X142968604Y-73328347D02*
X143005145Y-73339432D01*
X143038820Y-73357431D01*
X143068341Y-73381659D01*
X143092569Y-73411180D01*
X143110568Y-73444855D01*
X143121653Y-73481396D01*
X143126000Y-73525538D01*
X143126000Y-74474462D01*
X143121653Y-74518604D01*
X143110568Y-74555145D01*
X143092569Y-74588820D01*
X143068341Y-74618341D01*
X143038820Y-74642569D01*
X143005145Y-74660568D01*
X142968604Y-74671653D01*
X142924462Y-74676000D01*
X141475538Y-74676000D01*
X141431396Y-74671653D01*
X141394855Y-74660568D01*
X141361180Y-74642569D01*
X141331659Y-74618341D01*
X141307431Y-74588820D01*
X141289432Y-74555145D01*
X141278347Y-74518604D01*
X141274000Y-74474462D01*
X141274000Y-73525538D01*
X141278347Y-73481396D01*
X141289432Y-73444855D01*
X141307431Y-73411180D01*
X141331659Y-73381659D01*
X141361180Y-73357431D01*
X141394855Y-73339432D01*
X141431396Y-73328347D01*
X141475538Y-73324000D01*
X142924462Y-73324000D01*
X142968604Y-73328347D01*
X142968604Y-73328347D01*
G37*
G36*
X133190442Y-71305518D02*
X133256627Y-71312037D01*
X133369853Y-71346384D01*
X133426467Y-71363557D01*
X133565087Y-71437652D01*
X133582991Y-71447222D01*
X133618729Y-71476552D01*
X133720186Y-71559814D01*
X133803448Y-71661271D01*
X133832778Y-71697009D01*
X133832779Y-71697011D01*
X133916443Y-71853533D01*
X133916443Y-71853534D01*
X133967963Y-72023373D01*
X133985359Y-72200000D01*
X133967963Y-72376627D01*
X133933616Y-72489853D01*
X133916443Y-72546467D01*
X133860568Y-72651000D01*
X133832778Y-72702991D01*
X133803448Y-72738729D01*
X133720186Y-72840186D01*
X133618729Y-72923448D01*
X133582991Y-72952778D01*
X133582989Y-72952779D01*
X133426467Y-73036443D01*
X133369853Y-73053616D01*
X133256627Y-73087963D01*
X133190442Y-73094482D01*
X133124260Y-73101000D01*
X133035740Y-73101000D01*
X132969558Y-73094482D01*
X132903373Y-73087963D01*
X132790147Y-73053616D01*
X132733533Y-73036443D01*
X132577011Y-72952779D01*
X132577009Y-72952778D01*
X132541271Y-72923448D01*
X132439814Y-72840186D01*
X132356552Y-72738729D01*
X132327222Y-72702991D01*
X132299432Y-72651000D01*
X132243557Y-72546467D01*
X132226384Y-72489853D01*
X132192037Y-72376627D01*
X132174641Y-72200000D01*
X132192037Y-72023373D01*
X132243557Y-71853534D01*
X132243557Y-71853533D01*
X132327221Y-71697011D01*
X132327222Y-71697009D01*
X132356552Y-71661271D01*
X132439814Y-71559814D01*
X132541271Y-71476552D01*
X132577009Y-71447222D01*
X132594913Y-71437652D01*
X132733533Y-71363557D01*
X132790147Y-71346384D01*
X132903373Y-71312037D01*
X132969558Y-71305518D01*
X133035740Y-71299000D01*
X133124260Y-71299000D01*
X133190442Y-71305518D01*
X133190442Y-71305518D01*
G37*
G36*
X130650442Y-71305518D02*
X130716627Y-71312037D01*
X130829853Y-71346384D01*
X130886467Y-71363557D01*
X131025087Y-71437652D01*
X131042991Y-71447222D01*
X131078729Y-71476552D01*
X131180186Y-71559814D01*
X131263448Y-71661271D01*
X131292778Y-71697009D01*
X131292779Y-71697011D01*
X131376443Y-71853533D01*
X131376443Y-71853534D01*
X131427963Y-72023373D01*
X131445359Y-72200000D01*
X131427963Y-72376627D01*
X131393616Y-72489853D01*
X131376443Y-72546467D01*
X131320568Y-72651000D01*
X131292778Y-72702991D01*
X131263448Y-72738729D01*
X131180186Y-72840186D01*
X131078729Y-72923448D01*
X131042991Y-72952778D01*
X131042989Y-72952779D01*
X130886467Y-73036443D01*
X130829853Y-73053616D01*
X130716627Y-73087963D01*
X130650442Y-73094482D01*
X130584260Y-73101000D01*
X130495740Y-73101000D01*
X130429558Y-73094482D01*
X130363373Y-73087963D01*
X130250147Y-73053616D01*
X130193533Y-73036443D01*
X130037011Y-72952779D01*
X130037009Y-72952778D01*
X130001271Y-72923448D01*
X129899814Y-72840186D01*
X129816552Y-72738729D01*
X129787222Y-72702991D01*
X129759432Y-72651000D01*
X129703557Y-72546467D01*
X129686384Y-72489853D01*
X129652037Y-72376627D01*
X129634641Y-72200000D01*
X129652037Y-72023373D01*
X129703557Y-71853534D01*
X129703557Y-71853533D01*
X129787221Y-71697011D01*
X129787222Y-71697009D01*
X129816552Y-71661271D01*
X129899814Y-71559814D01*
X130001271Y-71476552D01*
X130037009Y-71447222D01*
X130054913Y-71437652D01*
X130193533Y-71363557D01*
X130250147Y-71346384D01*
X130363373Y-71312037D01*
X130429558Y-71305518D01*
X130495740Y-71299000D01*
X130584260Y-71299000D01*
X130650442Y-71305518D01*
X130650442Y-71305518D01*
G37*
G36*
X128901000Y-73101000D02*
X127099000Y-73101000D01*
X127099000Y-71299000D01*
X128901000Y-71299000D01*
X128901000Y-73101000D01*
X128901000Y-73101000D01*
G37*
G36*
X140251000Y-72651000D02*
X138749000Y-72651000D01*
X138749000Y-70949000D01*
X140251000Y-70949000D01*
X140251000Y-72651000D01*
X140251000Y-72651000D01*
G37*
G36*
X137251000Y-72651000D02*
X135749000Y-72651000D01*
X135749000Y-70949000D01*
X137251000Y-70949000D01*
X137251000Y-72651000D01*
X137251000Y-72651000D01*
G37*
M02*
