M48
;DRILL file {KiCad (5.0.1)-4} date 2019/2/18 18:34:47
;FORMAT={-:-/ absolute / metric / decimal}
FMAT,2
METRIC,TZ
T1C0.400
T2C1.000
%
G90
G05
M71
T1
X141.2Y-79.
X142.2Y-72.
X144.6Y-115.
X145.6Y-108.
T2
X143.3Y-87.5
X143.3Y-89.5
X143.3Y-91.5
X143.3Y-93.5
X143.3Y-95.5
X143.3Y-97.5
X143.3Y-99.5
X128.Y-72.2
X130.54Y-72.2
X133.08Y-72.2
X153.72Y-114.8
X156.26Y-114.8
X158.8Y-114.8
X143.5Y-87.5
X143.5Y-89.5
X143.5Y-91.5
X143.5Y-93.5
X143.5Y-95.5
X143.5Y-97.5
X143.5Y-99.5
T0
M30
