G04 #@! TF.GenerationSoftware,KiCad,Pcbnew,(5.0.1)-4*
G04 #@! TF.CreationDate,2019-02-16T16:55:34+08:00*
G04 #@! TF.ProjectId,Xiaomi2Ali-Smart-Plug-WIFI-Module,5869616F6D6932416C692D536D617274,rev?*
G04 #@! TF.SameCoordinates,Original*
G04 #@! TF.FileFunction,Legend,Top*
G04 #@! TF.FilePolarity,Positive*
%FSLAX46Y46*%
G04 Gerber Fmt 4.6, Leading zero omitted, Abs format (unit mm)*
G04 Created by KiCad (PCBNEW (5.0.1)-4) date 2019/2/16 16:55:34*
%MOMM*%
%LPD*%
G01*
G04 APERTURE LIST*
%ADD10C,0.120000*%
%ADD11C,0.150000*%
G04 APERTURE END LIST*
D10*
G04 #@! TO.C,D1*
X141065000Y-73800000D02*
X141065000Y-77685000D01*
X141065000Y-77685000D02*
X143335000Y-77685000D01*
X143335000Y-77685000D02*
X143335000Y-73800000D01*
G04 #@! TO.C,D2*
X135035000Y-78585000D02*
X135035000Y-74700000D01*
X132765000Y-78585000D02*
X135035000Y-78585000D01*
X132765000Y-74700000D02*
X132765000Y-78585000D01*
G04 #@! TO.C,J2*
X134410000Y-73530000D02*
X134410000Y-70870000D01*
X129270000Y-73530000D02*
X134410000Y-73530000D01*
X129270000Y-70870000D02*
X134410000Y-70870000D01*
X129270000Y-73530000D02*
X129270000Y-70870000D01*
X128000000Y-73530000D02*
X126670000Y-73530000D01*
X126670000Y-73530000D02*
X126670000Y-72200000D01*
G04 #@! TO.C,R1*
X137090000Y-84102064D02*
X137090000Y-82897936D01*
X138910000Y-84102064D02*
X138910000Y-82897936D01*
G04 #@! TO.C,R2*
X134810000Y-84102064D02*
X134810000Y-82897936D01*
X132990000Y-84102064D02*
X132990000Y-82897936D01*
G04 #@! TO.C,SW1*
X135630000Y-77770000D02*
X135630000Y-73030000D01*
X135630000Y-77770000D02*
X136030000Y-77770000D01*
X135630000Y-73030000D02*
X136030000Y-73030000D01*
X140370000Y-77770000D02*
X139970000Y-77770000D01*
X140370000Y-77770000D02*
X140370000Y-73030000D01*
X140370000Y-73030000D02*
X139970000Y-73030000D01*
X139030000Y-73030000D02*
X136970000Y-73030000D01*
X139030000Y-77770000D02*
X136970000Y-77770000D01*
G04 #@! TO.C,J1*
X142040000Y-100560000D02*
X144160000Y-100560000D01*
X142040000Y-88500000D02*
X142040000Y-100560000D01*
X144160000Y-88500000D02*
X144160000Y-100560000D01*
X142040000Y-88500000D02*
X144160000Y-88500000D01*
X142040000Y-87500000D02*
X142040000Y-86440000D01*
X142040000Y-86440000D02*
X143100000Y-86440000D01*
G04 #@! TO.C,D1*
D11*
X142652380Y-79438095D02*
X141652380Y-79438095D01*
X141652380Y-79200000D01*
X141700000Y-79057142D01*
X141795238Y-78961904D01*
X141890476Y-78914285D01*
X142080952Y-78866666D01*
X142223809Y-78866666D01*
X142414285Y-78914285D01*
X142509523Y-78961904D01*
X142604761Y-79057142D01*
X142652380Y-79200000D01*
X142652380Y-79438095D01*
X142652380Y-77914285D02*
X142652380Y-78485714D01*
X142652380Y-78200000D02*
X141652380Y-78200000D01*
X141795238Y-78295238D01*
X141890476Y-78390476D01*
X141938095Y-78485714D01*
G04 #@! TO.C,D2*
X134352380Y-80338095D02*
X133352380Y-80338095D01*
X133352380Y-80100000D01*
X133400000Y-79957142D01*
X133495238Y-79861904D01*
X133590476Y-79814285D01*
X133780952Y-79766666D01*
X133923809Y-79766666D01*
X134114285Y-79814285D01*
X134209523Y-79861904D01*
X134304761Y-79957142D01*
X134352380Y-80100000D01*
X134352380Y-80338095D01*
X133447619Y-79385714D02*
X133400000Y-79338095D01*
X133352380Y-79242857D01*
X133352380Y-79004761D01*
X133400000Y-78909523D01*
X133447619Y-78861904D01*
X133542857Y-78814285D01*
X133638095Y-78814285D01*
X133780952Y-78861904D01*
X134352380Y-79433333D01*
X134352380Y-78814285D01*
G04 #@! TO.C,J2*
X127666666Y-74252380D02*
X127666666Y-74966666D01*
X127619047Y-75109523D01*
X127523809Y-75204761D01*
X127380952Y-75252380D01*
X127285714Y-75252380D01*
X128095238Y-74347619D02*
X128142857Y-74300000D01*
X128238095Y-74252380D01*
X128476190Y-74252380D01*
X128571428Y-74300000D01*
X128619047Y-74347619D01*
X128666666Y-74442857D01*
X128666666Y-74538095D01*
X128619047Y-74680952D01*
X128047619Y-75252380D01*
X128666666Y-75252380D01*
G04 #@! TO.C,R1*
X136632380Y-83666666D02*
X136156190Y-84000000D01*
X136632380Y-84238095D02*
X135632380Y-84238095D01*
X135632380Y-83857142D01*
X135680000Y-83761904D01*
X135727619Y-83714285D01*
X135822857Y-83666666D01*
X135965714Y-83666666D01*
X136060952Y-83714285D01*
X136108571Y-83761904D01*
X136156190Y-83857142D01*
X136156190Y-84238095D01*
X136632380Y-82714285D02*
X136632380Y-83285714D01*
X136632380Y-83000000D02*
X135632380Y-83000000D01*
X135775238Y-83095238D01*
X135870476Y-83190476D01*
X135918095Y-83285714D01*
G04 #@! TO.C,R2*
X132532380Y-83666666D02*
X132056190Y-84000000D01*
X132532380Y-84238095D02*
X131532380Y-84238095D01*
X131532380Y-83857142D01*
X131580000Y-83761904D01*
X131627619Y-83714285D01*
X131722857Y-83666666D01*
X131865714Y-83666666D01*
X131960952Y-83714285D01*
X132008571Y-83761904D01*
X132056190Y-83857142D01*
X132056190Y-84238095D01*
X131627619Y-83285714D02*
X131580000Y-83238095D01*
X131532380Y-83142857D01*
X131532380Y-82904761D01*
X131580000Y-82809523D01*
X131627619Y-82761904D01*
X131722857Y-82714285D01*
X131818095Y-82714285D01*
X131960952Y-82761904D01*
X132532380Y-83333333D01*
X132532380Y-82714285D01*
G04 #@! TO.C,SW1*
X138504761Y-76733333D02*
X138552380Y-76590476D01*
X138552380Y-76352380D01*
X138504761Y-76257142D01*
X138457142Y-76209523D01*
X138361904Y-76161904D01*
X138266666Y-76161904D01*
X138171428Y-76209523D01*
X138123809Y-76257142D01*
X138076190Y-76352380D01*
X138028571Y-76542857D01*
X137980952Y-76638095D01*
X137933333Y-76685714D01*
X137838095Y-76733333D01*
X137742857Y-76733333D01*
X137647619Y-76685714D01*
X137600000Y-76638095D01*
X137552380Y-76542857D01*
X137552380Y-76304761D01*
X137600000Y-76161904D01*
X137552380Y-75828571D02*
X138552380Y-75590476D01*
X137838095Y-75400000D01*
X138552380Y-75209523D01*
X137552380Y-74971428D01*
X138552380Y-74066666D02*
X138552380Y-74638095D01*
X138552380Y-74352380D02*
X137552380Y-74352380D01*
X137695238Y-74447619D01*
X137790476Y-74542857D01*
X137838095Y-74638095D01*
G04 #@! TO.C,J1*
X141466666Y-84352380D02*
X141466666Y-85066666D01*
X141419047Y-85209523D01*
X141323809Y-85304761D01*
X141180952Y-85352380D01*
X141085714Y-85352380D01*
X142466666Y-85352380D02*
X141895238Y-85352380D01*
X142180952Y-85352380D02*
X142180952Y-84352380D01*
X142085714Y-84495238D01*
X141990476Y-84590476D01*
X141895238Y-84638095D01*
G04 #@! TD*
M02*
