G04 #@! TF.GenerationSoftware,KiCad,Pcbnew,(5.0.1)-4*
G04 #@! TF.CreationDate,2019-02-22T14:36:11+08:00*
G04 #@! TF.ProjectId,Xiaomi2Ali-Smart-Plug-WIFI-Module,5869616F6D6932416C692D536D617274,rev?*
G04 #@! TF.SameCoordinates,Original*
G04 #@! TF.FileFunction,Soldermask,Bot*
G04 #@! TF.FilePolarity,Negative*
%FSLAX46Y46*%
G04 Gerber Fmt 4.6, Leading zero omitted, Abs format (unit mm)*
G04 Created by KiCad (PCBNEW (5.0.1)-4) date 2019/2/22 14:36:11*
%MOMM*%
%LPD*%
G01*
G04 APERTURE LIST*
%ADD10C,0.100000*%
G04 APERTURE END LIST*
D10*
G36*
X144526000Y-100226000D02*
X143074000Y-100226000D01*
X143074000Y-98774000D01*
X144526000Y-98774000D01*
X144526000Y-100226000D01*
X144526000Y-100226000D01*
G37*
G36*
X144526000Y-98226000D02*
X143074000Y-98226000D01*
X143074000Y-96774000D01*
X144526000Y-96774000D01*
X144526000Y-98226000D01*
X144526000Y-98226000D01*
G37*
G36*
X144526000Y-96226000D02*
X143074000Y-96226000D01*
X143074000Y-94774000D01*
X144526000Y-94774000D01*
X144526000Y-96226000D01*
X144526000Y-96226000D01*
G37*
G36*
X144526000Y-94226000D02*
X143074000Y-94226000D01*
X143074000Y-92774000D01*
X144526000Y-92774000D01*
X144526000Y-94226000D01*
X144526000Y-94226000D01*
G37*
G36*
X144526000Y-92226000D02*
X143074000Y-92226000D01*
X143074000Y-90774000D01*
X144526000Y-90774000D01*
X144526000Y-92226000D01*
X144526000Y-92226000D01*
G37*
G36*
X144526000Y-90226000D02*
X143074000Y-90226000D01*
X143074000Y-88774000D01*
X144526000Y-88774000D01*
X144526000Y-90226000D01*
X144526000Y-90226000D01*
G37*
G36*
X144526000Y-88226000D02*
X143074000Y-88226000D01*
X143074000Y-86774000D01*
X144526000Y-86774000D01*
X144526000Y-88226000D01*
X144526000Y-88226000D01*
G37*
G36*
X133190442Y-72105518D02*
X133256627Y-72112037D01*
X133369853Y-72146384D01*
X133426467Y-72163557D01*
X133565087Y-72237652D01*
X133582991Y-72247222D01*
X133618729Y-72276552D01*
X133720186Y-72359814D01*
X133803448Y-72461271D01*
X133832778Y-72497009D01*
X133832779Y-72497011D01*
X133916443Y-72653533D01*
X133916443Y-72653534D01*
X133967963Y-72823373D01*
X133985359Y-73000000D01*
X133967963Y-73176627D01*
X133933616Y-73289853D01*
X133916443Y-73346467D01*
X133842348Y-73485087D01*
X133832778Y-73502991D01*
X133803448Y-73538729D01*
X133720186Y-73640186D01*
X133618729Y-73723448D01*
X133582991Y-73752778D01*
X133582989Y-73752779D01*
X133426467Y-73836443D01*
X133369853Y-73853616D01*
X133256627Y-73887963D01*
X133190443Y-73894481D01*
X133124260Y-73901000D01*
X133035740Y-73901000D01*
X132969557Y-73894481D01*
X132903373Y-73887963D01*
X132790147Y-73853616D01*
X132733533Y-73836443D01*
X132577011Y-73752779D01*
X132577009Y-73752778D01*
X132541271Y-73723448D01*
X132439814Y-73640186D01*
X132356552Y-73538729D01*
X132327222Y-73502991D01*
X132317652Y-73485087D01*
X132243557Y-73346467D01*
X132226384Y-73289853D01*
X132192037Y-73176627D01*
X132174641Y-73000000D01*
X132192037Y-72823373D01*
X132243557Y-72653534D01*
X132243557Y-72653533D01*
X132327221Y-72497011D01*
X132327222Y-72497009D01*
X132356552Y-72461271D01*
X132439814Y-72359814D01*
X132541271Y-72276552D01*
X132577009Y-72247222D01*
X132594913Y-72237652D01*
X132733533Y-72163557D01*
X132790147Y-72146384D01*
X132903373Y-72112037D01*
X132969558Y-72105518D01*
X133035740Y-72099000D01*
X133124260Y-72099000D01*
X133190442Y-72105518D01*
X133190442Y-72105518D01*
G37*
G36*
X130650442Y-72105518D02*
X130716627Y-72112037D01*
X130829853Y-72146384D01*
X130886467Y-72163557D01*
X131025087Y-72237652D01*
X131042991Y-72247222D01*
X131078729Y-72276552D01*
X131180186Y-72359814D01*
X131263448Y-72461271D01*
X131292778Y-72497009D01*
X131292779Y-72497011D01*
X131376443Y-72653533D01*
X131376443Y-72653534D01*
X131427963Y-72823373D01*
X131445359Y-73000000D01*
X131427963Y-73176627D01*
X131393616Y-73289853D01*
X131376443Y-73346467D01*
X131302348Y-73485087D01*
X131292778Y-73502991D01*
X131263448Y-73538729D01*
X131180186Y-73640186D01*
X131078729Y-73723448D01*
X131042991Y-73752778D01*
X131042989Y-73752779D01*
X130886467Y-73836443D01*
X130829853Y-73853616D01*
X130716627Y-73887963D01*
X130650443Y-73894481D01*
X130584260Y-73901000D01*
X130495740Y-73901000D01*
X130429557Y-73894481D01*
X130363373Y-73887963D01*
X130250147Y-73853616D01*
X130193533Y-73836443D01*
X130037011Y-73752779D01*
X130037009Y-73752778D01*
X130001271Y-73723448D01*
X129899814Y-73640186D01*
X129816552Y-73538729D01*
X129787222Y-73502991D01*
X129777652Y-73485087D01*
X129703557Y-73346467D01*
X129686384Y-73289853D01*
X129652037Y-73176627D01*
X129634641Y-73000000D01*
X129652037Y-72823373D01*
X129703557Y-72653534D01*
X129703557Y-72653533D01*
X129787221Y-72497011D01*
X129787222Y-72497009D01*
X129816552Y-72461271D01*
X129899814Y-72359814D01*
X130001271Y-72276552D01*
X130037009Y-72247222D01*
X130054913Y-72237652D01*
X130193533Y-72163557D01*
X130250147Y-72146384D01*
X130363373Y-72112037D01*
X130429558Y-72105518D01*
X130495740Y-72099000D01*
X130584260Y-72099000D01*
X130650442Y-72105518D01*
X130650442Y-72105518D01*
G37*
G36*
X128901000Y-73901000D02*
X127099000Y-73901000D01*
X127099000Y-72099000D01*
X128901000Y-72099000D01*
X128901000Y-73901000D01*
X128901000Y-73901000D01*
G37*
M02*
