G04 #@! TF.GenerationSoftware,KiCad,Pcbnew,(5.0.1)-4*
G04 #@! TF.CreationDate,2019-02-20T16:15:56+08:00*
G04 #@! TF.ProjectId,Xiaomi2Ali-Smart-Plug-WIFI-Module,5869616F6D6932416C692D536D617274,rev?*
G04 #@! TF.SameCoordinates,Original*
G04 #@! TF.FileFunction,Legend,Top*
G04 #@! TF.FilePolarity,Positive*
%FSLAX46Y46*%
G04 Gerber Fmt 4.6, Leading zero omitted, Abs format (unit mm)*
G04 Created by KiCad (PCBNEW (5.0.1)-4) date 2019/2/20 16:15:56*
%MOMM*%
%LPD*%
G01*
G04 APERTURE LIST*
%ADD10C,0.150000*%
%ADD11C,0.300000*%
%ADD12C,0.120000*%
G04 APERTURE END LIST*
D10*
X131585714Y-78566666D02*
X132252380Y-78328571D01*
X131585714Y-78090476D02*
X132252380Y-78328571D01*
X132490476Y-78423809D01*
X132538095Y-78471428D01*
X132585714Y-78566666D01*
X132204761Y-77328571D02*
X132252380Y-77423809D01*
X132252380Y-77614285D01*
X132204761Y-77709523D01*
X132109523Y-77757142D01*
X131728571Y-77757142D01*
X131633333Y-77709523D01*
X131585714Y-77614285D01*
X131585714Y-77423809D01*
X131633333Y-77328571D01*
X131728571Y-77280952D01*
X131823809Y-77280952D01*
X131919047Y-77757142D01*
X132252380Y-76709523D02*
X132204761Y-76804761D01*
X132109523Y-76852380D01*
X131252380Y-76852380D01*
X132252380Y-76185714D02*
X132204761Y-76280952D01*
X132109523Y-76328571D01*
X131252380Y-76328571D01*
X132252380Y-75661904D02*
X132204761Y-75757142D01*
X132157142Y-75804761D01*
X132061904Y-75852380D01*
X131776190Y-75852380D01*
X131680952Y-75804761D01*
X131633333Y-75757142D01*
X131585714Y-75661904D01*
X131585714Y-75519047D01*
X131633333Y-75423809D01*
X131680952Y-75376190D01*
X131776190Y-75328571D01*
X132061904Y-75328571D01*
X132157142Y-75376190D01*
X132204761Y-75423809D01*
X132252380Y-75519047D01*
X132252380Y-75661904D01*
X131585714Y-74995238D02*
X132252380Y-74804761D01*
X131776190Y-74614285D01*
X132252380Y-74423809D01*
X131585714Y-74233333D01*
X141652380Y-76957142D02*
X140652380Y-76957142D01*
X141033333Y-76957142D02*
X140985714Y-76861904D01*
X140985714Y-76671428D01*
X141033333Y-76576190D01*
X141080952Y-76528571D01*
X141176190Y-76480952D01*
X141461904Y-76480952D01*
X141557142Y-76528571D01*
X141604761Y-76576190D01*
X141652380Y-76671428D01*
X141652380Y-76861904D01*
X141604761Y-76957142D01*
X141652380Y-75909523D02*
X141604761Y-76004761D01*
X141509523Y-76052380D01*
X140652380Y-76052380D01*
X140985714Y-75100000D02*
X141652380Y-75100000D01*
X140985714Y-75528571D02*
X141509523Y-75528571D01*
X141604761Y-75480952D01*
X141652380Y-75385714D01*
X141652380Y-75242857D01*
X141604761Y-75147619D01*
X141557142Y-75100000D01*
X141604761Y-74242857D02*
X141652380Y-74338095D01*
X141652380Y-74528571D01*
X141604761Y-74623809D01*
X141509523Y-74671428D01*
X141128571Y-74671428D01*
X141033333Y-74623809D01*
X140985714Y-74528571D01*
X140985714Y-74338095D01*
X141033333Y-74242857D01*
X141128571Y-74195238D01*
X141223809Y-74195238D01*
X141319047Y-74671428D01*
X130452380Y-84866666D02*
X130452380Y-85438095D01*
X130452380Y-85152380D02*
X129452380Y-85152380D01*
X129595238Y-85247619D01*
X129690476Y-85342857D01*
X129738095Y-85438095D01*
X130452380Y-84438095D02*
X129452380Y-84438095D01*
X130452380Y-83866666D02*
X129880952Y-84295238D01*
X129452380Y-83866666D02*
X130023809Y-84438095D01*
X130452380Y-82723809D02*
X130452380Y-82485714D01*
X130261904Y-82485714D01*
X130214285Y-82580952D01*
X130119047Y-82676190D01*
X129976190Y-82723809D01*
X129738095Y-82723809D01*
X129595238Y-82676190D01*
X129500000Y-82580952D01*
X129452380Y-82438095D01*
X129452380Y-82247619D01*
X129500000Y-82104761D01*
X129595238Y-82009523D01*
X129738095Y-81961904D01*
X129976190Y-81961904D01*
X130119047Y-82009523D01*
X130214285Y-82104761D01*
X130261904Y-82200000D01*
X130452380Y-82200000D01*
X130452380Y-81961904D01*
D11*
X142728571Y-70907142D02*
X143871428Y-70907142D01*
X143300000Y-71478571D02*
X143300000Y-70335714D01*
X143307142Y-81071428D02*
X143307142Y-79928571D01*
D12*
G04 #@! TO.C,SW1*
X135300000Y-78750000D02*
X135050000Y-78750000D01*
X135050000Y-78750000D02*
X135050000Y-72450000D01*
X135050000Y-72450000D02*
X135300000Y-72450000D01*
X139800000Y-78750000D02*
X137200000Y-78750000D01*
X141700000Y-72450000D02*
X141950000Y-72450000D01*
X141950000Y-72450000D02*
X141950000Y-78750000D01*
X141950000Y-78750000D02*
X141700000Y-78750000D01*
X137200000Y-72450000D02*
X139800000Y-72450000D01*
G04 #@! TO.C,D1*
X142165000Y-74000000D02*
X142165000Y-77885000D01*
X142165000Y-77885000D02*
X144435000Y-77885000D01*
X144435000Y-77885000D02*
X144435000Y-74000000D01*
G04 #@! TO.C,D2*
X134835000Y-78585000D02*
X134835000Y-74700000D01*
X132565000Y-78585000D02*
X134835000Y-78585000D01*
X132565000Y-74700000D02*
X132565000Y-78585000D01*
G04 #@! TO.C,J2*
X134410000Y-73530000D02*
X134410000Y-70870000D01*
X129270000Y-73530000D02*
X134410000Y-73530000D01*
X129270000Y-70870000D02*
X134410000Y-70870000D01*
X129270000Y-73530000D02*
X129270000Y-70870000D01*
X128000000Y-73530000D02*
X126670000Y-73530000D01*
X126670000Y-73530000D02*
X126670000Y-72200000D01*
G04 #@! TO.C,R1*
X137090000Y-84102064D02*
X137090000Y-82897936D01*
X138910000Y-84102064D02*
X138910000Y-82897936D01*
G04 #@! TO.C,R2*
X134610000Y-84102064D02*
X134610000Y-82897936D01*
X132790000Y-84102064D02*
X132790000Y-82897936D01*
G04 #@! TO.C,J1*
X142740000Y-100560000D02*
X144860000Y-100560000D01*
X142740000Y-88500000D02*
X142740000Y-100560000D01*
X144860000Y-88500000D02*
X144860000Y-100560000D01*
X142740000Y-88500000D02*
X144860000Y-88500000D01*
X142740000Y-87500000D02*
X142740000Y-86440000D01*
X142740000Y-86440000D02*
X143800000Y-86440000D01*
G04 #@! TO.C,SW1*
D10*
X138904761Y-76933333D02*
X138952380Y-76790476D01*
X138952380Y-76552380D01*
X138904761Y-76457142D01*
X138857142Y-76409523D01*
X138761904Y-76361904D01*
X138666666Y-76361904D01*
X138571428Y-76409523D01*
X138523809Y-76457142D01*
X138476190Y-76552380D01*
X138428571Y-76742857D01*
X138380952Y-76838095D01*
X138333333Y-76885714D01*
X138238095Y-76933333D01*
X138142857Y-76933333D01*
X138047619Y-76885714D01*
X138000000Y-76838095D01*
X137952380Y-76742857D01*
X137952380Y-76504761D01*
X138000000Y-76361904D01*
X137952380Y-76028571D02*
X138952380Y-75790476D01*
X138238095Y-75600000D01*
X138952380Y-75409523D01*
X137952380Y-75171428D01*
X138952380Y-74266666D02*
X138952380Y-74838095D01*
X138952380Y-74552380D02*
X137952380Y-74552380D01*
X138095238Y-74647619D01*
X138190476Y-74742857D01*
X138238095Y-74838095D01*
G04 #@! TO.C,D1*
X143752380Y-79638095D02*
X142752380Y-79638095D01*
X142752380Y-79400000D01*
X142800000Y-79257142D01*
X142895238Y-79161904D01*
X142990476Y-79114285D01*
X143180952Y-79066666D01*
X143323809Y-79066666D01*
X143514285Y-79114285D01*
X143609523Y-79161904D01*
X143704761Y-79257142D01*
X143752380Y-79400000D01*
X143752380Y-79638095D01*
X143752380Y-78114285D02*
X143752380Y-78685714D01*
X143752380Y-78400000D02*
X142752380Y-78400000D01*
X142895238Y-78495238D01*
X142990476Y-78590476D01*
X143038095Y-78685714D01*
G04 #@! TO.C,D2*
X134152380Y-80338095D02*
X133152380Y-80338095D01*
X133152380Y-80100000D01*
X133200000Y-79957142D01*
X133295238Y-79861904D01*
X133390476Y-79814285D01*
X133580952Y-79766666D01*
X133723809Y-79766666D01*
X133914285Y-79814285D01*
X134009523Y-79861904D01*
X134104761Y-79957142D01*
X134152380Y-80100000D01*
X134152380Y-80338095D01*
X133247619Y-79385714D02*
X133200000Y-79338095D01*
X133152380Y-79242857D01*
X133152380Y-79004761D01*
X133200000Y-78909523D01*
X133247619Y-78861904D01*
X133342857Y-78814285D01*
X133438095Y-78814285D01*
X133580952Y-78861904D01*
X134152380Y-79433333D01*
X134152380Y-78814285D01*
G04 #@! TO.C,J2*
X127452380Y-75133333D02*
X128166666Y-75133333D01*
X128309523Y-75180952D01*
X128404761Y-75276190D01*
X128452380Y-75419047D01*
X128452380Y-75514285D01*
X127547619Y-74704761D02*
X127500000Y-74657142D01*
X127452380Y-74561904D01*
X127452380Y-74323809D01*
X127500000Y-74228571D01*
X127547619Y-74180952D01*
X127642857Y-74133333D01*
X127738095Y-74133333D01*
X127880952Y-74180952D01*
X128452380Y-74752380D01*
X128452380Y-74133333D01*
G04 #@! TO.C,R1*
X136632380Y-83666666D02*
X136156190Y-84000000D01*
X136632380Y-84238095D02*
X135632380Y-84238095D01*
X135632380Y-83857142D01*
X135680000Y-83761904D01*
X135727619Y-83714285D01*
X135822857Y-83666666D01*
X135965714Y-83666666D01*
X136060952Y-83714285D01*
X136108571Y-83761904D01*
X136156190Y-83857142D01*
X136156190Y-84238095D01*
X136632380Y-82714285D02*
X136632380Y-83285714D01*
X136632380Y-83000000D02*
X135632380Y-83000000D01*
X135775238Y-83095238D01*
X135870476Y-83190476D01*
X135918095Y-83285714D01*
G04 #@! TO.C,R2*
X132332380Y-83666666D02*
X131856190Y-84000000D01*
X132332380Y-84238095D02*
X131332380Y-84238095D01*
X131332380Y-83857142D01*
X131380000Y-83761904D01*
X131427619Y-83714285D01*
X131522857Y-83666666D01*
X131665714Y-83666666D01*
X131760952Y-83714285D01*
X131808571Y-83761904D01*
X131856190Y-83857142D01*
X131856190Y-84238095D01*
X131427619Y-83285714D02*
X131380000Y-83238095D01*
X131332380Y-83142857D01*
X131332380Y-82904761D01*
X131380000Y-82809523D01*
X131427619Y-82761904D01*
X131522857Y-82714285D01*
X131618095Y-82714285D01*
X131760952Y-82761904D01*
X132332380Y-83333333D01*
X132332380Y-82714285D01*
G04 #@! TO.C,J1*
X141952380Y-85233333D02*
X142666666Y-85233333D01*
X142809523Y-85280952D01*
X142904761Y-85376190D01*
X142952380Y-85519047D01*
X142952380Y-85614285D01*
X142952380Y-84233333D02*
X142952380Y-84804761D01*
X142952380Y-84519047D02*
X141952380Y-84519047D01*
X142095238Y-84614285D01*
X142190476Y-84709523D01*
X142238095Y-84804761D01*
G04 #@! TD*
M02*
