G04 #@! TF.GenerationSoftware,KiCad,Pcbnew,(5.0.1)-4*
G04 #@! TF.CreationDate,2019-02-20T16:16:22+08:00*
G04 #@! TF.ProjectId,Xiaomi2Ali-Smart-Plug-WIFI-Module-Rev.B,5869616F6D6932416C692D536D617274,rev?*
G04 #@! TF.SameCoordinates,Original*
G04 #@! TF.FileFunction,Soldermask,Top*
G04 #@! TF.FilePolarity,Negative*
%FSLAX46Y46*%
G04 Gerber Fmt 4.6, Leading zero omitted, Abs format (unit mm)*
G04 Created by KiCad (PCBNEW (5.0.1)-4) date 2019/2/20 16:16:22*
%MOMM*%
%LPD*%
G01*
G04 APERTURE LIST*
%ADD10C,0.100000*%
G04 APERTURE END LIST*
D10*
G36*
X152251000Y-116201000D02*
X150849000Y-116201000D01*
X150849000Y-114549000D01*
X152251000Y-114549000D01*
X152251000Y-116201000D01*
X152251000Y-116201000D01*
G37*
G36*
X147751000Y-116201000D02*
X146349000Y-116201000D01*
X146349000Y-114549000D01*
X147751000Y-114549000D01*
X147751000Y-116201000D01*
X147751000Y-116201000D01*
G37*
G36*
X160701000Y-115701000D02*
X158899000Y-115701000D01*
X158899000Y-113899000D01*
X160701000Y-113899000D01*
X160701000Y-115701000D01*
X160701000Y-115701000D01*
G37*
G36*
X157370442Y-113905518D02*
X157436627Y-113912037D01*
X157549853Y-113946384D01*
X157606467Y-113963557D01*
X157745087Y-114037652D01*
X157762991Y-114047222D01*
X157798729Y-114076552D01*
X157900186Y-114159814D01*
X157983448Y-114261271D01*
X158012778Y-114297009D01*
X158012779Y-114297011D01*
X158096443Y-114453533D01*
X158096443Y-114453534D01*
X158147963Y-114623373D01*
X158165359Y-114800000D01*
X158147963Y-114976627D01*
X158113616Y-115089853D01*
X158096443Y-115146467D01*
X158022348Y-115285087D01*
X158012778Y-115302991D01*
X157983448Y-115338729D01*
X157900186Y-115440186D01*
X157798729Y-115523448D01*
X157762991Y-115552778D01*
X157762989Y-115552779D01*
X157606467Y-115636443D01*
X157549853Y-115653616D01*
X157436627Y-115687963D01*
X157370442Y-115694482D01*
X157304260Y-115701000D01*
X157215740Y-115701000D01*
X157149558Y-115694482D01*
X157083373Y-115687963D01*
X156970147Y-115653616D01*
X156913533Y-115636443D01*
X156757011Y-115552779D01*
X156757009Y-115552778D01*
X156721271Y-115523448D01*
X156619814Y-115440186D01*
X156536552Y-115338729D01*
X156507222Y-115302991D01*
X156497652Y-115285087D01*
X156423557Y-115146467D01*
X156406384Y-115089853D01*
X156372037Y-114976627D01*
X156354641Y-114800000D01*
X156372037Y-114623373D01*
X156423557Y-114453534D01*
X156423557Y-114453533D01*
X156507221Y-114297011D01*
X156507222Y-114297009D01*
X156536552Y-114261271D01*
X156619814Y-114159814D01*
X156721271Y-114076552D01*
X156757009Y-114047222D01*
X156774913Y-114037652D01*
X156913533Y-113963557D01*
X156970147Y-113946384D01*
X157083373Y-113912037D01*
X157149558Y-113905518D01*
X157215740Y-113899000D01*
X157304260Y-113899000D01*
X157370442Y-113905518D01*
X157370442Y-113905518D01*
G37*
G36*
X154830442Y-113905518D02*
X154896627Y-113912037D01*
X155009853Y-113946384D01*
X155066467Y-113963557D01*
X155205087Y-114037652D01*
X155222991Y-114047222D01*
X155258729Y-114076552D01*
X155360186Y-114159814D01*
X155443448Y-114261271D01*
X155472778Y-114297009D01*
X155472779Y-114297011D01*
X155556443Y-114453533D01*
X155556443Y-114453534D01*
X155607963Y-114623373D01*
X155625359Y-114800000D01*
X155607963Y-114976627D01*
X155573616Y-115089853D01*
X155556443Y-115146467D01*
X155482348Y-115285087D01*
X155472778Y-115302991D01*
X155443448Y-115338729D01*
X155360186Y-115440186D01*
X155258729Y-115523448D01*
X155222991Y-115552778D01*
X155222989Y-115552779D01*
X155066467Y-115636443D01*
X155009853Y-115653616D01*
X154896627Y-115687963D01*
X154830442Y-115694482D01*
X154764260Y-115701000D01*
X154675740Y-115701000D01*
X154609558Y-115694482D01*
X154543373Y-115687963D01*
X154430147Y-115653616D01*
X154373533Y-115636443D01*
X154217011Y-115552779D01*
X154217009Y-115552778D01*
X154181271Y-115523448D01*
X154079814Y-115440186D01*
X153996552Y-115338729D01*
X153967222Y-115302991D01*
X153957652Y-115285087D01*
X153883557Y-115146467D01*
X153866384Y-115089853D01*
X153832037Y-114976627D01*
X153814641Y-114800000D01*
X153832037Y-114623373D01*
X153883557Y-114453534D01*
X153883557Y-114453533D01*
X153967221Y-114297011D01*
X153967222Y-114297009D01*
X153996552Y-114261271D01*
X154079814Y-114159814D01*
X154181271Y-114076552D01*
X154217009Y-114047222D01*
X154234913Y-114037652D01*
X154373533Y-113963557D01*
X154430147Y-113946384D01*
X154543373Y-113912037D01*
X154609558Y-113905518D01*
X154675740Y-113899000D01*
X154764260Y-113899000D01*
X154830442Y-113905518D01*
X154830442Y-113905518D01*
G37*
G36*
X145268604Y-112128347D02*
X145305145Y-112139432D01*
X145338820Y-112157431D01*
X145368341Y-112181659D01*
X145392569Y-112211180D01*
X145410568Y-112244855D01*
X145421653Y-112281396D01*
X145426000Y-112325538D01*
X145426000Y-113274462D01*
X145421653Y-113318604D01*
X145410568Y-113355145D01*
X145392569Y-113388820D01*
X145368341Y-113418341D01*
X145338820Y-113442569D01*
X145305145Y-113460568D01*
X145268604Y-113471653D01*
X145224462Y-113476000D01*
X143775538Y-113476000D01*
X143731396Y-113471653D01*
X143694855Y-113460568D01*
X143661180Y-113442569D01*
X143631659Y-113418341D01*
X143607431Y-113388820D01*
X143589432Y-113355145D01*
X143578347Y-113318604D01*
X143574000Y-113274462D01*
X143574000Y-112325538D01*
X143578347Y-112281396D01*
X143589432Y-112244855D01*
X143607431Y-112211180D01*
X143631659Y-112181659D01*
X143661180Y-112157431D01*
X143694855Y-112139432D01*
X143731396Y-112128347D01*
X143775538Y-112124000D01*
X145224462Y-112124000D01*
X145268604Y-112128347D01*
X145268604Y-112128347D01*
G37*
G36*
X154868604Y-111428347D02*
X154905145Y-111439432D01*
X154938820Y-111457431D01*
X154968341Y-111481659D01*
X154992569Y-111511180D01*
X155010568Y-111544855D01*
X155021653Y-111581396D01*
X155026000Y-111625538D01*
X155026000Y-112574462D01*
X155021653Y-112618604D01*
X155010568Y-112655145D01*
X154992569Y-112688820D01*
X154968341Y-112718341D01*
X154938820Y-112742569D01*
X154905145Y-112760568D01*
X154868604Y-112771653D01*
X154824462Y-112776000D01*
X153375538Y-112776000D01*
X153331396Y-112771653D01*
X153294855Y-112760568D01*
X153261180Y-112742569D01*
X153231659Y-112718341D01*
X153207431Y-112688820D01*
X153189432Y-112655145D01*
X153178347Y-112618604D01*
X153174000Y-112574462D01*
X153174000Y-111625538D01*
X153178347Y-111581396D01*
X153189432Y-111544855D01*
X153207431Y-111511180D01*
X153231659Y-111481659D01*
X153261180Y-111457431D01*
X153294855Y-111439432D01*
X153331396Y-111428347D01*
X153375538Y-111424000D01*
X154824462Y-111424000D01*
X154868604Y-111428347D01*
X154868604Y-111428347D01*
G37*
G36*
X145268604Y-109328347D02*
X145305145Y-109339432D01*
X145338820Y-109357431D01*
X145368341Y-109381659D01*
X145392569Y-109411180D01*
X145410568Y-109444855D01*
X145421653Y-109481396D01*
X145426000Y-109525538D01*
X145426000Y-110474462D01*
X145421653Y-110518604D01*
X145410568Y-110555145D01*
X145392569Y-110588820D01*
X145368341Y-110618341D01*
X145338820Y-110642569D01*
X145305145Y-110660568D01*
X145268604Y-110671653D01*
X145224462Y-110676000D01*
X143775538Y-110676000D01*
X143731396Y-110671653D01*
X143694855Y-110660568D01*
X143661180Y-110642569D01*
X143631659Y-110618341D01*
X143607431Y-110588820D01*
X143589432Y-110555145D01*
X143578347Y-110518604D01*
X143574000Y-110474462D01*
X143574000Y-109525538D01*
X143578347Y-109481396D01*
X143589432Y-109444855D01*
X143607431Y-109411180D01*
X143631659Y-109381659D01*
X143661180Y-109357431D01*
X143694855Y-109339432D01*
X143731396Y-109328347D01*
X143775538Y-109324000D01*
X145224462Y-109324000D01*
X145268604Y-109328347D01*
X145268604Y-109328347D01*
G37*
G36*
X154868604Y-108628347D02*
X154905145Y-108639432D01*
X154938820Y-108657431D01*
X154968341Y-108681659D01*
X154992569Y-108711180D01*
X155010568Y-108744855D01*
X155021653Y-108781396D01*
X155026000Y-108825538D01*
X155026000Y-109774462D01*
X155021653Y-109818604D01*
X155010568Y-109855145D01*
X154992569Y-109888820D01*
X154968341Y-109918341D01*
X154938820Y-109942569D01*
X154905145Y-109960568D01*
X154868604Y-109971653D01*
X154824462Y-109976000D01*
X153375538Y-109976000D01*
X153331396Y-109971653D01*
X153294855Y-109960568D01*
X153261180Y-109942569D01*
X153231659Y-109918341D01*
X153207431Y-109888820D01*
X153189432Y-109855145D01*
X153178347Y-109818604D01*
X153174000Y-109774462D01*
X153174000Y-108825538D01*
X153178347Y-108781396D01*
X153189432Y-108744855D01*
X153207431Y-108711180D01*
X153231659Y-108681659D01*
X153261180Y-108657431D01*
X153294855Y-108639432D01*
X153331396Y-108628347D01*
X153375538Y-108624000D01*
X154824462Y-108624000D01*
X154868604Y-108628347D01*
X154868604Y-108628347D01*
G37*
G36*
X152251000Y-108251000D02*
X150849000Y-108251000D01*
X150849000Y-106599000D01*
X152251000Y-106599000D01*
X152251000Y-108251000D01*
X152251000Y-108251000D01*
G37*
G36*
X147751000Y-108251000D02*
X146349000Y-108251000D01*
X146349000Y-106599000D01*
X147751000Y-106599000D01*
X147751000Y-108251000D01*
X147751000Y-108251000D01*
G37*
G36*
X154868604Y-104228347D02*
X154905145Y-104239432D01*
X154938820Y-104257431D01*
X154968341Y-104281659D01*
X154992569Y-104311180D01*
X155010568Y-104344855D01*
X155021653Y-104381396D01*
X155026000Y-104425538D01*
X155026000Y-105374462D01*
X155021653Y-105418604D01*
X155010568Y-105455145D01*
X154992569Y-105488820D01*
X154968341Y-105518341D01*
X154938820Y-105542569D01*
X154905145Y-105560568D01*
X154868604Y-105571653D01*
X154824462Y-105576000D01*
X153375538Y-105576000D01*
X153331396Y-105571653D01*
X153294855Y-105560568D01*
X153261180Y-105542569D01*
X153231659Y-105518341D01*
X153207431Y-105488820D01*
X153189432Y-105455145D01*
X153178347Y-105418604D01*
X153174000Y-105374462D01*
X153174000Y-104425538D01*
X153178347Y-104381396D01*
X153189432Y-104344855D01*
X153207431Y-104311180D01*
X153231659Y-104281659D01*
X153261180Y-104257431D01*
X153294855Y-104239432D01*
X153331396Y-104228347D01*
X153375538Y-104224000D01*
X154824462Y-104224000D01*
X154868604Y-104228347D01*
X154868604Y-104228347D01*
G37*
G36*
X150568604Y-104228347D02*
X150605145Y-104239432D01*
X150638820Y-104257431D01*
X150668341Y-104281659D01*
X150692569Y-104311180D01*
X150710568Y-104344855D01*
X150721653Y-104381396D01*
X150726000Y-104425538D01*
X150726000Y-105374462D01*
X150721653Y-105418604D01*
X150710568Y-105455145D01*
X150692569Y-105488820D01*
X150668341Y-105518341D01*
X150638820Y-105542569D01*
X150605145Y-105560568D01*
X150568604Y-105571653D01*
X150524462Y-105576000D01*
X149075538Y-105576000D01*
X149031396Y-105571653D01*
X148994855Y-105560568D01*
X148961180Y-105542569D01*
X148931659Y-105518341D01*
X148907431Y-105488820D01*
X148889432Y-105455145D01*
X148878347Y-105418604D01*
X148874000Y-105374462D01*
X148874000Y-104425538D01*
X148878347Y-104381396D01*
X148889432Y-104344855D01*
X148907431Y-104311180D01*
X148931659Y-104281659D01*
X148961180Y-104257431D01*
X148994855Y-104239432D01*
X149031396Y-104228347D01*
X149075538Y-104224000D01*
X150524462Y-104224000D01*
X150568604Y-104228347D01*
X150568604Y-104228347D01*
G37*
G36*
X154868604Y-101428347D02*
X154905145Y-101439432D01*
X154938820Y-101457431D01*
X154968341Y-101481659D01*
X154992569Y-101511180D01*
X155010568Y-101544855D01*
X155021653Y-101581396D01*
X155026000Y-101625538D01*
X155026000Y-102574462D01*
X155021653Y-102618604D01*
X155010568Y-102655145D01*
X154992569Y-102688820D01*
X154968341Y-102718341D01*
X154938820Y-102742569D01*
X154905145Y-102760568D01*
X154868604Y-102771653D01*
X154824462Y-102776000D01*
X153375538Y-102776000D01*
X153331396Y-102771653D01*
X153294855Y-102760568D01*
X153261180Y-102742569D01*
X153231659Y-102718341D01*
X153207431Y-102688820D01*
X153189432Y-102655145D01*
X153178347Y-102618604D01*
X153174000Y-102574462D01*
X153174000Y-101625538D01*
X153178347Y-101581396D01*
X153189432Y-101544855D01*
X153207431Y-101511180D01*
X153231659Y-101481659D01*
X153261180Y-101457431D01*
X153294855Y-101439432D01*
X153331396Y-101428347D01*
X153375538Y-101424000D01*
X154824462Y-101424000D01*
X154868604Y-101428347D01*
X154868604Y-101428347D01*
G37*
G36*
X150568604Y-101428347D02*
X150605145Y-101439432D01*
X150638820Y-101457431D01*
X150668341Y-101481659D01*
X150692569Y-101511180D01*
X150710568Y-101544855D01*
X150721653Y-101581396D01*
X150726000Y-101625538D01*
X150726000Y-102574462D01*
X150721653Y-102618604D01*
X150710568Y-102655145D01*
X150692569Y-102688820D01*
X150668341Y-102718341D01*
X150638820Y-102742569D01*
X150605145Y-102760568D01*
X150568604Y-102771653D01*
X150524462Y-102776000D01*
X149075538Y-102776000D01*
X149031396Y-102771653D01*
X148994855Y-102760568D01*
X148961180Y-102742569D01*
X148931659Y-102718341D01*
X148907431Y-102688820D01*
X148889432Y-102655145D01*
X148878347Y-102618604D01*
X148874000Y-102574462D01*
X148874000Y-101625538D01*
X148878347Y-101581396D01*
X148889432Y-101544855D01*
X148907431Y-101511180D01*
X148931659Y-101481659D01*
X148961180Y-101457431D01*
X148994855Y-101439432D01*
X149031396Y-101428347D01*
X149075538Y-101424000D01*
X150524462Y-101424000D01*
X150568604Y-101428347D01*
X150568604Y-101428347D01*
G37*
G36*
X144726000Y-100226000D02*
X143074000Y-100226000D01*
X143074000Y-98774000D01*
X144726000Y-98774000D01*
X144726000Y-100226000D01*
X144726000Y-100226000D01*
G37*
G36*
X144726000Y-98226000D02*
X143074000Y-98226000D01*
X143074000Y-96774000D01*
X144726000Y-96774000D01*
X144726000Y-98226000D01*
X144726000Y-98226000D01*
G37*
G36*
X144726000Y-96226000D02*
X143074000Y-96226000D01*
X143074000Y-94774000D01*
X144726000Y-94774000D01*
X144726000Y-96226000D01*
X144726000Y-96226000D01*
G37*
G36*
X144726000Y-94226000D02*
X143074000Y-94226000D01*
X143074000Y-92774000D01*
X144726000Y-92774000D01*
X144726000Y-94226000D01*
X144726000Y-94226000D01*
G37*
G36*
X144726000Y-92226000D02*
X143074000Y-92226000D01*
X143074000Y-90774000D01*
X144726000Y-90774000D01*
X144726000Y-92226000D01*
X144726000Y-92226000D01*
G37*
G36*
X144726000Y-90226000D02*
X143074000Y-90226000D01*
X143074000Y-88774000D01*
X144726000Y-88774000D01*
X144726000Y-90226000D01*
X144726000Y-90226000D01*
G37*
G36*
X144726000Y-88226000D02*
X143074000Y-88226000D01*
X143074000Y-86774000D01*
X144726000Y-86774000D01*
X144726000Y-88226000D01*
X144726000Y-88226000D01*
G37*
G36*
X138768604Y-84228347D02*
X138805145Y-84239432D01*
X138838820Y-84257431D01*
X138868341Y-84281659D01*
X138892569Y-84311180D01*
X138910568Y-84344855D01*
X138921653Y-84381396D01*
X138926000Y-84425538D01*
X138926000Y-85374462D01*
X138921653Y-85418604D01*
X138910568Y-85455145D01*
X138892569Y-85488820D01*
X138868341Y-85518341D01*
X138838820Y-85542569D01*
X138805145Y-85560568D01*
X138768604Y-85571653D01*
X138724462Y-85576000D01*
X137275538Y-85576000D01*
X137231396Y-85571653D01*
X137194855Y-85560568D01*
X137161180Y-85542569D01*
X137131659Y-85518341D01*
X137107431Y-85488820D01*
X137089432Y-85455145D01*
X137078347Y-85418604D01*
X137074000Y-85374462D01*
X137074000Y-84425538D01*
X137078347Y-84381396D01*
X137089432Y-84344855D01*
X137107431Y-84311180D01*
X137131659Y-84281659D01*
X137161180Y-84257431D01*
X137194855Y-84239432D01*
X137231396Y-84228347D01*
X137275538Y-84224000D01*
X138724462Y-84224000D01*
X138768604Y-84228347D01*
X138768604Y-84228347D01*
G37*
G36*
X134468604Y-84228347D02*
X134505145Y-84239432D01*
X134538820Y-84257431D01*
X134568341Y-84281659D01*
X134592569Y-84311180D01*
X134610568Y-84344855D01*
X134621653Y-84381396D01*
X134626000Y-84425538D01*
X134626000Y-85374462D01*
X134621653Y-85418604D01*
X134610568Y-85455145D01*
X134592569Y-85488820D01*
X134568341Y-85518341D01*
X134538820Y-85542569D01*
X134505145Y-85560568D01*
X134468604Y-85571653D01*
X134424462Y-85576000D01*
X132975538Y-85576000D01*
X132931396Y-85571653D01*
X132894855Y-85560568D01*
X132861180Y-85542569D01*
X132831659Y-85518341D01*
X132807431Y-85488820D01*
X132789432Y-85455145D01*
X132778347Y-85418604D01*
X132774000Y-85374462D01*
X132774000Y-84425538D01*
X132778347Y-84381396D01*
X132789432Y-84344855D01*
X132807431Y-84311180D01*
X132831659Y-84281659D01*
X132861180Y-84257431D01*
X132894855Y-84239432D01*
X132931396Y-84228347D01*
X132975538Y-84224000D01*
X134424462Y-84224000D01*
X134468604Y-84228347D01*
X134468604Y-84228347D01*
G37*
G36*
X134468604Y-81428347D02*
X134505145Y-81439432D01*
X134538820Y-81457431D01*
X134568341Y-81481659D01*
X134592569Y-81511180D01*
X134610568Y-81544855D01*
X134621653Y-81581396D01*
X134626000Y-81625538D01*
X134626000Y-82574462D01*
X134621653Y-82618604D01*
X134610568Y-82655145D01*
X134592569Y-82688820D01*
X134568341Y-82718341D01*
X134538820Y-82742569D01*
X134505145Y-82760568D01*
X134468604Y-82771653D01*
X134424462Y-82776000D01*
X132975538Y-82776000D01*
X132931396Y-82771653D01*
X132894855Y-82760568D01*
X132861180Y-82742569D01*
X132831659Y-82718341D01*
X132807431Y-82688820D01*
X132789432Y-82655145D01*
X132778347Y-82618604D01*
X132774000Y-82574462D01*
X132774000Y-81625538D01*
X132778347Y-81581396D01*
X132789432Y-81544855D01*
X132807431Y-81511180D01*
X132831659Y-81481659D01*
X132861180Y-81457431D01*
X132894855Y-81439432D01*
X132931396Y-81428347D01*
X132975538Y-81424000D01*
X134424462Y-81424000D01*
X134468604Y-81428347D01*
X134468604Y-81428347D01*
G37*
G36*
X138768604Y-81428347D02*
X138805145Y-81439432D01*
X138838820Y-81457431D01*
X138868341Y-81481659D01*
X138892569Y-81511180D01*
X138910568Y-81544855D01*
X138921653Y-81581396D01*
X138926000Y-81625538D01*
X138926000Y-82574462D01*
X138921653Y-82618604D01*
X138910568Y-82655145D01*
X138892569Y-82688820D01*
X138868341Y-82718341D01*
X138838820Y-82742569D01*
X138805145Y-82760568D01*
X138768604Y-82771653D01*
X138724462Y-82776000D01*
X137275538Y-82776000D01*
X137231396Y-82771653D01*
X137194855Y-82760568D01*
X137161180Y-82742569D01*
X137131659Y-82718341D01*
X137107431Y-82688820D01*
X137089432Y-82655145D01*
X137078347Y-82618604D01*
X137074000Y-82574462D01*
X137074000Y-81625538D01*
X137078347Y-81581396D01*
X137089432Y-81544855D01*
X137107431Y-81511180D01*
X137131659Y-81481659D01*
X137161180Y-81457431D01*
X137194855Y-81439432D01*
X137231396Y-81428347D01*
X137275538Y-81424000D01*
X138724462Y-81424000D01*
X138768604Y-81428347D01*
X138768604Y-81428347D01*
G37*
G36*
X141451000Y-80401000D02*
X140049000Y-80401000D01*
X140049000Y-78749000D01*
X141451000Y-78749000D01*
X141451000Y-80401000D01*
X141451000Y-80401000D01*
G37*
G36*
X136951000Y-80401000D02*
X135549000Y-80401000D01*
X135549000Y-78749000D01*
X136951000Y-78749000D01*
X136951000Y-80401000D01*
X136951000Y-80401000D01*
G37*
G36*
X134468604Y-77028347D02*
X134505145Y-77039432D01*
X134538820Y-77057431D01*
X134568341Y-77081659D01*
X134592569Y-77111180D01*
X134610568Y-77144855D01*
X134621653Y-77181396D01*
X134626000Y-77225538D01*
X134626000Y-78174462D01*
X134621653Y-78218604D01*
X134610568Y-78255145D01*
X134592569Y-78288820D01*
X134568341Y-78318341D01*
X134538820Y-78342569D01*
X134505145Y-78360568D01*
X134468604Y-78371653D01*
X134424462Y-78376000D01*
X132975538Y-78376000D01*
X132931396Y-78371653D01*
X132894855Y-78360568D01*
X132861180Y-78342569D01*
X132831659Y-78318341D01*
X132807431Y-78288820D01*
X132789432Y-78255145D01*
X132778347Y-78218604D01*
X132774000Y-78174462D01*
X132774000Y-77225538D01*
X132778347Y-77181396D01*
X132789432Y-77144855D01*
X132807431Y-77111180D01*
X132831659Y-77081659D01*
X132861180Y-77057431D01*
X132894855Y-77039432D01*
X132931396Y-77028347D01*
X132975538Y-77024000D01*
X134424462Y-77024000D01*
X134468604Y-77028347D01*
X134468604Y-77028347D01*
G37*
G36*
X144068604Y-76328347D02*
X144105145Y-76339432D01*
X144138820Y-76357431D01*
X144168341Y-76381659D01*
X144192569Y-76411180D01*
X144210568Y-76444855D01*
X144221653Y-76481396D01*
X144226000Y-76525538D01*
X144226000Y-77474462D01*
X144221653Y-77518604D01*
X144210568Y-77555145D01*
X144192569Y-77588820D01*
X144168341Y-77618341D01*
X144138820Y-77642569D01*
X144105145Y-77660568D01*
X144068604Y-77671653D01*
X144024462Y-77676000D01*
X142575538Y-77676000D01*
X142531396Y-77671653D01*
X142494855Y-77660568D01*
X142461180Y-77642569D01*
X142431659Y-77618341D01*
X142407431Y-77588820D01*
X142389432Y-77555145D01*
X142378347Y-77518604D01*
X142374000Y-77474462D01*
X142374000Y-76525538D01*
X142378347Y-76481396D01*
X142389432Y-76444855D01*
X142407431Y-76411180D01*
X142431659Y-76381659D01*
X142461180Y-76357431D01*
X142494855Y-76339432D01*
X142531396Y-76328347D01*
X142575538Y-76324000D01*
X144024462Y-76324000D01*
X144068604Y-76328347D01*
X144068604Y-76328347D01*
G37*
G36*
X134468604Y-74228347D02*
X134505145Y-74239432D01*
X134538820Y-74257431D01*
X134568341Y-74281659D01*
X134592569Y-74311180D01*
X134610568Y-74344855D01*
X134621653Y-74381396D01*
X134626000Y-74425538D01*
X134626000Y-75374462D01*
X134621653Y-75418604D01*
X134610568Y-75455145D01*
X134592569Y-75488820D01*
X134568341Y-75518341D01*
X134538820Y-75542569D01*
X134505145Y-75560568D01*
X134468604Y-75571653D01*
X134424462Y-75576000D01*
X132975538Y-75576000D01*
X132931396Y-75571653D01*
X132894855Y-75560568D01*
X132861180Y-75542569D01*
X132831659Y-75518341D01*
X132807431Y-75488820D01*
X132789432Y-75455145D01*
X132778347Y-75418604D01*
X132774000Y-75374462D01*
X132774000Y-74425538D01*
X132778347Y-74381396D01*
X132789432Y-74344855D01*
X132807431Y-74311180D01*
X132831659Y-74281659D01*
X132861180Y-74257431D01*
X132894855Y-74239432D01*
X132931396Y-74228347D01*
X132975538Y-74224000D01*
X134424462Y-74224000D01*
X134468604Y-74228347D01*
X134468604Y-74228347D01*
G37*
G36*
X144068604Y-73528347D02*
X144105145Y-73539432D01*
X144138820Y-73557431D01*
X144168341Y-73581659D01*
X144192569Y-73611180D01*
X144210568Y-73644855D01*
X144221653Y-73681396D01*
X144226000Y-73725538D01*
X144226000Y-74674462D01*
X144221653Y-74718604D01*
X144210568Y-74755145D01*
X144192569Y-74788820D01*
X144168341Y-74818341D01*
X144138820Y-74842569D01*
X144105145Y-74860568D01*
X144068604Y-74871653D01*
X144024462Y-74876000D01*
X142575538Y-74876000D01*
X142531396Y-74871653D01*
X142494855Y-74860568D01*
X142461180Y-74842569D01*
X142431659Y-74818341D01*
X142407431Y-74788820D01*
X142389432Y-74755145D01*
X142378347Y-74718604D01*
X142374000Y-74674462D01*
X142374000Y-73725538D01*
X142378347Y-73681396D01*
X142389432Y-73644855D01*
X142407431Y-73611180D01*
X142431659Y-73581659D01*
X142461180Y-73557431D01*
X142494855Y-73539432D01*
X142531396Y-73528347D01*
X142575538Y-73524000D01*
X144024462Y-73524000D01*
X144068604Y-73528347D01*
X144068604Y-73528347D01*
G37*
G36*
X133190442Y-71305518D02*
X133256627Y-71312037D01*
X133369853Y-71346384D01*
X133426467Y-71363557D01*
X133565087Y-71437652D01*
X133582991Y-71447222D01*
X133618729Y-71476552D01*
X133720186Y-71559814D01*
X133803448Y-71661271D01*
X133832778Y-71697009D01*
X133832779Y-71697011D01*
X133916443Y-71853533D01*
X133916443Y-71853534D01*
X133967963Y-72023373D01*
X133985359Y-72200000D01*
X133967963Y-72376627D01*
X133945402Y-72451000D01*
X133916443Y-72546467D01*
X133842348Y-72685087D01*
X133832778Y-72702991D01*
X133803448Y-72738729D01*
X133720186Y-72840186D01*
X133618729Y-72923448D01*
X133582991Y-72952778D01*
X133582989Y-72952779D01*
X133426467Y-73036443D01*
X133369853Y-73053616D01*
X133256627Y-73087963D01*
X133190442Y-73094482D01*
X133124260Y-73101000D01*
X133035740Y-73101000D01*
X132969558Y-73094482D01*
X132903373Y-73087963D01*
X132790147Y-73053616D01*
X132733533Y-73036443D01*
X132577011Y-72952779D01*
X132577009Y-72952778D01*
X132541271Y-72923448D01*
X132439814Y-72840186D01*
X132356552Y-72738729D01*
X132327222Y-72702991D01*
X132317652Y-72685087D01*
X132243557Y-72546467D01*
X132214598Y-72451000D01*
X132192037Y-72376627D01*
X132174641Y-72200000D01*
X132192037Y-72023373D01*
X132243557Y-71853534D01*
X132243557Y-71853533D01*
X132327221Y-71697011D01*
X132327222Y-71697009D01*
X132356552Y-71661271D01*
X132439814Y-71559814D01*
X132541271Y-71476552D01*
X132577009Y-71447222D01*
X132594913Y-71437652D01*
X132733533Y-71363557D01*
X132790147Y-71346384D01*
X132903373Y-71312037D01*
X132969558Y-71305518D01*
X133035740Y-71299000D01*
X133124260Y-71299000D01*
X133190442Y-71305518D01*
X133190442Y-71305518D01*
G37*
G36*
X128901000Y-73101000D02*
X127099000Y-73101000D01*
X127099000Y-71299000D01*
X128901000Y-71299000D01*
X128901000Y-73101000D01*
X128901000Y-73101000D01*
G37*
G36*
X130650442Y-71305518D02*
X130716627Y-71312037D01*
X130829853Y-71346384D01*
X130886467Y-71363557D01*
X131025087Y-71437652D01*
X131042991Y-71447222D01*
X131078729Y-71476552D01*
X131180186Y-71559814D01*
X131263448Y-71661271D01*
X131292778Y-71697009D01*
X131292779Y-71697011D01*
X131376443Y-71853533D01*
X131376443Y-71853534D01*
X131427963Y-72023373D01*
X131445359Y-72200000D01*
X131427963Y-72376627D01*
X131405402Y-72451000D01*
X131376443Y-72546467D01*
X131302348Y-72685087D01*
X131292778Y-72702991D01*
X131263448Y-72738729D01*
X131180186Y-72840186D01*
X131078729Y-72923448D01*
X131042991Y-72952778D01*
X131042989Y-72952779D01*
X130886467Y-73036443D01*
X130829853Y-73053616D01*
X130716627Y-73087963D01*
X130650442Y-73094482D01*
X130584260Y-73101000D01*
X130495740Y-73101000D01*
X130429558Y-73094482D01*
X130363373Y-73087963D01*
X130250147Y-73053616D01*
X130193533Y-73036443D01*
X130037011Y-72952779D01*
X130037009Y-72952778D01*
X130001271Y-72923448D01*
X129899814Y-72840186D01*
X129816552Y-72738729D01*
X129787222Y-72702991D01*
X129777652Y-72685087D01*
X129703557Y-72546467D01*
X129674598Y-72451000D01*
X129652037Y-72376627D01*
X129634641Y-72200000D01*
X129652037Y-72023373D01*
X129703557Y-71853534D01*
X129703557Y-71853533D01*
X129787221Y-71697011D01*
X129787222Y-71697009D01*
X129816552Y-71661271D01*
X129899814Y-71559814D01*
X130001271Y-71476552D01*
X130037009Y-71447222D01*
X130054913Y-71437652D01*
X130193533Y-71363557D01*
X130250147Y-71346384D01*
X130363373Y-71312037D01*
X130429558Y-71305518D01*
X130495740Y-71299000D01*
X130584260Y-71299000D01*
X130650442Y-71305518D01*
X130650442Y-71305518D01*
G37*
G36*
X141451000Y-72451000D02*
X140049000Y-72451000D01*
X140049000Y-70799000D01*
X141451000Y-70799000D01*
X141451000Y-72451000D01*
X141451000Y-72451000D01*
G37*
G36*
X136951000Y-72451000D02*
X135549000Y-72451000D01*
X135549000Y-70799000D01*
X136951000Y-70799000D01*
X136951000Y-72451000D01*
X136951000Y-72451000D01*
G37*
M02*
