G04 #@! TF.GenerationSoftware,KiCad,Pcbnew,(5.0.1)-4*
G04 #@! TF.CreationDate,2019-02-20T16:16:22+08:00*
G04 #@! TF.ProjectId,Xiaomi2Ali-Smart-Plug-WIFI-Module-Rev.B,5869616F6D6932416C692D536D617274,rev?*
G04 #@! TF.SameCoordinates,Original*
G04 #@! TF.FileFunction,Legend,Top*
G04 #@! TF.FilePolarity,Positive*
%FSLAX46Y46*%
G04 Gerber Fmt 4.6, Leading zero omitted, Abs format (unit mm)*
G04 Created by KiCad (PCBNEW (5.0.1)-4) date 2019/2/20 16:16:22*
%MOMM*%
%LPD*%
G01*
G04 APERTURE LIST*
%ADD10C,0.150000*%
%ADD11C,0.300000*%
%ADD12C,0.120000*%
G04 APERTURE END LIST*
D10*
X157347619Y-102133333D02*
X157347619Y-101561904D01*
X157347619Y-101847619D02*
X158347619Y-101847619D01*
X158204761Y-101752380D01*
X158109523Y-101657142D01*
X158061904Y-101561904D01*
X157347619Y-102561904D02*
X158347619Y-102561904D01*
X157347619Y-103133333D02*
X157919047Y-102704761D01*
X158347619Y-103133333D02*
X157776190Y-102561904D01*
X157347619Y-104276190D02*
X157347619Y-104514285D01*
X157538095Y-104514285D01*
X157585714Y-104419047D01*
X157680952Y-104323809D01*
X157823809Y-104276190D01*
X158061904Y-104276190D01*
X158204761Y-104323809D01*
X158300000Y-104419047D01*
X158347619Y-104561904D01*
X158347619Y-104752380D01*
X158300000Y-104895238D01*
X158204761Y-104990476D01*
X158061904Y-105038095D01*
X157823809Y-105038095D01*
X157680952Y-104990476D01*
X157585714Y-104895238D01*
X157538095Y-104800000D01*
X157347619Y-104800000D01*
X157347619Y-105038095D01*
X156214285Y-108433333D02*
X155547619Y-108671428D01*
X156214285Y-108909523D02*
X155547619Y-108671428D01*
X155309523Y-108576190D01*
X155261904Y-108528571D01*
X155214285Y-108433333D01*
X155595238Y-109671428D02*
X155547619Y-109576190D01*
X155547619Y-109385714D01*
X155595238Y-109290476D01*
X155690476Y-109242857D01*
X156071428Y-109242857D01*
X156166666Y-109290476D01*
X156214285Y-109385714D01*
X156214285Y-109576190D01*
X156166666Y-109671428D01*
X156071428Y-109719047D01*
X155976190Y-109719047D01*
X155880952Y-109242857D01*
X155547619Y-110290476D02*
X155595238Y-110195238D01*
X155690476Y-110147619D01*
X156547619Y-110147619D01*
X155547619Y-110814285D02*
X155595238Y-110719047D01*
X155690476Y-110671428D01*
X156547619Y-110671428D01*
X155547619Y-111338095D02*
X155595238Y-111242857D01*
X155642857Y-111195238D01*
X155738095Y-111147619D01*
X156023809Y-111147619D01*
X156119047Y-111195238D01*
X156166666Y-111242857D01*
X156214285Y-111338095D01*
X156214285Y-111480952D01*
X156166666Y-111576190D01*
X156119047Y-111623809D01*
X156023809Y-111671428D01*
X155738095Y-111671428D01*
X155642857Y-111623809D01*
X155595238Y-111576190D01*
X155547619Y-111480952D01*
X155547619Y-111338095D01*
X156214285Y-112004761D02*
X155547619Y-112195238D01*
X156023809Y-112385714D01*
X155547619Y-112576190D01*
X156214285Y-112766666D01*
D11*
X145071428Y-116092857D02*
X143928571Y-116092857D01*
X144500000Y-115521428D02*
X144500000Y-116664285D01*
X144492857Y-105928571D02*
X144492857Y-107071428D01*
D10*
X146147619Y-110042857D02*
X147147619Y-110042857D01*
X146766666Y-110042857D02*
X146814285Y-110138095D01*
X146814285Y-110328571D01*
X146766666Y-110423809D01*
X146719047Y-110471428D01*
X146623809Y-110519047D01*
X146338095Y-110519047D01*
X146242857Y-110471428D01*
X146195238Y-110423809D01*
X146147619Y-110328571D01*
X146147619Y-110138095D01*
X146195238Y-110042857D01*
X146147619Y-111090476D02*
X146195238Y-110995238D01*
X146290476Y-110947619D01*
X147147619Y-110947619D01*
X146814285Y-111900000D02*
X146147619Y-111900000D01*
X146814285Y-111471428D02*
X146290476Y-111471428D01*
X146195238Y-111519047D01*
X146147619Y-111614285D01*
X146147619Y-111757142D01*
X146195238Y-111852380D01*
X146242857Y-111900000D01*
X146195238Y-112757142D02*
X146147619Y-112661904D01*
X146147619Y-112471428D01*
X146195238Y-112376190D01*
X146290476Y-112328571D01*
X146671428Y-112328571D01*
X146766666Y-112376190D01*
X146814285Y-112471428D01*
X146814285Y-112661904D01*
X146766666Y-112757142D01*
X146671428Y-112804761D01*
X146576190Y-112804761D01*
X146480952Y-112328571D01*
X131585714Y-78566666D02*
X132252380Y-78328571D01*
X131585714Y-78090476D02*
X132252380Y-78328571D01*
X132490476Y-78423809D01*
X132538095Y-78471428D01*
X132585714Y-78566666D01*
X132204761Y-77328571D02*
X132252380Y-77423809D01*
X132252380Y-77614285D01*
X132204761Y-77709523D01*
X132109523Y-77757142D01*
X131728571Y-77757142D01*
X131633333Y-77709523D01*
X131585714Y-77614285D01*
X131585714Y-77423809D01*
X131633333Y-77328571D01*
X131728571Y-77280952D01*
X131823809Y-77280952D01*
X131919047Y-77757142D01*
X132252380Y-76709523D02*
X132204761Y-76804761D01*
X132109523Y-76852380D01*
X131252380Y-76852380D01*
X132252380Y-76185714D02*
X132204761Y-76280952D01*
X132109523Y-76328571D01*
X131252380Y-76328571D01*
X132252380Y-75661904D02*
X132204761Y-75757142D01*
X132157142Y-75804761D01*
X132061904Y-75852380D01*
X131776190Y-75852380D01*
X131680952Y-75804761D01*
X131633333Y-75757142D01*
X131585714Y-75661904D01*
X131585714Y-75519047D01*
X131633333Y-75423809D01*
X131680952Y-75376190D01*
X131776190Y-75328571D01*
X132061904Y-75328571D01*
X132157142Y-75376190D01*
X132204761Y-75423809D01*
X132252380Y-75519047D01*
X132252380Y-75661904D01*
X131585714Y-74995238D02*
X132252380Y-74804761D01*
X131776190Y-74614285D01*
X132252380Y-74423809D01*
X131585714Y-74233333D01*
X141652380Y-76957142D02*
X140652380Y-76957142D01*
X141033333Y-76957142D02*
X140985714Y-76861904D01*
X140985714Y-76671428D01*
X141033333Y-76576190D01*
X141080952Y-76528571D01*
X141176190Y-76480952D01*
X141461904Y-76480952D01*
X141557142Y-76528571D01*
X141604761Y-76576190D01*
X141652380Y-76671428D01*
X141652380Y-76861904D01*
X141604761Y-76957142D01*
X141652380Y-75909523D02*
X141604761Y-76004761D01*
X141509523Y-76052380D01*
X140652380Y-76052380D01*
X140985714Y-75100000D02*
X141652380Y-75100000D01*
X140985714Y-75528571D02*
X141509523Y-75528571D01*
X141604761Y-75480952D01*
X141652380Y-75385714D01*
X141652380Y-75242857D01*
X141604761Y-75147619D01*
X141557142Y-75100000D01*
X141604761Y-74242857D02*
X141652380Y-74338095D01*
X141652380Y-74528571D01*
X141604761Y-74623809D01*
X141509523Y-74671428D01*
X141128571Y-74671428D01*
X141033333Y-74623809D01*
X140985714Y-74528571D01*
X140985714Y-74338095D01*
X141033333Y-74242857D01*
X141128571Y-74195238D01*
X141223809Y-74195238D01*
X141319047Y-74671428D01*
X130452380Y-84866666D02*
X130452380Y-85438095D01*
X130452380Y-85152380D02*
X129452380Y-85152380D01*
X129595238Y-85247619D01*
X129690476Y-85342857D01*
X129738095Y-85438095D01*
X130452380Y-84438095D02*
X129452380Y-84438095D01*
X130452380Y-83866666D02*
X129880952Y-84295238D01*
X129452380Y-83866666D02*
X130023809Y-84438095D01*
X130452380Y-82723809D02*
X130452380Y-82485714D01*
X130261904Y-82485714D01*
X130214285Y-82580952D01*
X130119047Y-82676190D01*
X129976190Y-82723809D01*
X129738095Y-82723809D01*
X129595238Y-82676190D01*
X129500000Y-82580952D01*
X129452380Y-82438095D01*
X129452380Y-82247619D01*
X129500000Y-82104761D01*
X129595238Y-82009523D01*
X129738095Y-81961904D01*
X129976190Y-81961904D01*
X130119047Y-82009523D01*
X130214285Y-82104761D01*
X130261904Y-82200000D01*
X130452380Y-82200000D01*
X130452380Y-81961904D01*
D11*
X142728571Y-70907142D02*
X143871428Y-70907142D01*
X143300000Y-71478571D02*
X143300000Y-70335714D01*
X143307142Y-81071428D02*
X143307142Y-79928571D01*
D12*
G04 #@! TO.C,SW1*
X150600000Y-114550000D02*
X148000000Y-114550000D01*
X145850000Y-108250000D02*
X146100000Y-108250000D01*
X145850000Y-114550000D02*
X145850000Y-108250000D01*
X146100000Y-114550000D02*
X145850000Y-114550000D01*
X148000000Y-108250000D02*
X150600000Y-108250000D01*
X152750000Y-114550000D02*
X152500000Y-114550000D01*
X152750000Y-108250000D02*
X152750000Y-114550000D01*
X152500000Y-108250000D02*
X152750000Y-108250000D01*
G04 #@! TO.C,R2*
X155010000Y-102897936D02*
X155010000Y-104102064D01*
X153190000Y-102897936D02*
X153190000Y-104102064D01*
G04 #@! TO.C,J1*
X145060000Y-100560000D02*
X144000000Y-100560000D01*
X145060000Y-99500000D02*
X145060000Y-100560000D01*
X145060000Y-98500000D02*
X142940000Y-98500000D01*
X142940000Y-98500000D02*
X142940000Y-86440000D01*
X145060000Y-98500000D02*
X145060000Y-86440000D01*
X145060000Y-86440000D02*
X142940000Y-86440000D01*
G04 #@! TO.C,R1*
X148890000Y-102897936D02*
X148890000Y-104102064D01*
X150710000Y-102897936D02*
X150710000Y-104102064D01*
G04 #@! TO.C,J2*
X161130000Y-113470000D02*
X161130000Y-114800000D01*
X159800000Y-113470000D02*
X161130000Y-113470000D01*
X158530000Y-113470000D02*
X158530000Y-116130000D01*
X158530000Y-116130000D02*
X153390000Y-116130000D01*
X158530000Y-113470000D02*
X153390000Y-113470000D01*
X153390000Y-113470000D02*
X153390000Y-116130000D01*
G04 #@! TO.C,D2*
X155235000Y-112300000D02*
X155235000Y-108415000D01*
X155235000Y-108415000D02*
X152965000Y-108415000D01*
X152965000Y-108415000D02*
X152965000Y-112300000D01*
G04 #@! TO.C,D1*
X143365000Y-109115000D02*
X143365000Y-113000000D01*
X145635000Y-109115000D02*
X143365000Y-109115000D01*
X145635000Y-113000000D02*
X145635000Y-109115000D01*
G04 #@! TO.C,SW1*
X135300000Y-78750000D02*
X135050000Y-78750000D01*
X135050000Y-78750000D02*
X135050000Y-72450000D01*
X135050000Y-72450000D02*
X135300000Y-72450000D01*
X139800000Y-78750000D02*
X137200000Y-78750000D01*
X141700000Y-72450000D02*
X141950000Y-72450000D01*
X141950000Y-72450000D02*
X141950000Y-78750000D01*
X141950000Y-78750000D02*
X141700000Y-78750000D01*
X137200000Y-72450000D02*
X139800000Y-72450000D01*
G04 #@! TO.C,D1*
X142165000Y-74000000D02*
X142165000Y-77885000D01*
X142165000Y-77885000D02*
X144435000Y-77885000D01*
X144435000Y-77885000D02*
X144435000Y-74000000D01*
G04 #@! TO.C,D2*
X134835000Y-78585000D02*
X134835000Y-74700000D01*
X132565000Y-78585000D02*
X134835000Y-78585000D01*
X132565000Y-74700000D02*
X132565000Y-78585000D01*
G04 #@! TO.C,J2*
X134410000Y-73530000D02*
X134410000Y-70870000D01*
X129270000Y-73530000D02*
X134410000Y-73530000D01*
X129270000Y-70870000D02*
X134410000Y-70870000D01*
X129270000Y-73530000D02*
X129270000Y-70870000D01*
X128000000Y-73530000D02*
X126670000Y-73530000D01*
X126670000Y-73530000D02*
X126670000Y-72200000D01*
G04 #@! TO.C,R1*
X137090000Y-84102064D02*
X137090000Y-82897936D01*
X138910000Y-84102064D02*
X138910000Y-82897936D01*
G04 #@! TO.C,R2*
X134610000Y-84102064D02*
X134610000Y-82897936D01*
X132790000Y-84102064D02*
X132790000Y-82897936D01*
G04 #@! TO.C,J1*
X142740000Y-100560000D02*
X144860000Y-100560000D01*
X142740000Y-88500000D02*
X142740000Y-100560000D01*
X144860000Y-88500000D02*
X144860000Y-100560000D01*
X142740000Y-88500000D02*
X144860000Y-88500000D01*
X142740000Y-87500000D02*
X142740000Y-86440000D01*
X142740000Y-86440000D02*
X143800000Y-86440000D01*
G04 #@! TO.C,SW1*
D10*
X149704761Y-112733333D02*
X149752380Y-112590476D01*
X149752380Y-112352380D01*
X149704761Y-112257142D01*
X149657142Y-112209523D01*
X149561904Y-112161904D01*
X149466666Y-112161904D01*
X149371428Y-112209523D01*
X149323809Y-112257142D01*
X149276190Y-112352380D01*
X149228571Y-112542857D01*
X149180952Y-112638095D01*
X149133333Y-112685714D01*
X149038095Y-112733333D01*
X148942857Y-112733333D01*
X148847619Y-112685714D01*
X148800000Y-112638095D01*
X148752380Y-112542857D01*
X148752380Y-112304761D01*
X148800000Y-112161904D01*
X148752380Y-111828571D02*
X149752380Y-111590476D01*
X149038095Y-111400000D01*
X149752380Y-111209523D01*
X148752380Y-110971428D01*
X149752380Y-110066666D02*
X149752380Y-110638095D01*
X149752380Y-110352380D02*
X148752380Y-110352380D01*
X148895238Y-110447619D01*
X148990476Y-110542857D01*
X149038095Y-110638095D01*
G04 #@! TO.C,R2*
X156372380Y-103666666D02*
X155896190Y-104000000D01*
X156372380Y-104238095D02*
X155372380Y-104238095D01*
X155372380Y-103857142D01*
X155420000Y-103761904D01*
X155467619Y-103714285D01*
X155562857Y-103666666D01*
X155705714Y-103666666D01*
X155800952Y-103714285D01*
X155848571Y-103761904D01*
X155896190Y-103857142D01*
X155896190Y-104238095D01*
X155467619Y-103285714D02*
X155420000Y-103238095D01*
X155372380Y-103142857D01*
X155372380Y-102904761D01*
X155420000Y-102809523D01*
X155467619Y-102761904D01*
X155562857Y-102714285D01*
X155658095Y-102714285D01*
X155800952Y-102761904D01*
X156372380Y-103333333D01*
X156372380Y-102714285D01*
G04 #@! TO.C,J1*
X144752380Y-102433333D02*
X145466666Y-102433333D01*
X145609523Y-102480952D01*
X145704761Y-102576190D01*
X145752380Y-102719047D01*
X145752380Y-102814285D01*
X145752380Y-101433333D02*
X145752380Y-102004761D01*
X145752380Y-101719047D02*
X144752380Y-101719047D01*
X144895238Y-101814285D01*
X144990476Y-101909523D01*
X145038095Y-102004761D01*
G04 #@! TO.C,R1*
X152072380Y-103666666D02*
X151596190Y-104000000D01*
X152072380Y-104238095D02*
X151072380Y-104238095D01*
X151072380Y-103857142D01*
X151120000Y-103761904D01*
X151167619Y-103714285D01*
X151262857Y-103666666D01*
X151405714Y-103666666D01*
X151500952Y-103714285D01*
X151548571Y-103761904D01*
X151596190Y-103857142D01*
X151596190Y-104238095D01*
X152072380Y-102714285D02*
X152072380Y-103285714D01*
X152072380Y-103000000D02*
X151072380Y-103000000D01*
X151215238Y-103095238D01*
X151310476Y-103190476D01*
X151358095Y-103285714D01*
G04 #@! TO.C,J2*
X159252380Y-112533333D02*
X159966666Y-112533333D01*
X160109523Y-112580952D01*
X160204761Y-112676190D01*
X160252380Y-112819047D01*
X160252380Y-112914285D01*
X159347619Y-112104761D02*
X159300000Y-112057142D01*
X159252380Y-111961904D01*
X159252380Y-111723809D01*
X159300000Y-111628571D01*
X159347619Y-111580952D01*
X159442857Y-111533333D01*
X159538095Y-111533333D01*
X159680952Y-111580952D01*
X160252380Y-112152380D01*
X160252380Y-111533333D01*
G04 #@! TO.C,D2*
X154552380Y-108138095D02*
X153552380Y-108138095D01*
X153552380Y-107900000D01*
X153600000Y-107757142D01*
X153695238Y-107661904D01*
X153790476Y-107614285D01*
X153980952Y-107566666D01*
X154123809Y-107566666D01*
X154314285Y-107614285D01*
X154409523Y-107661904D01*
X154504761Y-107757142D01*
X154552380Y-107900000D01*
X154552380Y-108138095D01*
X153647619Y-107185714D02*
X153600000Y-107138095D01*
X153552380Y-107042857D01*
X153552380Y-106804761D01*
X153600000Y-106709523D01*
X153647619Y-106661904D01*
X153742857Y-106614285D01*
X153838095Y-106614285D01*
X153980952Y-106661904D01*
X154552380Y-107233333D01*
X154552380Y-106614285D01*
G04 #@! TO.C,D1*
X144952380Y-108838095D02*
X143952380Y-108838095D01*
X143952380Y-108600000D01*
X144000000Y-108457142D01*
X144095238Y-108361904D01*
X144190476Y-108314285D01*
X144380952Y-108266666D01*
X144523809Y-108266666D01*
X144714285Y-108314285D01*
X144809523Y-108361904D01*
X144904761Y-108457142D01*
X144952380Y-108600000D01*
X144952380Y-108838095D01*
X144952380Y-107314285D02*
X144952380Y-107885714D01*
X144952380Y-107600000D02*
X143952380Y-107600000D01*
X144095238Y-107695238D01*
X144190476Y-107790476D01*
X144238095Y-107885714D01*
G04 #@! TO.C,SW1*
X138904761Y-76933333D02*
X138952380Y-76790476D01*
X138952380Y-76552380D01*
X138904761Y-76457142D01*
X138857142Y-76409523D01*
X138761904Y-76361904D01*
X138666666Y-76361904D01*
X138571428Y-76409523D01*
X138523809Y-76457142D01*
X138476190Y-76552380D01*
X138428571Y-76742857D01*
X138380952Y-76838095D01*
X138333333Y-76885714D01*
X138238095Y-76933333D01*
X138142857Y-76933333D01*
X138047619Y-76885714D01*
X138000000Y-76838095D01*
X137952380Y-76742857D01*
X137952380Y-76504761D01*
X138000000Y-76361904D01*
X137952380Y-76028571D02*
X138952380Y-75790476D01*
X138238095Y-75600000D01*
X138952380Y-75409523D01*
X137952380Y-75171428D01*
X138952380Y-74266666D02*
X138952380Y-74838095D01*
X138952380Y-74552380D02*
X137952380Y-74552380D01*
X138095238Y-74647619D01*
X138190476Y-74742857D01*
X138238095Y-74838095D01*
G04 #@! TO.C,D1*
X143752380Y-79638095D02*
X142752380Y-79638095D01*
X142752380Y-79400000D01*
X142800000Y-79257142D01*
X142895238Y-79161904D01*
X142990476Y-79114285D01*
X143180952Y-79066666D01*
X143323809Y-79066666D01*
X143514285Y-79114285D01*
X143609523Y-79161904D01*
X143704761Y-79257142D01*
X143752380Y-79400000D01*
X143752380Y-79638095D01*
X143752380Y-78114285D02*
X143752380Y-78685714D01*
X143752380Y-78400000D02*
X142752380Y-78400000D01*
X142895238Y-78495238D01*
X142990476Y-78590476D01*
X143038095Y-78685714D01*
G04 #@! TO.C,D2*
X134152380Y-80338095D02*
X133152380Y-80338095D01*
X133152380Y-80100000D01*
X133200000Y-79957142D01*
X133295238Y-79861904D01*
X133390476Y-79814285D01*
X133580952Y-79766666D01*
X133723809Y-79766666D01*
X133914285Y-79814285D01*
X134009523Y-79861904D01*
X134104761Y-79957142D01*
X134152380Y-80100000D01*
X134152380Y-80338095D01*
X133247619Y-79385714D02*
X133200000Y-79338095D01*
X133152380Y-79242857D01*
X133152380Y-79004761D01*
X133200000Y-78909523D01*
X133247619Y-78861904D01*
X133342857Y-78814285D01*
X133438095Y-78814285D01*
X133580952Y-78861904D01*
X134152380Y-79433333D01*
X134152380Y-78814285D01*
G04 #@! TO.C,J2*
X127452380Y-75133333D02*
X128166666Y-75133333D01*
X128309523Y-75180952D01*
X128404761Y-75276190D01*
X128452380Y-75419047D01*
X128452380Y-75514285D01*
X127547619Y-74704761D02*
X127500000Y-74657142D01*
X127452380Y-74561904D01*
X127452380Y-74323809D01*
X127500000Y-74228571D01*
X127547619Y-74180952D01*
X127642857Y-74133333D01*
X127738095Y-74133333D01*
X127880952Y-74180952D01*
X128452380Y-74752380D01*
X128452380Y-74133333D01*
G04 #@! TO.C,R1*
X136632380Y-83666666D02*
X136156190Y-84000000D01*
X136632380Y-84238095D02*
X135632380Y-84238095D01*
X135632380Y-83857142D01*
X135680000Y-83761904D01*
X135727619Y-83714285D01*
X135822857Y-83666666D01*
X135965714Y-83666666D01*
X136060952Y-83714285D01*
X136108571Y-83761904D01*
X136156190Y-83857142D01*
X136156190Y-84238095D01*
X136632380Y-82714285D02*
X136632380Y-83285714D01*
X136632380Y-83000000D02*
X135632380Y-83000000D01*
X135775238Y-83095238D01*
X135870476Y-83190476D01*
X135918095Y-83285714D01*
G04 #@! TO.C,R2*
X132332380Y-83666666D02*
X131856190Y-84000000D01*
X132332380Y-84238095D02*
X131332380Y-84238095D01*
X131332380Y-83857142D01*
X131380000Y-83761904D01*
X131427619Y-83714285D01*
X131522857Y-83666666D01*
X131665714Y-83666666D01*
X131760952Y-83714285D01*
X131808571Y-83761904D01*
X131856190Y-83857142D01*
X131856190Y-84238095D01*
X131427619Y-83285714D02*
X131380000Y-83238095D01*
X131332380Y-83142857D01*
X131332380Y-82904761D01*
X131380000Y-82809523D01*
X131427619Y-82761904D01*
X131522857Y-82714285D01*
X131618095Y-82714285D01*
X131760952Y-82761904D01*
X132332380Y-83333333D01*
X132332380Y-82714285D01*
G04 #@! TO.C,J1*
X141952380Y-85233333D02*
X142666666Y-85233333D01*
X142809523Y-85280952D01*
X142904761Y-85376190D01*
X142952380Y-85519047D01*
X142952380Y-85614285D01*
X142952380Y-84233333D02*
X142952380Y-84804761D01*
X142952380Y-84519047D02*
X141952380Y-84519047D01*
X142095238Y-84614285D01*
X142190476Y-84709523D01*
X142238095Y-84804761D01*
G04 #@! TD*
M02*
