G04 #@! TF.GenerationSoftware,KiCad,Pcbnew,(5.0.1)-4*
G04 #@! TF.CreationDate,2019-02-20T00:24:04+08:00*
G04 #@! TF.ProjectId,Xiaomi2Ali-Smart-Plug-WIFI-Module-Rev.B,5869616F6D6932416C692D536D617274,rev?*
G04 #@! TF.SameCoordinates,Original*
G04 #@! TF.FileFunction,Copper,L2,Bot,Signal*
G04 #@! TF.FilePolarity,Positive*
%FSLAX46Y46*%
G04 Gerber Fmt 4.6, Leading zero omitted, Abs format (unit mm)*
G04 Created by KiCad (PCBNEW (5.0.1)-4) date 2019/2/20 0:24:04*
%MOMM*%
%LPD*%
G01*
G04 APERTURE LIST*
G04 #@! TA.AperFunction,ComponentPad*
%ADD10R,1.350000X1.350000*%
G04 #@! TD*
G04 #@! TA.AperFunction,ComponentPad*
%ADD11O,1.700000X1.700000*%
G04 #@! TD*
G04 #@! TA.AperFunction,ComponentPad*
%ADD12R,1.700000X1.700000*%
G04 #@! TD*
G04 #@! TA.AperFunction,ViaPad*
%ADD13C,0.800000*%
G04 #@! TD*
G04 #@! TA.AperFunction,Conductor*
%ADD14C,0.250000*%
G04 #@! TD*
G04 APERTURE END LIST*
D10*
G04 #@! TO.P,J1,7*
G04 #@! TO.N,N/C*
X143300000Y-99500000D03*
G04 #@! TO.P,J1,6*
X143300000Y-97500000D03*
G04 #@! TO.P,J1,5*
X143300000Y-95500000D03*
G04 #@! TO.P,J1,4*
X143300000Y-93500000D03*
G04 #@! TO.P,J1,3*
X143300000Y-91500000D03*
G04 #@! TO.P,J1,2*
X143300000Y-89500000D03*
G04 #@! TO.P,J1,1*
X143300000Y-87500000D03*
G04 #@! TD*
G04 #@! TO.P,J1,1*
G04 #@! TO.N,N/C*
X143500000Y-99500000D03*
G04 #@! TO.P,J1,2*
X143500000Y-97500000D03*
G04 #@! TO.P,J1,3*
X143500000Y-95500000D03*
G04 #@! TO.P,J1,4*
X143500000Y-93500000D03*
G04 #@! TO.P,J1,5*
X143500000Y-91500000D03*
G04 #@! TO.P,J1,6*
X143500000Y-89500000D03*
G04 #@! TO.P,J1,7*
X143500000Y-87500000D03*
G04 #@! TD*
D11*
G04 #@! TO.P,J2,3*
G04 #@! TO.N,N/C*
X153720000Y-114800000D03*
G04 #@! TO.P,J2,2*
X156260000Y-114800000D03*
D12*
G04 #@! TO.P,J2,1*
X158800000Y-114800000D03*
G04 #@! TD*
G04 #@! TO.P,J2,1*
G04 #@! TO.N,Net-(J1-Pad6)*
X128000000Y-72200000D03*
D11*
G04 #@! TO.P,J2,2*
G04 #@! TO.N,VCC*
X130540000Y-72200000D03*
G04 #@! TO.P,J2,3*
G04 #@! TO.N,GND*
X133080000Y-72200000D03*
G04 #@! TD*
D13*
G04 #@! TO.N,*
X144600000Y-115000000D03*
X145600000Y-108000000D03*
G04 #@! TO.N,VCC*
X142200000Y-72000000D03*
G04 #@! TO.N,Net-(J1-Pad3)*
X141200000Y-79000000D03*
G04 #@! TD*
D14*
G04 #@! TO.N,*
X156260000Y-112660000D02*
X155660000Y-112060000D01*
X144600000Y-115000000D02*
X144600000Y-100400000D01*
X147540000Y-112060000D02*
X144600000Y-115000000D01*
X156260000Y-114800000D02*
X156260000Y-112660000D01*
X155660000Y-112060000D02*
X147540000Y-112060000D01*
X147300000Y-97500000D02*
X145300000Y-95500000D01*
X145600000Y-108000000D02*
X147300000Y-106300000D01*
X147300000Y-106300000D02*
X147300000Y-97500000D01*
X144425000Y-99500000D02*
X143500000Y-99500000D01*
X144600000Y-99675000D02*
X144425000Y-99500000D01*
X144600000Y-100400000D02*
X144600000Y-99675000D01*
X145300000Y-95500000D02*
X143500000Y-95500000D01*
G04 #@! TO.N,VCC*
X139260000Y-74940000D02*
X142200000Y-72000000D01*
X131140000Y-74940000D02*
X139260000Y-74940000D01*
X130540000Y-72200000D02*
X130540000Y-74340000D01*
X130540000Y-74340000D02*
X131140000Y-74940000D01*
X142375000Y-87500000D02*
X143300000Y-87500000D01*
X142200000Y-87325000D02*
X142375000Y-87500000D01*
X142200000Y-72000000D02*
X142200000Y-87325000D01*
G04 #@! TO.N,Net-(J1-Pad3)*
X139500000Y-89500000D02*
X141500000Y-91500000D01*
X141200000Y-79000000D02*
X139500000Y-80700000D01*
X139500000Y-80700000D02*
X139500000Y-89500000D01*
X141500000Y-91500000D02*
X143300000Y-91500000D01*
G04 #@! TD*
M02*
