G04 #@! TF.GenerationSoftware,KiCad,Pcbnew,(5.0.1)-4*
G04 #@! TF.CreationDate,2019-02-20T16:16:22+08:00*
G04 #@! TF.ProjectId,Xiaomi2Ali-Smart-Plug-WIFI-Module-Rev.B,5869616F6D6932416C692D536D617274,rev?*
G04 #@! TF.SameCoordinates,Original*
G04 #@! TF.FileFunction,Soldermask,Bot*
G04 #@! TF.FilePolarity,Negative*
%FSLAX46Y46*%
G04 Gerber Fmt 4.6, Leading zero omitted, Abs format (unit mm)*
G04 Created by KiCad (PCBNEW (5.0.1)-4) date 2019/2/20 16:16:22*
%MOMM*%
%LPD*%
G01*
G04 APERTURE LIST*
%ADD10C,0.100000*%
G04 APERTURE END LIST*
D10*
G36*
X157370442Y-113905518D02*
X157436627Y-113912037D01*
X157549853Y-113946384D01*
X157606467Y-113963557D01*
X157745087Y-114037652D01*
X157762991Y-114047222D01*
X157798729Y-114076552D01*
X157900186Y-114159814D01*
X157983448Y-114261271D01*
X158012778Y-114297009D01*
X158012779Y-114297011D01*
X158096443Y-114453533D01*
X158096443Y-114453534D01*
X158147963Y-114623373D01*
X158165359Y-114800000D01*
X158147963Y-114976627D01*
X158113616Y-115089853D01*
X158096443Y-115146467D01*
X158022348Y-115285087D01*
X158012778Y-115302991D01*
X157983448Y-115338729D01*
X157900186Y-115440186D01*
X157798729Y-115523448D01*
X157762991Y-115552778D01*
X157762989Y-115552779D01*
X157606467Y-115636443D01*
X157549853Y-115653616D01*
X157436627Y-115687963D01*
X157370442Y-115694482D01*
X157304260Y-115701000D01*
X157215740Y-115701000D01*
X157149558Y-115694482D01*
X157083373Y-115687963D01*
X156970147Y-115653616D01*
X156913533Y-115636443D01*
X156757011Y-115552779D01*
X156757009Y-115552778D01*
X156721271Y-115523448D01*
X156619814Y-115440186D01*
X156536552Y-115338729D01*
X156507222Y-115302991D01*
X156497652Y-115285087D01*
X156423557Y-115146467D01*
X156406384Y-115089853D01*
X156372037Y-114976627D01*
X156354641Y-114800000D01*
X156372037Y-114623373D01*
X156423557Y-114453534D01*
X156423557Y-114453533D01*
X156507221Y-114297011D01*
X156507222Y-114297009D01*
X156536552Y-114261271D01*
X156619814Y-114159814D01*
X156721271Y-114076552D01*
X156757009Y-114047222D01*
X156774913Y-114037652D01*
X156913533Y-113963557D01*
X156970147Y-113946384D01*
X157083373Y-113912037D01*
X157149558Y-113905518D01*
X157215740Y-113899000D01*
X157304260Y-113899000D01*
X157370442Y-113905518D01*
X157370442Y-113905518D01*
G37*
G36*
X154830442Y-113905518D02*
X154896627Y-113912037D01*
X155009853Y-113946384D01*
X155066467Y-113963557D01*
X155205087Y-114037652D01*
X155222991Y-114047222D01*
X155258729Y-114076552D01*
X155360186Y-114159814D01*
X155443448Y-114261271D01*
X155472778Y-114297009D01*
X155472779Y-114297011D01*
X155556443Y-114453533D01*
X155556443Y-114453534D01*
X155607963Y-114623373D01*
X155625359Y-114800000D01*
X155607963Y-114976627D01*
X155573616Y-115089853D01*
X155556443Y-115146467D01*
X155482348Y-115285087D01*
X155472778Y-115302991D01*
X155443448Y-115338729D01*
X155360186Y-115440186D01*
X155258729Y-115523448D01*
X155222991Y-115552778D01*
X155222989Y-115552779D01*
X155066467Y-115636443D01*
X155009853Y-115653616D01*
X154896627Y-115687963D01*
X154830442Y-115694482D01*
X154764260Y-115701000D01*
X154675740Y-115701000D01*
X154609558Y-115694482D01*
X154543373Y-115687963D01*
X154430147Y-115653616D01*
X154373533Y-115636443D01*
X154217011Y-115552779D01*
X154217009Y-115552778D01*
X154181271Y-115523448D01*
X154079814Y-115440186D01*
X153996552Y-115338729D01*
X153967222Y-115302991D01*
X153957652Y-115285087D01*
X153883557Y-115146467D01*
X153866384Y-115089853D01*
X153832037Y-114976627D01*
X153814641Y-114800000D01*
X153832037Y-114623373D01*
X153883557Y-114453534D01*
X153883557Y-114453533D01*
X153967221Y-114297011D01*
X153967222Y-114297009D01*
X153996552Y-114261271D01*
X154079814Y-114159814D01*
X154181271Y-114076552D01*
X154217009Y-114047222D01*
X154234913Y-114037652D01*
X154373533Y-113963557D01*
X154430147Y-113946384D01*
X154543373Y-113912037D01*
X154609558Y-113905518D01*
X154675740Y-113899000D01*
X154764260Y-113899000D01*
X154830442Y-113905518D01*
X154830442Y-113905518D01*
G37*
G36*
X160701000Y-115701000D02*
X158899000Y-115701000D01*
X158899000Y-113899000D01*
X160701000Y-113899000D01*
X160701000Y-115701000D01*
X160701000Y-115701000D01*
G37*
G36*
X144726000Y-100226000D02*
X143074000Y-100226000D01*
X143074000Y-98774000D01*
X144726000Y-98774000D01*
X144726000Y-100226000D01*
X144726000Y-100226000D01*
G37*
G36*
X144726000Y-98226000D02*
X143074000Y-98226000D01*
X143074000Y-96774000D01*
X144726000Y-96774000D01*
X144726000Y-98226000D01*
X144726000Y-98226000D01*
G37*
G36*
X144726000Y-96226000D02*
X143074000Y-96226000D01*
X143074000Y-94774000D01*
X144726000Y-94774000D01*
X144726000Y-96226000D01*
X144726000Y-96226000D01*
G37*
G36*
X144726000Y-94226000D02*
X143074000Y-94226000D01*
X143074000Y-92774000D01*
X144726000Y-92774000D01*
X144726000Y-94226000D01*
X144726000Y-94226000D01*
G37*
G36*
X144726000Y-92226000D02*
X143074000Y-92226000D01*
X143074000Y-90774000D01*
X144726000Y-90774000D01*
X144726000Y-92226000D01*
X144726000Y-92226000D01*
G37*
G36*
X144726000Y-90226000D02*
X143074000Y-90226000D01*
X143074000Y-88774000D01*
X144726000Y-88774000D01*
X144726000Y-90226000D01*
X144726000Y-90226000D01*
G37*
G36*
X144726000Y-88226000D02*
X143074000Y-88226000D01*
X143074000Y-86774000D01*
X144726000Y-86774000D01*
X144726000Y-88226000D01*
X144726000Y-88226000D01*
G37*
G36*
X128901000Y-73101000D02*
X127099000Y-73101000D01*
X127099000Y-71299000D01*
X128901000Y-71299000D01*
X128901000Y-73101000D01*
X128901000Y-73101000D01*
G37*
G36*
X130650442Y-71305518D02*
X130716627Y-71312037D01*
X130829853Y-71346384D01*
X130886467Y-71363557D01*
X131025087Y-71437652D01*
X131042991Y-71447222D01*
X131078729Y-71476552D01*
X131180186Y-71559814D01*
X131263448Y-71661271D01*
X131292778Y-71697009D01*
X131292779Y-71697011D01*
X131376443Y-71853533D01*
X131376443Y-71853534D01*
X131427963Y-72023373D01*
X131445359Y-72200000D01*
X131427963Y-72376627D01*
X131393616Y-72489853D01*
X131376443Y-72546467D01*
X131302348Y-72685087D01*
X131292778Y-72702991D01*
X131263448Y-72738729D01*
X131180186Y-72840186D01*
X131078729Y-72923448D01*
X131042991Y-72952778D01*
X131042989Y-72952779D01*
X130886467Y-73036443D01*
X130829853Y-73053616D01*
X130716627Y-73087963D01*
X130650442Y-73094482D01*
X130584260Y-73101000D01*
X130495740Y-73101000D01*
X130429558Y-73094482D01*
X130363373Y-73087963D01*
X130250147Y-73053616D01*
X130193533Y-73036443D01*
X130037011Y-72952779D01*
X130037009Y-72952778D01*
X130001271Y-72923448D01*
X129899814Y-72840186D01*
X129816552Y-72738729D01*
X129787222Y-72702991D01*
X129777652Y-72685087D01*
X129703557Y-72546467D01*
X129686384Y-72489853D01*
X129652037Y-72376627D01*
X129634641Y-72200000D01*
X129652037Y-72023373D01*
X129703557Y-71853534D01*
X129703557Y-71853533D01*
X129787221Y-71697011D01*
X129787222Y-71697009D01*
X129816552Y-71661271D01*
X129899814Y-71559814D01*
X130001271Y-71476552D01*
X130037009Y-71447222D01*
X130054913Y-71437652D01*
X130193533Y-71363557D01*
X130250147Y-71346384D01*
X130363373Y-71312037D01*
X130429558Y-71305518D01*
X130495740Y-71299000D01*
X130584260Y-71299000D01*
X130650442Y-71305518D01*
X130650442Y-71305518D01*
G37*
G36*
X133190442Y-71305518D02*
X133256627Y-71312037D01*
X133369853Y-71346384D01*
X133426467Y-71363557D01*
X133565087Y-71437652D01*
X133582991Y-71447222D01*
X133618729Y-71476552D01*
X133720186Y-71559814D01*
X133803448Y-71661271D01*
X133832778Y-71697009D01*
X133832779Y-71697011D01*
X133916443Y-71853533D01*
X133916443Y-71853534D01*
X133967963Y-72023373D01*
X133985359Y-72200000D01*
X133967963Y-72376627D01*
X133933616Y-72489853D01*
X133916443Y-72546467D01*
X133842348Y-72685087D01*
X133832778Y-72702991D01*
X133803448Y-72738729D01*
X133720186Y-72840186D01*
X133618729Y-72923448D01*
X133582991Y-72952778D01*
X133582989Y-72952779D01*
X133426467Y-73036443D01*
X133369853Y-73053616D01*
X133256627Y-73087963D01*
X133190442Y-73094482D01*
X133124260Y-73101000D01*
X133035740Y-73101000D01*
X132969558Y-73094482D01*
X132903373Y-73087963D01*
X132790147Y-73053616D01*
X132733533Y-73036443D01*
X132577011Y-72952779D01*
X132577009Y-72952778D01*
X132541271Y-72923448D01*
X132439814Y-72840186D01*
X132356552Y-72738729D01*
X132327222Y-72702991D01*
X132317652Y-72685087D01*
X132243557Y-72546467D01*
X132226384Y-72489853D01*
X132192037Y-72376627D01*
X132174641Y-72200000D01*
X132192037Y-72023373D01*
X132243557Y-71853534D01*
X132243557Y-71853533D01*
X132327221Y-71697011D01*
X132327222Y-71697009D01*
X132356552Y-71661271D01*
X132439814Y-71559814D01*
X132541271Y-71476552D01*
X132577009Y-71447222D01*
X132594913Y-71437652D01*
X132733533Y-71363557D01*
X132790147Y-71346384D01*
X132903373Y-71312037D01*
X132969558Y-71305518D01*
X133035740Y-71299000D01*
X133124260Y-71299000D01*
X133190442Y-71305518D01*
X133190442Y-71305518D01*
G37*
M02*
