G04 #@! TF.GenerationSoftware,KiCad,Pcbnew,(5.0.1)-4*
G04 #@! TF.CreationDate,2019-02-20T16:16:22+08:00*
G04 #@! TF.ProjectId,Xiaomi2Ali-Smart-Plug-WIFI-Module-Rev.B,5869616F6D6932416C692D536D617274,rev?*
G04 #@! TF.SameCoordinates,Original*
G04 #@! TF.FileFunction,Copper,L2,Bot,Signal*
G04 #@! TF.FilePolarity,Positive*
%FSLAX46Y46*%
G04 Gerber Fmt 4.6, Leading zero omitted, Abs format (unit mm)*
G04 Created by KiCad (PCBNEW (5.0.1)-4) date 2019/2/20 16:16:22*
%MOMM*%
%LPD*%
G01*
G04 APERTURE LIST*
G04 #@! TA.AperFunction,ComponentPad*
%ADD10R,1.350000X1.350000*%
G04 #@! TD*
G04 #@! TA.AperFunction,ComponentPad*
%ADD11O,1.700000X1.700000*%
G04 #@! TD*
G04 #@! TA.AperFunction,ComponentPad*
%ADD12R,1.700000X1.700000*%
G04 #@! TD*
G04 #@! TA.AperFunction,ViaPad*
%ADD13C,0.800000*%
G04 #@! TD*
G04 #@! TA.AperFunction,Conductor*
%ADD14C,0.250000*%
G04 #@! TD*
G04 APERTURE END LIST*
D10*
G04 #@! TO.P,J1,7*
G04 #@! TO.N,N/C*
X144000000Y-87500000D03*
G04 #@! TO.P,J1,6*
X144000000Y-89500000D03*
G04 #@! TO.P,J1,5*
X144000000Y-91500000D03*
G04 #@! TO.P,J1,4*
X144000000Y-93500000D03*
G04 #@! TO.P,J1,3*
X144000000Y-95500000D03*
G04 #@! TO.P,J1,2*
X144000000Y-97500000D03*
G04 #@! TO.P,J1,1*
X144000000Y-99500000D03*
G04 #@! TD*
D11*
G04 #@! TO.P,J2,3*
G04 #@! TO.N,N/C*
X154720000Y-114800000D03*
G04 #@! TO.P,J2,2*
X157260000Y-114800000D03*
D12*
G04 #@! TO.P,J2,1*
X159800000Y-114800000D03*
G04 #@! TD*
G04 #@! TO.P,J2,1*
G04 #@! TO.N,Net-(J1-Pad6)*
X128000000Y-72200000D03*
D11*
G04 #@! TO.P,J2,2*
G04 #@! TO.N,VCC*
X130540000Y-72200000D03*
G04 #@! TO.P,J2,3*
G04 #@! TO.N,GND*
X133080000Y-72200000D03*
G04 #@! TD*
D10*
G04 #@! TO.P,J1,1*
G04 #@! TO.N,VCC*
X143800000Y-87500000D03*
G04 #@! TO.P,J1,2*
G04 #@! TO.N,GND*
X143800000Y-89500000D03*
G04 #@! TO.P,J1,3*
G04 #@! TO.N,Net-(J1-Pad3)*
X143800000Y-91500000D03*
G04 #@! TO.P,J1,4*
G04 #@! TO.N,Net-(J1-Pad4)*
X143800000Y-93500000D03*
G04 #@! TO.P,J1,5*
G04 #@! TO.N,Net-(J1-Pad5)*
X143800000Y-95500000D03*
G04 #@! TO.P,J1,6*
G04 #@! TO.N,Net-(J1-Pad6)*
X143800000Y-97500000D03*
G04 #@! TO.P,J1,7*
G04 #@! TO.N,Net-(J1-Pad7)*
X143800000Y-99500000D03*
G04 #@! TD*
D13*
G04 #@! TO.N,*
X144500000Y-114600000D03*
X147600000Y-105800000D03*
G04 #@! TO.N,VCC*
X143300000Y-72400000D03*
G04 #@! TO.N,Net-(J1-Pad3)*
X140200000Y-81200000D03*
G04 #@! TD*
D14*
G04 #@! TO.N,*
X146000000Y-99700000D02*
X145800000Y-99500000D01*
X145800000Y-99500000D02*
X144425010Y-99500000D01*
X147000000Y-112100000D02*
X144500000Y-114600000D01*
X144500000Y-111500000D02*
X144500000Y-114600000D01*
X146000000Y-110000000D02*
X144500000Y-111500000D01*
X157260000Y-114800000D02*
X157260000Y-112960000D01*
X157260000Y-112960000D02*
X156400000Y-112100000D01*
X146000000Y-99700000D02*
X146000000Y-110000000D01*
X156400000Y-112100000D02*
X147000000Y-112100000D01*
X146300000Y-95500000D02*
X144425010Y-95500000D01*
X147600000Y-96800000D02*
X146300000Y-95500000D01*
X147600000Y-105800000D02*
X147600000Y-96800000D01*
G04 #@! TO.N,VCC*
X141800000Y-87300000D02*
X142000000Y-87500000D01*
X142000000Y-87500000D02*
X143374990Y-87500000D01*
X140800000Y-74900000D02*
X143300000Y-72400000D01*
X131400000Y-74900000D02*
X140800000Y-74900000D01*
X130540000Y-72200000D02*
X130540000Y-74040000D01*
X130540000Y-74040000D02*
X131400000Y-74900000D01*
X141800000Y-87300000D02*
X141800000Y-77000000D01*
X143300000Y-75500000D02*
X143300000Y-72400000D01*
X141800000Y-77000000D02*
X143300000Y-75500000D01*
G04 #@! TO.N,Net-(J1-Pad3)*
X140200000Y-81200000D02*
X140200000Y-90200000D01*
X140200000Y-90200000D02*
X141500000Y-91500000D01*
X141500000Y-91500000D02*
X143374990Y-91500000D01*
G04 #@! TD*
M02*
