M48
;DRILL file {KiCad (5.0.1)-4} date 2019/2/22 14:42:08
;FORMAT={-:-/ absolute / metric / decimal}
FMAT,2
METRIC,TZ
T1C0.400
T2C0.800
T3C1.000
%
G90
G05
M71
T1
X139.Y-80.4
X143.3Y-72.4
X144.5Y-114.6
X148.8Y-106.6
T2
X144.Y-87.5
X144.Y-89.5
X144.Y-91.5
X144.Y-93.5
X144.Y-95.5
X144.Y-97.5
X144.Y-99.5
X143.8Y-87.5
X143.8Y-89.5
X143.8Y-91.5
X143.8Y-93.5
X143.8Y-95.5
X143.8Y-97.5
X143.8Y-99.5
T3
X154.72Y-114.
X157.26Y-114.
X159.8Y-114.
X128.Y-73.
X130.54Y-73.
X133.08Y-73.
T0
M30
